SplineFontDB: 3.2
FontName: MuktiBoldItalic
FullName: Mukti Bold Italic
FamilyName: Mukti
Weight: Bold
Copyright: GNU GPL3+ (c) Mukta Bangla Font Project, Dr Anirban Mitra 2002-22. For detail licence agreement see www.gnu.org/licences/gpl.txt\nAs a special exception, if you create a document which uses this font, and embed this font or unaltered portions of this font into the document, this font does not by itself cause the resulting document to be covered by the GNU General Public License. This exception does not however invalidate any other reasons why the document might be covered by the GNU General Public License. If you modify this font, you may extend this exception to your version of the font, but you are not obligated to do so. If you do not wish to do so, delete this exception statement from your version
FontLog: "muktiregular3.0beta1+AAoACgAA-version3.0.2"
Version: 3.4.3;December 05, 2024
ItalicAngle: 0
UnderlinePosition: -166
UnderlineWidth: 73
Ascent: 800
Descent: 200
InvalidEm: 0
sfntRevision: 0x0001fd70
LayerCount: 2
Layer: 0 0 "Back" 1
Layer: 1 0 "Fore" 0
XUID: [1021 498 675293083 13863648]
StyleMap: 0x0021
FSType: 0
OS2Version: 3
OS2_WeightWidthSlopeOnly: 0
OS2_UseTypoMetrics: 0
CreationTime: 1138213189
ModificationTime: 1733374608
PfmFamily: 33
TTFWeight: 700
TTFWidth: 5
LineGap: 0
VLineGap: 0
Panose: 0 0 0 0 0 0 0 0 0 0
OS2TypoAscent: 1241
OS2TypoAOffset: 0
OS2TypoDescent: 438
OS2TypoDOffset: 0
OS2TypoLinegap: 0
OS2WinAscent: 1241
OS2WinAOffset: 0
OS2WinDescent: 438
OS2WinDOffset: 0
HheadAscent: 1241
HheadAOffset: 0
HheadDescent: -438
HheadDOffset: 0
OS2SubXSize: 700
OS2SubYSize: 650
OS2SubXOff: 0
OS2SubYOff: 140
OS2SupXSize: 700
OS2SupYSize: 650
OS2SupXOff: 0
OS2SupYOff: 480
OS2StrikeYSize: 50
OS2StrikeYPos: 259
OS2CapHeight: 1493
OS2XHeight: 1073
OS2Vendor: 'fbf '
OS2CodePages: 00000001.80000000
OS2UnicodeRanges: 80018003.00002002.00000000.00000000

StartChar: .notdef
Encoding: 154 -1 0
Width: 398
Flags: W
HStem: 0 33<67 317> 633 33<206 455>
LayerCount: 2
Fore
SplineSet
30 0 m 1
 184 666 l 1
 493 666 l 1
 340 0 l 1
 30 0 l 1
67 33 m 1
 317 33 l 1
 455 633 l 1
 206 633 l 1
 67 33 l 1
EndSplineSet
EndChar

StartChar: exclam
Encoding: 2 33 3
Width: 305
GlyphClass: 2
Flags: HW
LayerCount: 2
Fore
SplineSet
275 146 m 1
 241 0 l 1
 102 0 l 1
 136 146 l 1
 275 146 l 1
409 726 m 1
 361 516 l 1
 250 207 l 1
 188 207 l 1
 221 516 l 1
 270 726 l 1
 409 726 l 1
EndSplineSet
EndChar

StartChar: quotedbl
Encoding: 3 34 4
Width: 437
GlyphClass: 2
Flags: HW
LayerCount: 2
Fore
SplineSet
562 729 m 1
 532 599 l 1
 463 470 l 1
 411 470 l 1
 403 599 l 1
 433 729 l 1
 562 729 l 1
342 729 m 1
 312 599 l 1
 243 470 l 1
 191 470 l 1
 184 599 l 1
 214 729 l 1
 342 729 l 1
EndSplineSet
EndChar

StartChar: numbersign
Encoding: 4 35 5
Width: 516
GlyphClass: 2
Flags: HW
LayerCount: 2
Fore
SplineSet
253 271 m 1
 349 271 l 1
 412 424 l 1
 316 424 l 1
 253 271 l 1
128 -32 m 1
 30 -32 l 1
 114 172 l 1
 42 172 l 1
 65 271 l 1
 156 271 l 1
 219 424 l 1
 127 424 l 1
 150 523 l 1
 260 523 l 1
 332 697 l 1
 430 697 l 1
 358 523 l 1
 454 523 l 1
 525 697 l 1
 623 697 l 1
 551 523 l 1
 635 523 l 1
 612 424 l 1
 511 424 l 1
 447 271 l 1
 540 271 l 1
 517 172 l 1
 406 172 l 1
 322 -32 l 1
 224 -32 l 1
 308 172 l 1
 213 172 l 1
 128 -32 l 1
EndSplineSet
EndChar

StartChar: dollar
Encoding: 5 36 6
Width: 515
GlyphClass: 2
Flags: HW
LayerCount: 2
Fore
SplineSet
354 282 m 1xca
 309 86 l 1
 363 100 396 132 409 183 c 0
 420 232 402 264 354 282 c 1xca
324 427 m 1
 366 608 l 1
 314 597 281 566 269 516 c 0xd8
 260 476 275 447 316 430 c 0
 319 429 321 429 324 427 c 1
595 498 m 1xdc
 476 498 l 1xdc
 490 550 482 584 452 601 c 0
 445 604 437 607 429 608 c 1
 383 407 l 1
 471 379 523 340 536 289 c 0
 544 264 544 232 535 195 c 0
 519 126 485 71 434 33 c 1
 414 20 l 1
 378 -1 335 -15 284 -21 c 1
 260 -126 l 1
 196 -126 l 1
 221 -21 l 1
 171 -16 133 0 106 25 c 0
 62 66 50 123 66 198 c 2
 68 207 l 1
 190 207 l 1xea
 177 136 194 96 245 86 c 1
 295 299 l 1
 177 331 129 401 154 512 c 0
 172 592 218 649 291 683 c 0
 320 697 353 706 389 709 c 1
 402 763 l 1
 465 763 l 1
 452 709 l 1
 531 704 579 670 597 605 c 0
 597 604 596 604 597 603 c 2
 597 602 l 1
 604 572 603 537 595 498 c 1xdc
EndSplineSet
EndChar

StartChar: percent
Encoding: 6 37 7
Width: 824
GlyphClass: 2
Flags: HW
LayerCount: 2
Fore
SplineSet
689 253 m 0xc780
 659 253 634 239 612 212 c 0
 602 199 596 185 591 169 c 0
 584 138 592 114 613 97 c 1
 613 97 l 1
 623 89 636 85 651 85 c 0
 680 85 706 99 728 126 c 0
 738 139 746 153 749 168 c 0
 756 200 749 224 728 241 c 1
 727 241 l 1
 717 249 703 253 689 253 c 0xc780
712 352 m 0
 768 352 807 329 830 283 c 0
 846 249 851 211 841 167 c 0
 828 112 797 67 748 30 c 0
 709 1 669 -13 628 -13 c 0
 574 -13 535 9 512 53 c 0
 493 86 489 125 499 170 c 0
 512 227 544 273 594 310 c 0
 632 338 671 352 712 352 c 0
727 709 m 1x8f80
 798 709 l 1
 262 -20 l 1
 190 -20 l 1
 727 709 l 1x8f80
330 602 m 0xb780
 300 602 275 588 253 561 c 0
 243 548 235 534 232 519 c 0
 225 488 232 464 253 447 c 0
 263 439 277 435 292 435 c 0
 321 435 347 449 369 476 c 0
 379 489 387 503 390 518 c 0
 398 551 390 575 367 591 c 0
 357 598 344 602 330 602 c 0xb780
353 701 m 0
 408 701 447 679 471 633 c 0
 483 610 487 583 486 554 c 1
 482 517 l 1
 469 462 438 417 389 380 c 0
 350 351 310 337 269 337 c 0
 216 337 177 359 153 403 c 0
 134 437 130 475 140 519 c 0
 153 576 184 622 234 659 c 0
 272 687 312 701 353 701 c 0
EndSplineSet
EndChar

StartChar: ampersand
Encoding: 7 38 8
Width: 668
GlyphClass: 2
Flags: HW
LayerCount: 2
Fore
SplineSet
402 470 m 1x2e
 443 492 469 521 478 556 c 0
 486 591 472 610 438 614 c 1
 411 614 392 603 380 582 c 1
 374 566 373 566 373 566 c 1
 370 551 372 534 379 516 c 1
 380 516 l 1
 402 470 l 1x2e
331 319 m 1
 281 290 l 2
 251 271 231 245 222 210 c 0
 213 173 221 142 243 117 c 0
 258 101 274 93 294 93 c 0xb6
 324 93 365 111 418 148 c 1
 331 319 l 1
574 373 m 1
 679 373 l 1
 677 362 l 1
 676 357 l 1
 658 286 627 225 584 174 c 1
 565 154 l 1
 644 0 l 1
 495 0 l 1x6e
 465 56 l 1
 401 12 349 -13 307 -20 c 1
 265 -23 l 1
 184 -23 130 5 103 62 c 0
 85 98 83 142 95 193 c 0xb6
 109 253 138 301 184 337 c 0
 209 358 245 379 289 401 c 1
 285 409 282 414 281 416 c 2
 263 450 l 2
 245 483 239 518 248 556 c 0xae
 261 611 293 654 344 687 c 0
 381 711 420 723 462 723 c 0
 528 723 571 700 590 653 c 1
 589 652 l 1
 598 628 599 600 592 568 c 0
 581 521 557 480 518 446 c 0
 499 430 475 412 443 392 c 1
 517 248 l 1
 544 286 563 325 572 363 c 2
 574 373 l 1
EndSplineSet
EndChar

StartChar: quotesingle
Encoding: 8 39 9
Width: 218
GlyphClass: 2
Flags: HW
LayerCount: 2
Fore
SplineSet
342 729 m 1
 312 599 l 1
 243 470 l 1
 191 470 l 1
 184 599 l 1
 214 729 l 1
 342 729 l 1
EndSplineSet
EndChar

StartChar: parenleft
Encoding: 9 40 10
Width: 307
GlyphClass: 2
Flags: HW
LayerCount: 2
Fore
SplineSet
356 729 m 1
 449 729 l 1
 350 590 284 477 250 388 c 0
 235 350 222 309 212 265 c 0
 190 169 185 72 199 -25 c 0
 205 -74 218 -132 235 -200 c 1
 142 -200 l 1
 89 -61 69 67 83 186 c 0
 86 211 92 238 98 265 c 0
 126 388 189 514 286 641 c 0
 307 669 330 698 356 729 c 1
EndSplineSet
EndChar

StartChar: parenright
Encoding: 10 41 11
Width: 307
GlyphClass: 2
Flags: HW
LayerCount: 2
Fore
SplineSet
67 -200 m 1
 -26 -200 l 1
 73 -61 139 52 173 141 c 0
 188 179 201 220 211 264 c 0
 233 360 238 457 224 554 c 0
 218 603 205 661 188 729 c 1
 281 729 l 1
 334 590 354 462 340 343 c 0
 337 318 332 291 326 264 c 0
 298 141 234 15 137 -112 c 0
 116 -140 93 -169 67 -200 c 1
EndSplineSet
EndChar

StartChar: asterisk
Encoding: 11 42 12
Width: 359
GlyphClass: 2
Flags: HW
LayerCount: 2
Fore
SplineSet
248 544 m 1
 155 580 l 1
 191 649 l 1
 284 613 l 1
 311 729 l 1
 378 729 l 1
 351 613 l 1
 461 649 l 1
 465 579 l 1
 356 544 l 1
 396 450 l 1
 333 407 l 1
 292 501 l 1
 208 407 l 1
 164 450 l 1
 248 544 l 1
EndSplineSet
EndChar

StartChar: plus
Encoding: 12 43 13
Width: 540
GlyphClass: 2
Flags: HW
LayerCount: 2
Fore
SplineSet
562 291 m 1
 534 172 l 1
 365 172 l 1
 323 -10 l 1
 212 -10 l 1
 254 172 l 1
 85 172 l 1
 113 291 l 1
 282 291 l 1
 324 473 l 1
 435 473 l 1
 393 291 l 1
 562 291 l 1
EndSplineSet
EndChar

StartChar: comma
Encoding: 13 44 14
Width: 255
GlyphClass: 2
Flags: HW
LayerCount: 2
Fore
SplineSet
92 146 m 1xe0
 231 146 l 1
 200 9 l 2
 186 -51 165 -94 139 -119 c 0
 132 -125 124 -131 116 -137 c 0
 87 -157 54 -169 18 -174 c 1
 31 -118 l 1xe0
 81 -107 114 -77 131 -26 c 0
 137 -3 138 -3 138 -3 c 1
 138 0 l 1xd0
 58 0 l 1
 92 146 l 1xe0
EndSplineSet
EndChar

StartChar: period
Encoding: 15 46 15
Width: 255
GlyphClass: 2
Flags: HW
LayerCount: 2
Fore
SplineSet
231 146 m 1
 198 0 l 1
 58 0 l 1
 92 146 l 1
 231 146 l 1
EndSplineSet
EndChar

StartChar: slash
Encoding: 16 47 16
AltUni2: 002044.ffffffff.0
Width: 257
GlyphClass: 2
Flags: W
HStem: -14 21G<-1 70.8901>
LayerCount: 2
Fore
SplineSet
358 714 m 1
 421 714 l 1
 61 -14 l 1
 -1 -14 l 1
 358 714 l 1
EndSplineSet
EndChar

StartChar: zero
Encoding: 17 48 17
Width: 514
GlyphClass: 2
Flags: HW
LayerCount: 2
Fore
SplineSet
394 611 m 0
 356 611 325 589 299 544 c 0
 280 509 260 445 238 351 c 0
 215 250 205 184 212 152 c 0
 219 116 242 98 276 97 c 0
 314 97 345 119 371 162 c 0
 390 195 410 258 431 349 c 0
 455 454 464 522 457 554 c 0
 450 592 428 611 394 611 c 0
420 724 m 0
 497 724 549 691 574 625 c 1
 575 624 l 1
 577 619 l 2
 596 565 590 474 560 346 c 0
 530 214 490 122 440 68 c 0
 384 7 321 -23 248 -23 c 0
 173 -23 122 9 96 72 c 0
 94 76 93 79 92 82 c 0
 73 137 78 226 107 350 c 0
 138 485 179 580 228 633 c 0
 283 694 347 724 420 724 c 0
EndSplineSet
EndChar

StartChar: one
Encoding: 18 49 18
Width: 511
GlyphClass: 2
Flags: HW
LayerCount: 2
Fore
SplineSet
333 489 m 1xf0
 175 489 l 1
 196 582 l 1
 310 582 387 624 427 709 c 1
 514 709 l 1xe8
 350 0 l 1
 220 0 l 1
 333 489 l 1xf0
EndSplineSet
EndChar

StartChar: two
Encoding: 19 50 19
Width: 514
GlyphClass: 2
Flags: HW
LayerCount: 2
Fore
SplineSet
504 125 m 1
 476 0 l 1
 27 0 l 1
 48 77 80 138 122 182 c 0
 150 211 191 243 244 276 c 0
 335 336 393 379 419 407 c 0
 440 430 455 460 463 496 c 0
 476 552 466 588 431 603 c 0
 421 608 409 610 396 610 c 0
 350 610 313 584 289 533 c 0
 282 519 277 503 273 485 c 2
 268 462 l 1
 143 462 l 1
 148 487 l 1
 172 591 223 661 300 698 c 0
 336 715 376 724 420 724 c 0
 506 724 563 693 589 631 c 0
 604 595 606 551 594 499 c 0
 581 442 555 394 514 355 c 0
 487 328 445 296 390 259 c 0
 314 209 267 173 248 153 c 0
 241 145 233 136 225 125 c 1
 504 125 l 1
EndSplineSet
EndChar

StartChar: three
Encoding: 20 51 20
Width: 514
GlyphClass: 2
Flags: HW
LayerCount: 2
Fore
SplineSet
274 317 m 1xf2
 296 411 l 1
 307 411 l 2
 383 411 430 447 447 518 c 0
 459 569 447 600 409 609 c 1
 387 611 l 1
 349 611 319 596 298 566 c 1
 295 561 l 2
 285 544 277 520 268 486 c 1
 147 486 l 1
 150 498 l 2
 165 561 189 610 222 644 c 0
 272 697 337 724 416 724 c 0
 499 724 553 696 576 640 c 0
 589 610 591 574 581 531 c 0xec
 568 475 535 429 482 394 c 1
 481 393 l 1
 459 380 l 1
 516 347 539 297 531 232 c 0
 530 224 528 214 526 204 c 0
 507 120 463 58 394 17 c 1
 393 16 l 1
 349 -10 298 -23 243 -23 c 0
 157 -23 103 9 78 72 c 0
 63 109 63 155 74 208 c 1
 201 208 l 1
 188 134 212 97 274 97 c 0
 312 97 344 114 369 147 c 0
 382 164 391 183 396 204 c 0
 406 248 398 280 370 300 c 1
 349 310 l 1
 332 315 307 317 274 317 c 1xf2
EndSplineSet
EndChar

StartChar: four
Encoding: 21 52 21
Width: 515
GlyphClass: 2
Flags: HW
LayerCount: 2
Fore
SplineSet
349 273 m 1
 419 576 l 1
 177 273 l 1
 349 273 l 1
548 273 m 1
 521 157 l 1
 452 157 l 1
 416 0 l 1
 286 0 l 1
 322 157 l 1
 58 157 l 1
 85 275 l 1
 426 709 l 1
 580 709 l 1
 479 273 l 1
 548 273 l 1
EndSplineSet
EndChar

StartChar: five
Encoding: 22 53 22
Width: 514
GlyphClass: 2
Flags: HW
LayerCount: 2
Fore
SplineSet
618 709 m 1
 589 584 l 1
 317 584 l 1
 261 436 l 1
 303 465 344 479 385 479 c 0
 456 479 503 449 528 390 c 0
 546 347 548 296 534 234 c 0
 514 146 471 78 402 30 c 0
 352 -5 297 -23 237 -23 c 0
 158 -23 104 5 77 60 c 0
 60 95 57 136 67 185 c 1
 196 185 l 1
 186 130 208 100 266 97 c 1
 312 97 350 120 378 167 c 0
 389 186 397 207 403 231 c 0
 418 298 407 340 370 359 c 1
 369 360 l 1
 358 366 345 368 329 368 c 0
 287 368 255 350 233 314 c 1
 116 314 l 1
 265 709 l 1
 618 709 l 1
EndSplineSet
EndChar

StartChar: six
Encoding: 23 54 23
Width: 514
GlyphClass: 2
Flags: HW
LayerCount: 2
Fore
SplineSet
341 357 m 0
 300 357 266 336 239 295 c 0
 226 275 215 252 209 225 c 0
 197 172 206 135 233 112 c 0
 247 102 261 97 280 97 c 0
 317 97 350 117 378 155 c 0
 393 176 405 200 411 228 c 0
 424 285 415 324 385 345 c 0
 373 353 359 357 341 357 c 0
597 548 m 1
 476 548 l 1
 470 584 455 604 429 609 c 0
 424 610 417 611 410 611 c 0
 365 611 329 587 300 539 c 0
 295 531 291 522 287 513 c 0
 286 512 285 511 285 509 c 0
 277 489 266 454 253 404 c 1
 295 442 336 463 379 466 c 0
 380 466 380 466 381 466 c 0
 387 467 391 467 398 467 c 0
 465 467 510 439 532 382 c 0
 548 342 550 294 537 237 c 0
 516 147 473 77 408 29 c 0
 362 -6 311 -23 256 -23 c 0
 187 -23 139 3 109 54 c 1
 95 82 l 1
 76 135 80 220 107 337 c 0
 133 450 169 536 214 598 c 2
 226 614 l 1
 281 683 348 720 427 724 c 1
 440 724 l 2
 510 724 557 700 583 652 c 1
 583 652 583 652 584 651 c 2
 585 650 l 2
 585 649 584 649 585 648 c 0
 586 647 588 645 588 643 c 0
 598 619 600 587 597 548 c 1
EndSplineSet
EndChar

StartChar: seven
Encoding: 24 55 24
Width: 515
GlyphClass: 2
Flags: HW
LayerCount: 2
Fore
SplineSet
654 709 m 1
 629 599 l 1
 490 460 389 325 326 192 c 0
 297 133 274 69 254 0 c 1
 123 0 l 1
 167 128 217 235 271 320 c 1
 290 347 l 2
 323 398 374 460 440 534 c 0
 461 555 478 572 490 584 c 1
 161 584 l 1
 190 709 l 1
 654 709 l 1
EndSplineSet
EndChar

StartChar: eight
Encoding: 25 56 25
Width: 515
GlyphClass: 2
Flags: HW
LayerCount: 2
Fore
SplineSet
330 330 m 0xf2
 284 330 249 310 223 269 c 0
 213 252 204 233 199 212 c 0
 187 160 198 125 231 107 c 0
 243 100 258 97 276 97 c 0
 322 97 357 117 383 155 c 0
 393 171 401 189 406 210 c 0
 419 266 408 303 373 321 c 0
 360 327 347 330 330 330 c 0xf2
396 611 m 0
 353 611 320 595 296 562 c 0
 286 549 281 535 277 519 c 0
 268 480 278 453 307 436 c 0
 320 429 335 425 353 425 c 0
 393 425 426 440 451 472 c 0
 461 485 469 501 473 518 c 0xec
 482 557 471 584 442 600 c 0
 430 607 415 611 396 611 c 0
469 386 m 1
 521 352 545 307 542 250 c 0
 542 237 539 221 535 204 c 0
 517 127 476 68 410 25 c 0
 362 -7 308 -23 249 -23 c 0
 167 -23 112 5 81 62 c 0
 59 101 54 148 67 204 c 0xf2
 83 272 119 325 176 363 c 1
 217 386 l 1
 173 415 155 455 160 506 c 0
 161 514 163 523 165 531 c 0
 180 595 216 645 275 682 c 0
 320 710 369 724 422 724 c 0
 495 724 545 700 574 651 c 1
 575 650 l 1
 594 617 598 577 588 532 c 0
 577 483 555 445 519 416 c 0
 509 407 491 397 469 386 c 1
EndSplineSet
EndChar

StartChar: nine
Encoding: 26 57 26
Width: 514
GlyphClass: 2
Flags: HW
LayerCount: 2
Fore
SplineSet
385 610 m 0
 344 610 311 587 285 542 c 1
 285 542 284 542 283 541 c 0
 272 522 265 501 259 476 c 0
 245 414 254 373 287 354 c 0
 297 347 310 344 325 344 c 0
 365 344 400 365 427 405 c 0
 440 425 450 447 456 474 c 0
 470 536 461 578 428 599 c 0
 416 606 402 610 385 610 c 0
73 165 m 1
 198 165 l 1
 193 132 205 111 233 101 c 0
 242 98 251 96 262 96 c 0
 334 96 386 164 418 298 c 1
 393 275 377 260 367 254 c 0
 341 237 309 228 275 228 c 0
 206 228 161 258 139 318 c 0
 122 361 121 412 135 474 c 0
 155 561 197 627 263 674 c 0
 309 708 360 724 415 724 c 0
 496 724 549 685 574 608 c 0
 592 554 589 474 565 370 c 0
 538 254 500 162 451 95 c 0
 449 91 447 89 444 86 c 0
 387 13 317 -24 231 -24 c 0
 163 -24 116 0 88 48 c 0
 69 82 64 120 73 165 c 1
EndSplineSet
EndChar

StartChar: colon
Encoding: 27 58 27
Width: 305
GlyphClass: 2
Flags: HW
LayerCount: 2
Fore
SplineSet
362 520 m 1
 329 374 l 1
 189 374 l 1
 223 520 l 1
 362 520 l 1
276 146 m 1
 242 0 l 1
 103 0 l 1
 137 146 l 1
 276 146 l 1
EndSplineSet
EndChar

StartChar: semicolon
Encoding: 28 59 28
Width: 305
GlyphClass: 2
Flags: HW
LayerCount: 2
Fore
SplineSet
362 520 m 1xf0
 329 374 l 1
 189 374 l 1
 223 520 l 1
 362 520 l 1xf0
137 146 m 1
 276 146 l 1
 244 9 l 2
 230 -51 210 -94 183 -119 c 0
 176 -125 168 -131 160 -137 c 0
 131 -157 99 -169 63 -174 c 1
 76 -118 l 1xf0
 126 -107 159 -77 176 -26 c 0
 182 -3 182 -3 182 -3 c 1
 183 0 l 1xe8
 103 0 l 1
 137 146 l 1
EndSplineSet
EndChar

StartChar: less
Encoding: 29 60 29
Width: 540
GlyphClass: 2
Flags: HW
LayerCount: 2
Fore
SplineSet
601 474 m 1
 575 365 l 1
 189 232 l 1
 514 101 l 1
 489 -10 l 1
 76 172 l 1
 104 293 l 1
 601 474 l 1
EndSplineSet
EndChar

StartChar: equal
Encoding: 30 61 30
Width: 540
GlyphClass: 2
Flags: HW
LayerCount: 2
Fore
SplineSet
535 171 m 1
 508 52 l 1
 58 52 l 1
 85 171 l 1
 535 171 l 1
591 411 m 1
 563 292 l 1
 113 292 l 1
 140 411 l 1
 591 411 l 1
EndSplineSet
EndChar

StartChar: greater
Encoding: 31 62 31
Width: 540
GlyphClass: 2
Flags: HW
LayerCount: 2
Fore
SplineSet
34 -10 m 1
 59 99 l 1
 445 232 l 1
 120 363 l 1
 146 474 l 1
 559 292 l 1
 531 171 l 1
 34 -10 l 1
EndSplineSet
EndChar

StartChar: question
Encoding: 32 63 32
Width: 564
GlyphClass: 2
Flags: HW
LayerCount: 2
Fore
SplineSet
390 146 m 1xf4
 357 0 l 1
 217 0 l 1
 251 146 l 1
 390 146 l 1xf4
388 201 m 1xec
 273 201 l 1
 284 256 306 301 339 336 c 0
 356 355 381 376 411 399 c 0
 453 430 478 454 489 473 c 0
 494 483 499 495 503 511 c 0
 513 555 506 588 480 609 c 0
 467 620 452 626 432 626 c 0
 394 626 362 607 333 568 c 0
 315 543 302 515 296 483 c 2
 296 481 l 1
 169 481 l 1
 187 553 213 608 247 647 c 0
 249 650 250 652 253 655 c 0
 307 715 374 744 456 744 c 0
 537 744 591 716 622 659 c 0
 622 658 622 658 623 657 c 0
 642 622 646 580 637 531 c 0
 637 526 635 520 634 514 c 0
 622 462 600 419 565 386 c 0
 556 377 546 369 535 360 c 0
 522 350 505 338 488 327 c 2
 478 320 l 1
 443 298 422 279 412 266 c 0
 403 253 395 232 388 201 c 1xec
EndSplineSet
EndChar

StartChar: at
Encoding: 33 64 33
Width: 904
GlyphClass: 2
Flags: HW
LayerCount: 2
Fore
SplineSet
578 447 m 0
 540 447 501 425 460 380 c 0
 422 339 397 293 386 244 c 0
 377 203 383 172 405 152 c 0
 416 142 428 137 444 137 c 0
 471 137 500 151 532 179 c 2
 537 184 l 2
 576 222 605 267 624 318 c 0
 627 325 629 334 632 345 c 0
 644 396 636 429 606 442 c 1
 605 442 l 1
 604 442 l 1
 596 445 587 447 578 447 c 0
716 508 m 1
 799 508 l 1
 662 228 l 2
 653 208 647 194 645 186 c 0
 639 159 646 143 668 138 c 0
 671 137 674 137 679 137 c 0
 711 137 748 158 790 200 c 2
 798 209 l 1
 840 256 869 310 883 370 c 0
 901 448 886 517 839 576 c 0
 789 637 718 668 629 668 c 0
 520 668 423 626 336 542 c 0
 262 471 211 388 183 293 c 1
 176 266 l 1
 152 164 170 83 229 21 c 0
 281 -33 352 -60 438 -60 c 0
 510 -60 577 -46 640 -19 c 1
 649 -92 l 1
 580 -123 503 -138 418 -138 c 0
 304 -138 215 -106 155 -43 c 0
 96 18 69 97 75 194 c 0
 77 217 80 240 86 264 c 0
 107 355 154 444 227 530 c 0
 250 556 272 580 296 601 c 0
 405 697 523 745 651 745 c 0
 769 745 858 703 920 620 c 0
 972 548 986 460 962 355 c 0
 943 274 901 202 836 140 c 0
 777 84 719 56 661 56 c 0
 629 56 603 65 584 82 c 0
 571 94 564 109 562 127 c 0
 562 128 563 130 562 131 c 1
 516 85 467 60 416 56 c 0
 410 56 411 56 405 56 c 0
 356 56 322 77 301 120 c 0
 286 151 283 186 292 227 c 0
 307 292 340 354 393 413 c 1
 407 427 l 2
 456 477 509 507 568 516 c 0
 578 517 587 518 597 518 c 0
 643 518 672 497 684 455 c 2
 686 446 l 1
 716 508 l 1
EndSplineSet
EndChar

StartChar: bracketleft
Encoding: 34 91 34
Width: 306
GlyphClass: 2
Flags: HW
LayerCount: 2
Fore
SplineSet
453 729 m 1xe0
 430 627 l 1xe0
 326 627 l 1
 158 -98 l 1xd0
 262 -98 l 1
 239 -200 l 1
 14 -200 l 1
 228 729 l 1
 453 729 l 1xe0
EndSplineSet
EndChar

StartChar: backslash
Encoding: 35 92 35
Width: 258
GlyphClass: 2
Flags: HW
LayerCount: 2
Fore
SplineSet
216 714 m 1
 266 -14 l 1
 203 -14 l 1
 154 714 l 1
 216 714 l 1
EndSplineSet
EndChar

StartChar: bracketright
Encoding: 36 93 36
Width: 306
GlyphClass: 2
Flags: HW
LayerCount: 2
Fore
SplineSet
-30 -200 m 1xe0
 -6 -98 l 1xe0
 98 -98 l 1
 265 627 l 1xd0
 161 627 l 1
 185 729 l 1
 410 729 l 1
 195 -200 l 1
 -30 -200 l 1xe0
EndSplineSet
EndChar

StartChar: asciicircum
Encoding: 37 94 37
Width: 539
GlyphClass: 2
Flags: HW
LayerCount: 2
Fore
SplineSet
547 270 m 1
 441 270 l 1
 398 570 l 1
 222 270 l 1
 118 270 l 1
 369 695 l 1
 486 695 l 1
 547 270 l 1
EndSplineSet
EndChar

StartChar: underscore
Encoding: 38 95 38
Width: 517
GlyphClass: 2
Flags: HW
LayerCount: 2
Fore
SplineSet
510 -120 m 1
 494 -189 l 1
 -64 -189 l 1
 -48 -120 l 1
 510 -120 l 1
EndSplineSet
EndChar

StartChar: grave
Encoding: 39 96 39
Width: 306
GlyphClass: 2
Flags: HW
LayerCount: 2
Fore
SplineSet
190 757 m 1
 307 757 l 1
 337 607 l 1
 273 607 l 1
 190 757 l 1
EndSplineSet
EndChar

StartChar: braceleft
Encoding: 40 123 40
Width: 358
GlyphClass: 2
Flags: HW
LayerCount: 2
Fore
SplineSet
462 729 m 1
 440 630 l 1
 405 630 l 2
 379 630 361 611 350 573 c 1
 305 378 l 2
 295 333 277 303 253 288 c 0
 252 288 252 288 252 288 c 1
 238 279 217 273 190 269 c 1
 231 262 254 246 259 222 c 1
 260 222 l 1
 262 211 261 196 258 177 c 2
 255 159 l 1
 209 -36 l 2
 201 -72 204 -92 218 -98 c 1
 236 -101 l 1
 271 -101 l 1
 248 -200 l 1
 177 -200 l 2
 133 -200 106 -179 95 -138 c 0
 88 -116 88 -90 95 -60 c 2
 144 150 l 2
 151 182 149 203 137 213 c 1
 136 213 l 1
 135 214 l 1
 130 217 l 2
 123 221 109 222 89 222 c 1
 85 223 l 1
 106 315 l 1
 110 315 l 1
 121 315 l 2
 158 316 182 333 193 367 c 0
 196 378 196 378 196 378 c 1
 245 589 l 2
 258 644 286 685 327 710 c 0
 348 723 369 729 392 729 c 2
 462 729 l 1
EndSplineSet
EndChar

StartChar: bar
Encoding: 41 124 41
Width: 255
GlyphClass: 2
Flags: HW
LayerCount: 2
Fore
SplineSet
334 729 m 1
 119 -200 l 1
 45 -200 l 1
 259 729 l 1
 334 729 l 1
EndSplineSet
EndChar

StartChar: braceright
Encoding: 42 125 42
Width: 358
GlyphClass: 2
Flags: HW
CounterMasks: 1 e0
LayerCount: 2
Fore
SplineSet
19 -200 m 1
 42 -101 l 1
 77 -101 l 2
 103 -101 121 -82 132 -44 c 1
 177 151 l 2
 188 197 204 226 229 241 c 0
 230 241 230 241 230 241 c 1
 244 249 265 256 292 260 c 1
 251 267 228 283 223 307 c 0
 220 321 221 342 227 370 c 2
 272 565 l 2
 280 601 278 622 263 627 c 1
 245 630 l 1
 211 630 l 1
 234 729 l 1
 305 729 l 2
 349 729 375 708 387 667 c 0
 394 645 394 619 387 589 c 2
 338 379 l 2
 331 347 333 326 345 316 c 1
 351 312 l 2
 359 309 373 307 393 307 c 1
 397 306 l 1
 375 214 l 1
 372 214 l 1
 360 214 l 2
 323 213 300 196 289 162 c 0
 286 151 285 151 285 151 c 1
 237 -60 l 2
 224 -115 197 -156 155 -181 c 0
 134 -194 113 -200 90 -200 c 2
 19 -200 l 1
EndSplineSet
EndChar

StartChar: asciitilde
Encoding: 43 126 43
Width: 539
GlyphClass: 2
Flags: HW
LayerCount: 2
Fore
SplineSet
475 288 m 1
 548 288 l 1
 520 191 469 142 396 142 c 0
 368 142 344 151 325 168 c 2
 282 210 l 2
 266 226 249 234 230 234 c 0
 208 234 192 225 180 207 c 0
 176 200 171 187 166 169 c 1
 94 169 l 1
 121 266 171 314 245 314 c 0
 274 314 299 306 317 289 c 2
 360 247 l 2
 377 230 394 222 411 222 c 0
 433 222 450 231 462 249 c 0
 466 256 470 269 475 288 c 1
EndSplineSet
EndChar

StartChar: danda
Encoding: 47 2404 44
Width: 270
GlyphClass: 2
Flags: HW
LayerCount: 2
Fore
SplineSet
369 585 m 1
 234 0 l 1
 227 -30 l 1
 199 -30 l 1
 137 -30 l 1
 109 -30 l 1
 117 0 l 1
 253 585 l 1
 260 615 l 1
 288 615 l 1
 348 615 l 1
 376 615 l 1
 369 585 l 1
EndSplineSet
EndChar

StartChar: doubledanda
Encoding: 48 2405 45
Width: 390
GlyphClass: 2
Flags: HW
LayerCount: 2
Fore
SplineSet
438 545 m 1
 323 70 l 1
 321 58 l 1
 311 50 l 1
 253 -4 l 1
 191 -62 l 1
 210 16 l 1
 322 487 l 1
 325 498 l 1
 333 507 l 1
 393 565 l 1
 457 627 l 1
 438 545 l 1
295 535 m 1
 187 61 l 1
 185 49 l 1
 175 40 l 1
 119 -10 l 1
 58 -64 l 1
 75 11 l 1
 183 478 l 1
 186 489 l 1
 194 497 l 1
 250 554 l 1
 314 620 l 1
 295 535 l 1
EndSplineSet
EndChar

StartChar: u0981
Encoding: 50 2433 46
Width: 11
GlyphClass: 2
Flags: HMW
AnchorPoint: "Anchor-0" -190 688 mark 0
LayerCount: 2
Fore
SplineSet
127 934 m 0
 139 934 149 930 155 921 c 0
 161 912 162 901 159 888 c 0
 156 875 149 864 139 855 c 0
 129 846 118 842 106 842 c 0
 94 842 85 846 79 855 c 0
 73 864 72 875 75 888 c 0
 78 901 84 912 94 921 c 0
 104 930 115 934 127 934 c 0
275 888 m 1
 249 816 196 771 115 751 c 1
 58 747 16 757 -11 783 c 0
 -38 809 -47 843 -37 887 c 1
 -22 904 -9 912 1 912 c 0
 9 912 21 907 33 896 c 1
 32 875 36 857 49 843 c 0
 62 829 77 822 95 823 c 0
 124 824 146 832 163 847 c 0
 174 856 190 875 207 904 c 1
 220 911 231 914 241 914 c 0
 257 914 269 905 275 888 c 1
EndSplineSet
Substitution2: "'salt' Stylistic Alternatives in Bengali2 lookup 17-1" u0981.salt
EndChar

StartChar: u0982
Encoding: 51 2434 47
Width: 434
GlyphClass: 2
Flags: HMW
LayerCount: 2
Fore
SplineSet
365 531 m 1
 370 542 375 551 377 560 c 0
 383 584 374 596 352 595 c 0
 331 594 315 582 301 558 c 0
 295 548 290 538 288 528 c 0
 281 499 291 487 317 492 c 1
 334 498 350 511 365 531 c 1
442 90 m 2
 445 84 446 78 444 71 c 0
 442 62 435 53 425 46 c 0
 415 39 405 35 394 35 c 0
 384 35 376 39 371 46 c 2
 183 331 l 1
 180 340 180 349 182 357 c 0
 187 380 201 392 222 392 c 0
 232 392 240 388 248 381 c 2
 442 90 l 2
440 531 m 0
 429 500 408 473 376 449 c 0
 344 425 315 413 286 413 c 0
 258 413 237 424 223 446 c 0
 209 468 206 495 213 526 c 0
 216 537 219 547 224 558 c 0
 259 633 308 671 370 671 c 0
 440 671 466 634 449 561 c 0
 447 551 443 541 440 531 c 0
EndSplineSet
EndChar

StartChar: u0983
Encoding: 52 2435 48
Width: 403
GlyphClass: 2
Flags: HW
LayerCount: 2
Fore
SplineSet
290 243 m 1
 255 237 229 212 212 167 c 1
 203 132 213 115 238 115 c 0
 242 115 245 116 249 117 c 0
 263 119 279 128 294 146 c 0
 309 164 319 182 323 200 c 0
 330 229 319 243 290 243 c 1
361 584 m 1
 342 583 325 573 309 556 c 0
 293 539 282 520 277 500 c 0
 270 471 281 457 307 457 c 0
 325 457 342 467 360 486 c 0
 376 504 388 522 392 541 c 0
 398 568 388 583 361 584 c 1
390 178 m 1
 362 109 313 61 245 35 c 0
 237 34 228 33 221 33 c 0
 188 33 165 45 151 68 c 0
 137 91 132 122 140 163 c 1
 152 206 175 244 208 277 c 0
 241 310 276 326 314 326 c 0
 346 326 369 315 385 292 c 0
 403 265 405 227 390 178 c 1
451 506 m 0
 441 478 425 452 401 429 c 0
 374 402 344 385 312 378 c 0
 302 376 292 375 283 375 c 0
 252 375 230 386 216 409 c 0
 202 432 199 462 207 497 c 0
 210 510 212 523 218 536 c 0
 234 572 257 603 285 627 c 0
 313 651 342 664 373 665 c 0
 411 666 438 653 455 628 c 0
 469 605 474 576 466 543 c 0
 463 530 457 518 451 506 c 0
EndSplineSet
EndChar

StartChar: u0985
Encoding: 53 2437 49
Width: 778
GlyphClass: 2
Flags: HW
LayerCount: 2
Fore
SplineSet
680 178 m 1
 775 590 l 1
 529 590 l 1
 545 569 l 1
 577 559 602 549 617 539 c 0
 638 525 651 506 655 481 c 1
 672 438 675 390 663 338 c 0
 657 312 648 287 635 265 c 1
 680 178 l 1
921 590 m 1
 852 590 l 1
 734 80 l 1
 723 53 706 40 683 40 c 0
 672 40 663 45 658 54 c 2
 583 184 l 1
 532 122 474 91 409 91 c 0
 378 91 347 98 314 113 c 0
 253 141 206 197 177 280 c 0
 152 353 142 435 148 525 c 1
 161 546 176 557 192 557 c 0
 202 557 212 551 221 540 c 1
 216 457 225 384 250 321 c 0
 278 247 323 199 385 178 c 0
 398 174 412 172 426 172 c 0
 457 172 482 180 504 198 c 0
 548 234 577 282 591 342 c 0
 607 413 593 461 549 487 c 1
 539 488 529 489 521 489 c 0
 481 489 457 469 448 430 c 0
 445 417 444 402 444 384 c 1
 431 362 417 351 399 351 c 0
 388 351 377 357 369 369 c 1
 369 396 371 420 375 439 c 0
 385 484 412 520 455 545 c 1
 422 590 l 1
 131 590 l 1
 150 673 l 1
 940 673 l 1
 921 590 l 1
EndSplineSet
EndChar

StartChar: u0986
Encoding: 54 2438 50
Width: 956
GlyphClass: 2
Flags: HW
LayerCount: 2
Fore
SplineSet
680 178 m 1
 775 590 l 1
 529 590 l 1
 545 569 l 1
 577 559 602 549 617 539 c 0
 638 525 651 506 655 481 c 1
 672 438 675 390 663 338 c 0
 657 312 648 287 635 265 c 1
 680 178 l 1
1147 590 m 1
 1084 590 l 1
 963 67 l 2
 960 54 946 47 921 47 c 0
 898 47 887 54 890 69 c 2
 1011 590 l 1
 921 590 l 1
 921 590 l 1
 852 590 l 1
 734 80 l 1
 723 53 706 40 683 40 c 0
 672 40 663 45 658 54 c 2
 583 184 l 1
 532 122 474 91 409 91 c 0
 378 91 347 98 314 113 c 0
 253 141 206 197 177 280 c 0
 152 353 142 435 148 525 c 1
 161 546 176 557 192 557 c 0
 202 557 212 551 221 540 c 1
 216 457 225 384 250 321 c 0
 278 247 323 199 385 178 c 0
 398 174 412 172 426 172 c 0
 457 172 482 180 504 198 c 0
 548 234 577 282 591 342 c 0
 607 413 593 461 549 487 c 1
 539 488 529 489 521 489 c 0
 481 489 457 469 448 430 c 0
 445 417 444 402 444 384 c 1
 431 362 417 351 399 351 c 0
 388 351 377 357 369 369 c 1
 369 396 371 420 375 439 c 0
 385 484 412 520 455 545 c 1
 422 590 l 1
 131 590 l 1
 150 673 l 1
 940 673 l 1
 940 673 l 1
 1166 673 l 1
 1147 590 l 1
EndSplineSet
EndChar

StartChar: u0987
Encoding: 55 2439 51
Width: 415
GlyphClass: 2
Flags: HW
LayerCount: 2
Fore
SplineSet
409 589 m 1x5e
 480 565 504 506 483 413 c 0
 480 402 477 390 473 378 c 0
 430 285 347 228 224 208 c 1
 470 10 l 1
 470 3 469 -3 468 -9 c 0
 462 -35 446 -47 419 -44 c 1
 82 221 l 1
 78 231 76 242 79 254 c 0
 85 279 98 292 118 292 c 0
 123 292 128 291 132 289 c 0
 155 285 178 283 199 283 c 0
 293 283 361 318 404 388 c 0
 408 397 411 406 413 415 c 0
 419 440 418 462 409 481 c 0
 400 500 386 512 366 517 c 0
 360 518 354 518 348 518 c 0x8d
 281 518 237 482 217 410 c 1
 207 397 195 390 178 390 c 0
 160 390 151 399 150 418 c 1
 157 447 170 475 191 504 c 0
 212 533 234 554 261 569 c 1
 242 589 l 1
 133 589 l 1
 153 673 l 1
 460 673 l 1
 475 742 436 777 342 777 c 0
 299 777 281 777 284 776 c 1
 201 787 149 799 128 813 c 0
 95 836 84 882 96 952 c 0
 98 969 114 978 142 978 c 0
 162 978 172 972 169 960 c 0
 160 917 169 887 198 870 c 0
 218 858 252 852 300 853 c 0x6e
 378 854 415 854 410 855 c 1
 458 852 493 835 517 805 c 0
 543 772 551 728 538 673 c 1
 579 673 l 1
 560 589 l 1
 409 589 l 1x5e
284 776 m 1
 284 776 l 1
 284 776 l 1
EndSplineSet
EndChar

StartChar: u0988
Encoding: 56 2440 52
Width: 586
GlyphClass: 2
Flags: HW
LayerCount: 2
Fore
SplineSet
729 590 m 1xf5
 304 590 l 1
 324 561 l 1
 330 562 335 562 341 562 c 0
 379 562 407 547 425 516 c 0
 443 485 448 448 440 405 c 1
 536 483 604 523 643 524 c 0
 669 525 679 514 674 492 c 0
 673 486 671 480 668 475 c 0
 594 347 547 241 527 155 c 0
 512 89 507 23 515 -41 c 1
 506 -64 490 -75 468 -75 c 0
 459 -75 450 -72 443 -66 c 1
 435 8 441 84 459 162 c 0
 478 244 511 328 558 414 c 1
 527 395 477 355 408 292 c 0
 346 235 296 198 263 182 c 0
 212 157 167 161 129 193 c 1
 126 199 126 207 128 215 c 0
 134 240 150 254 177 259 c 1
 192 248 207 242 223 242 c 0
 250 242 285 263 327 306 c 1
 349 334 362 362 369 391 c 0
 376 423 372 448 356 466 c 0
 345 478 332 484 317 484 c 0
 297 484 279 474 260 455 c 0
 241 436 229 413 224 388 c 1
 214 377 201 372 187 372 c 0
 171 372 162 378 156 390 c 1xee
 167 451 199 497 248 530 c 1
 214 590 l 1
 131 590 l 1
 150 673 l 1
 632 673 l 1
 645 710 625 731 573 735 c 0
 559 736 525 736 468 735 c 0
 425 734 391 737 366 744 c 0
 322 755 294 770 281 789 c 0
 265 812 262 854 271 914 c 1
 278 933 290 942 307 942 c 0
 321 942 333 935 339 922 c 1
 330 875 338 844 363 828 c 0
 381 817 415 812 463 812 c 0
 470 812 470 812 486 812 c 0
 502 812 502 812 509 812 c 0
 573 812 621 805 651 792 c 0
 698 770 714 730 700 673 c 1
 748 673 l 1
 729 590 l 1xf5
EndSplineSet
EndChar

StartChar: u0989
Encoding: 57 2441 53
Width: 680
GlyphClass: 2
Flags: HW
LayerCount: 2
Fore
SplineSet
819 590 m 1xeb80
 475 590 l 1
 420 354 l 1
 422 345 426 340 433 340 c 0
 456 340 507 384 582 473 c 0
 589 481 599 486 611 486 c 0
 627 486 640 480 649 467 c 0
 686 418 698 363 683 300 c 0
 675 267 661 231 640 192 c 1
 571 89 493 37 410 35 c 0
 359 34 311 51 269 87 c 0
 234 116 208 152 192 194 c 0
 163 270 146 370 141 495 c 0
 142 505 148 513 157 521 c 0
 166 529 177 533 188 533 c 0
 200 533 209 528 215 519 c 1
 223 412 234 335 248 289 c 1
 257 240 278 200 310 166 c 0
 342 132 378 115 419 115 c 0
 465 115 509 137 552 181 c 1
 580 214 599 251 608 292 c 0xed40
 617 331 615 364 602 392 c 1
 557 350 524 321 502 306 c 0
 462 278 426 264 393 264 c 1
 347 272 333 311 349 381 c 2
 398 590 l 1
 131 590 l 1
 150 673 l 1
 639 673 l 1
 654 742 616 777 522 777 c 0
 479 777 460 777 463 776 c 1
 380 787 328 799 307 813 c 0
 274 836 263 882 275 952 c 0xf380
 277 969 293 978 321 978 c 0xf5
 341 978 351 972 348 960 c 0
 339 917 348 887 377 870 c 0
 397 858 432 852 480 853 c 0xf3
 558 854 594 854 589 855 c 1
 637 852 672 835 696 805 c 0
 722 772 729 728 716 673 c 1
 838 673 l 1
 819 590 l 1xeb80
463 776 m 1
 464 776 l 1
 463 776 l 1
EndSplineSet
EndChar

StartChar: u098a
Encoding: 58 2442 54
Width: 723
GlyphClass: 2
Flags: HW
LayerCount: 2
Fore
SplineSet
868 590 m 1xf580
 521 590 l 1
 466 353 l 1
 468 343 473 338 480 338 c 0
 495 338 521 356 558 393 c 0
 559 394 583 421 630 472 c 1
 639 485 650 491 665 491 c 0
 675 491 683 488 690 482 c 0
 735 430 746 363 724 280 c 0
 707 218 675 163 627 115 c 0
 574 62 516 35 455 35 c 0
 402 35 350 52 299 86 c 0
 248 120 212 163 190 214 c 0
 152 304 139 411 151 535 c 1
 159 557 172 569 192 569 c 0
 206 569 216 562 223 549 c 1
 220 450 224 378 236 331 c 1
 230 393 232 456 240 521 c 1
 252 540 265 550 280 550 c 0
 292 550 302 542 310 527 c 1
 300 432 303 343 319 263 c 0
 325 229 339 200 357 174 c 0
 378 144 402 126 432 119 c 0
 444 116 456 115 468 115 c 0
 539 115 596 160 640 250 c 0
 646 263 651 277 654 292 c 0xfb40
 663 333 661 366 647 393 c 1
 553 306 485 263 441 263 c 0
 408 263 389 288 385 337 c 1
 443 590 l 1
 127 590 l 1
 146 673 l 1
 664 673 l 1
 673 699 663 717 635 727 c 0
 612 735 573 739 520 738 c 0
 443 737 387 745 354 764 c 0
 303 792 285 846 302 926 c 1
 317 940 332 947 345 947 c 0
 356 947 367 941 375 930 c 1
 363 882 372 850 402 832 c 0
 424 819 461 813 515 813 c 0
 524 813 538 813 556 814 c 0
 584 814 584 814 597 814 c 0
 632 814 659 811 676 806 c 0
 707 796 730 777 741 750 c 0
 751 726 751 700 744 673 c 1
 887 673 l 1
 868 590 l 1xf580
EndSplineSet
EndChar

StartChar: u098b
Encoding: 59 2443 55
Width: 669
GlyphClass: 2
Flags: HW
LayerCount: 2
Fore
SplineSet
415 156 m 1
 487 469 l 1
 269 342 l 1
 415 156 l 1
645 169 m 2
 643 159 636 150 625 144 c 0
 614 138 603 135 591 135 c 0
 578 135 570 139 566 146 c 2
 510 246 l 1
 467 66 l 2
 465 56 459 48 447 41 c 0
 435 34 425 31 413 31 c 0
 403 31 395 34 390 40 c 2
 176 323 l 2
 171 329 171 337 173 346 c 0
 176 361 185 374 198 383 c 2
 418 514 l 1
 400 543 l 1
 362 509 325 492 285 492 c 0
 230 492 192 520 170 575 c 0
 170 579 170 583 171 587 c 0
 174 598 180 607 190 615 c 0
 200 623 212 627 225 627 c 0
 231 627 235 626 240 625 c 1
 251 590 272 573 303 573 c 0
 333 573 356 589 378 622 c 1
 397 638 416 642 438 635 c 1
 450 617 468 590 491 554 c 1
 509 565 l 1
 532 664 l 2
 536 680 551 688 577 688 c 0
 601 688 610 681 607 666 c 2
 538 369 l 1
 593 275 l 1
 683 666 l 2
 686 681 701 688 726 688 c 0
 751 688 762 681 759 666 c 2
 645 169 l 2
EndSplineSet
EndChar

StartChar: u098c
Encoding: 60 2444 56
Width: 593
GlyphClass: 2
Flags: HW
LayerCount: 2
Fore
SplineSet
568 203 m 1xd8
 540 155 500 116 447 85 c 0
 397 55 347 38 297 35 c 1
 270 40 258 50 261 64 c 0
 263 71 268 80 276 90 c 0
 285 105 294 121 303 137 c 0
 312 153 319 167 322 180 c 0
 325 195 325 212 323 231 c 1
 315 260 296 275 265 275 c 0
 247 275 232 269 215 256 c 0
 195 241 181 219 175 192 c 0
 170 170 169 147 174 124 c 0
 174 121 174 118 173 114 c 0
 168 92 152 81 126 81 c 0
 112 81 104 86 101 95 c 0
 94 126 94 157 102 190 c 0xb8
 111 228 127 260 152 287 c 0
 191 330 235 351 284 351 c 0
 313 351 338 342 358 326 c 0
 378 310 392 287 397 258 c 1
 400 229 398 201 392 175 c 0
 388 159 382 143 375 127 c 1
 455 154 504 201 519 268 c 0
 522 279 523 291 523 303 c 0
 524 352 503 392 461 423 c 0
 440 440 399 461 339 485 c 0
 275 511 235 531 218 544 c 0
 183 571 171 604 182 643 c 0
 188 666 202 678 222 678 c 0
 246 678 256 667 254 646 c 1
 249 627 259 610 285 595 c 0
 290 591 321 578 380 555 c 0
 550 487 621 393 593 273 c 0
 588 251 580 228 568 203 c 1xd8
EndSplineSet
EndChar

StartChar: u098f
Encoding: 61 2447 57
Width: 627
GlyphClass: 2
Flags: HW
LayerCount: 2
Fore
SplineSet
582 67 m 2x7c
 580 59 572 52 559 46 c 0
 546 40 532 36 520 36 c 0
 510 36 505 39 502 44 c 0
 479 96 439 122 384 122 c 0x7c
 366 122 339 119 301 112 c 0
 263 105 235 101 216 101 c 0
 201 101 188 103 175 106 c 0
 133 123 107 150 96 185 c 0
 86 216 88 258 100 309 c 0
 105 329 110 352 119 377 c 1
 134 388 147 393 158 393 c 0
 170 393 180 386 189 372 c 1
 177 330 171 307 170 303 c 0
 159 254 165 217 191 194 c 0
 204 182 222 176 245 176 c 0xbc
 259 176 284 179 319 186 c 0
 354 193 381 196 401 196 c 0
 450 196 491 180 525 149 c 1
 612 528 l 2
 621 567 613 586 589 586 c 0
 575 586 554 579 529 566 c 0
 466 535 429 490 415 431 c 0
 409 404 407 373 410 337 c 1
 402 313 386 301 361 301 c 0
 349 301 339 305 334 314 c 1
 327 349 330 386 338 422 c 0
 351 477 377 527 418 571 c 0
 459 615 505 643 561 658 c 0
 576 664 591 667 605 667 c 0
 632 667 655 655 675 632 c 0
 695 609 700 575 690 532 c 2
 582 67 l 2x7c
EndSplineSet
EndChar

StartChar: u0990
Encoding: 62 2448 58
Width: 695
GlyphClass: 2
Flags: HW
LayerCount: 2
Fore
SplineSet
582 67 m 2x7f80
 580 59 572 52 559 46 c 0
 546 40 532 36 520 36 c 0
 510 36 505 39 502 44 c 0
 479 96 439 122 384 122 c 0x7f80
 366 122 339 119 301 112 c 0
 263 105 235 101 216 101 c 0
 201 101 188 103 175 106 c 0
 133 123 107 150 96 185 c 0
 86 216 88 258 100 309 c 0
 105 329 110 352 119 377 c 1
 134 388 147 393 158 393 c 0
 170 393 180 386 189 372 c 1
 177 330 171 307 170 303 c 0
 159 254 165 217 191 194 c 0
 204 182 222 176 245 176 c 0xbf80
 259 176 284 179 319 186 c 0
 354 193 381 196 401 196 c 0
 450 196 491 180 525 149 c 1
 612 528 l 2
 621 567 613 586 589 586 c 0
 575 586 554 579 529 566 c 0
 466 535 429 490 415 431 c 0
 409 404 407 373 410 337 c 1
 402 313 386 301 361 301 c 0
 349 301 339 305 334 314 c 1
 327 349 330 386 338 422 c 0
 351 477 377 527 418 571 c 0
 459 615 505 643 561 658 c 0
 576 664 591 667 605 667 c 0
 632 667 655 655 675 632 c 0
 695 609 700 575 690 532 c 2
 667 433 l 1
 694 441 719 460 745 490 c 0
 772 522 789 554 797 588 c 0
 811 648 788 684 731 697 c 0
 621 722 574 767 589 832 c 0
 594 854 606 874 625 895 c 0
 644 916 665 932 687 943 c 1
 702 945 713 942 720 934 c 0
 727 926 729 916 726 904 c 0
 724 896 719 888 713 881 c 0
 687 858 673 840 670 828 c 0
 666 812 686 798 728 788 c 0
 783 773 820 757 840 741 c 0
 877 710 889 664 874 601 c 0
 861 546 832 492 789 442 c 0
 745 391 697 358 646 343 c 1
 582 67 l 2x7f80
EndSplineSet
EndChar

StartChar: u0993
Encoding: 63 2451 59
Width: 696
GlyphClass: 2
Flags: HW
LayerCount: 2
Fore
SplineSet
685 378 m 1xf8
 718 340 727 292 714 234 c 0
 704 189 682 150 648 117 c 0
 611 82 567 60 516 53 c 0
 503 51 491 50 479 50 c 0
 419 50 364 71 314 114 c 0
 272 151 240 199 216 257 c 0
 180 346 166 460 174 600 c 1
 179 627 193 640 215 640 c 0
 229 640 239 633 248 618 c 1
 243 442 269 314 324 234 c 0
 373 163 430 128 497 128 c 0
 509 128 521 129 534 131 c 0
 591 141 626 173 639 228 c 0xf4
 644 249 644 269 638 288 c 0
 632 307 622 322 606 331 c 0
 588 342 580 355 583 369 c 0
 585 379 593 391 608 403 c 1
 641 424 661 451 668 482 c 0
 673 505 671 526 661 545 c 0
 651 564 635 577 614 584 c 0
 606 587 597 588 590 588 c 0
 565 588 541 577 521 557 c 0
 501 537 487 513 480 484 c 0
 475 463 476 444 480 425 c 1
 469 401 451 388 424 388 c 0
 414 388 405 391 399 398 c 1
 394 426 396 454 402 482 c 0
 413 531 438 573 475 609 c 0
 512 645 554 665 602 671 c 1
 655 670 695 651 722 615 c 0
 749 579 756 537 745 488 c 0
 736 450 716 413 685 378 c 1xf8
EndSplineSet
EndChar

StartChar: u0994
Encoding: 64 2452 60
Width: 751
GlyphClass: 2
Flags: HW
LayerCount: 2
Fore
SplineSet
875 736 m 0xfe80
 912 705 924 659 909 596 c 0
 896 541 867 488 824 438 c 0
 787 395 748 365 706 347 c 1
 722 315 724 277 714 234 c 0
 704 189 682 150 648 117 c 0
 611 82 567 60 516 53 c 0
 503 51 491 50 479 50 c 0
 419 50 364 71 314 114 c 0
 272 151 240 199 216 257 c 0
 180 346 166 460 174 600 c 1
 179 627 193 640 215 640 c 0
 229 640 239 633 248 618 c 1
 243 442 269 314 324 234 c 0
 373 163 430 128 497 128 c 0
 509 128 521 129 534 131 c 0
 591 141 626 173 639 228 c 0xfd80
 644 249 644 269 638 288 c 0
 632 307 622 322 606 331 c 0
 588 342 580 355 583 369 c 0
 585 379 593 391 608 403 c 1
 641 424 661 451 668 482 c 0
 673 505 671 526 661 545 c 0
 651 564 635 577 614 584 c 0
 606 587 597 588 590 588 c 0
 565 588 541 577 521 557 c 0
 501 537 487 513 480 484 c 0
 475 463 476 444 480 425 c 1
 469 401 451 388 424 388 c 0
 414 388 405 391 399 398 c 1
 394 426 396 454 402 482 c 0
 413 531 438 573 475 609 c 0
 512 645 554 665 602 671 c 1
 655 670 695 651 722 615 c 0
 749 579 756 537 745 488 c 0
 741 472 735 455 727 439 c 1
 745 449 762 465 780 485 c 0
 807 517 824 549 832 583 c 0
 846 643 823 679 766 692 c 0
 656 717 609 762 624 827 c 0
 629 849 640 869 659 890 c 0
 678 911 700 927 722 938 c 1
 737 940 748 937 755 929 c 0
 762 921 764 911 761 899 c 0
 759 891 754 883 748 876 c 0
 722 853 708 835 705 823 c 0
 701 807 721 793 763 783 c 0
 818 768 855 752 875 736 c 0xfe80
686 378 m 2
 687 379 l 2
 685 378 l 0
 686 378 l 2
EndSplineSet
EndChar

StartChar: u0995
Encoding: 65 2453 61
Width: 657
GlyphClass: 2
Flags: HW
AnchorPoint: "Anchor-1" 396 29 basechar 0
AnchorPoint: "Anchor-0" 359 667 basechar 0
LayerCount: 2
Fore
SplineSet
357 153 m 1
 430 468 l 1
 207 340 l 1
 357 153 l 1
798 590 m 1
 534 590 l 1
 531 574 l 1
 605 565 651 536 672 488 c 0
 684 460 685 425 675 383 c 0
 665 340 648 303 621 272 c 0
 593 239 561 223 528 224 c 1
 500 221 490 232 496 258 c 0
 501 278 513 292 532 299 c 1
 547 297 563 305 577 322 c 0
 591 339 601 359 606 382 c 0
 612 407 611 429 601 446 c 0
 584 477 553 493 512 495 c 1
 413 64 l 2
 409 45 396 35 376 35 c 0
 358 35 347 41 337 52 c 2
 117 320 l 1
 107 328 103 338 106 349 c 0
 109 362 119 373 136 382 c 2
 451 560 l 1
 458 590 l 1
 130 590 l 1
 149 673 l 1
 817 673 l 1
 798 590 l 1
EndSplineSet
EndChar

StartChar: u0996
Encoding: 66 2454 62
Width: 578
GlyphClass: 2
Flags: HW
AnchorPoint: "Anchor-1" 520 37 basechar 0
AnchorPoint: "Anchor-0" 498 681 basechar 0
LayerCount: 2
Fore
SplineSet
723 590 m 1
 654 590 l 1
 534 73 l 2
 532 64 526 57 514 50 c 0
 502 43 490 39 478 39 c 0
 469 39 461 42 456 47 c 2
 205 292 l 1
 201 303 201 313 203 323 c 0
 205 333 209 341 216 348 c 0
 223 355 232 359 239 359 c 0
 274 364 306 379 339 405 c 0
 372 431 392 460 400 494 c 0
 403 509 404 523 402 538 c 1
 362 485 315 458 262 458 c 0
 227 458 191 470 156 494 c 1
 148 502 146 513 149 526 c 0
 152 537 157 546 166 554 c 0
 175 562 185 567 194 567 c 0
 198 567 201 566 205 564 c 0
 230 547 253 538 276 538 c 0
 322 538 353 567 372 625 c 1
 377 652 391 665 412 665 c 0
 420 665 428 662 434 657 c 0
 478 620 490 563 469 486 c 0
 447 404 393 344 309 306 c 1
 476 149 l 1
 582 608 l 2
 592 651 616 673 655 673 c 2
 743 673 l 1
 723 590 l 1
EndSplineSet
EndChar

StartChar: u0997
Encoding: 67 2455 63
Width: 571
GlyphClass: 2
Flags: HW
AnchorPoint: "Anchor-1" 498 22 basechar 0
AnchorPoint: "Anchor-0" 476 674 basechar 0
LayerCount: 2
Fore
SplineSet
716 589 m 1xb8
 646 589 l 1xb4
 524 60 l 2
 519 40 504 30 479 30 c 0
 454 30 443 40 448 60 c 2
 521 380 l 2
 530 419 528 452 515 479 c 0
 488 534 446 561 388 561 c 0
 335 561 288 537 245 490 c 1
 296 491 333 473 356 437 c 0
 377 404 383 364 372 316 c 0
 356 245 313 192 245 156 c 0
 240 155 235 154 230 154 c 0
 220 154 211 158 204 165 c 0
 197 172 196 181 198 191 c 0
 201 202 208 212 219 221 c 1
 262 244 289 276 298 316 c 0
 304 342 301 365 289 384 c 0
 277 403 258 413 234 413 c 0
 216 413 198 407 178 396 c 0
 165 389 154 385 144 385 c 0
 125 385 119 396 124 417 c 0
 125 423 129 429 132 436 c 0
 159 493 191 537 229 569 c 0
 264 598 308 619 362 634 c 0
 382 638 399 639 417 639 c 0
 479 639 529 614 564 565 c 1xd4
 589 673 l 1
 735 673 l 1
 716 589 l 1xb8
EndSplineSet
EndChar

StartChar: u0998
Encoding: 68 2456 64
Width: 499
GlyphClass: 2
Flags: HW
AnchorPoint: "Anchor-1" 454 29 basechar 0
AnchorPoint: "Anchor-0" 454 681 basechar 0
LayerCount: 2
Fore
SplineSet
396 149 m 1
 498 590 l 1
 264 590 l 1
 241 577 228 561 223 541 c 0
 220 526 221 512 231 501 c 0
 241 490 253 484 270 484 c 0
 276 484 281 486 290 488 c 0
 299 490 305 491 310 491 c 0
 320 491 328 487 333 479 c 0
 338 471 339 462 337 452 c 0
 335 442 329 433 321 425 c 2
 212 318 l 1
 396 149 l 1
644 590 m 1
 574 590 l 1
 455 71 l 2
 453 63 447 55 436 49 c 0
 425 43 413 39 402 39 c 0
 392 39 383 42 377 47 c 2
 128 279 l 1
 117 285 113 294 116 307 c 0
 118 316 123 326 133 335 c 2
 210 411 l 1
 186 419 167 434 156 457 c 0
 145 480 142 506 149 536 c 0
 153 554 161 572 172 590 c 1
 128 590 l 1
 147 673 l 1
 663 673 l 1
 644 590 l 1
EndSplineSet
EndChar

StartChar: u0999
Encoding: 69 2457 65
Width: 593
GlyphClass: 2
Flags: HMW
AnchorPoint: "Anchor-1" 315 37 basechar 0 {} {11-11 -7}
AnchorPoint: "Anchor-0" 359 659 basechar 0
LayerCount: 2
Fore
SplineSet
542 553 m 1
 547 565 544 575 536 583 c 0
 529 589 519 592 507 591 c 0
 472 584 441 556 415 507 c 1
 433 503 447 501 458 501 c 0
 491 501 520 518 542 553 c 1
617 606 m 1
 618 592 618 578 615 563 c 0
 608 532 591 503 565 477 c 0
 539 451 511 435 482 428 c 0
 467 424 453 423 438 423 c 0
 418 423 399 426 381 433 c 1
 375 411 372 399 371 396 c 0
 369 381 371 367 376 354 c 1
 509 416 l 1
 526 429 546 433 568 426 c 1
 622 376 641 316 625 248 c 0
 612 192 580 143 529 101 c 0
 478 59 426 38 371 38 c 0
 312 38 262 62 219 110 c 0
 182 151 158 200 148 255 c 0
 139 308 137 391 144 506 c 1
 152 529 165 541 184 541 c 0
 198 541 208 533 214 518 c 1
 208 416 212 339 224 286 c 0
 234 240 252 201 280 169 c 0
 311 132 347 114 387 114 c 0
 415 114 442 123 472 143 c 0
 517 172 544 207 553 248 c 0
 562 286 554 320 528 350 c 1
 344 256 l 1
 302 297 288 342 299 391 c 0
 301 398 303 406 306 413 c 1
 308 426 313 441 320 457 c 1
 254 496 215 550 204 621 c 0
 204 625 205 629 206 632 c 0
 211 654 226 665 249 665 c 0
 257 665 265 662 271 657 c 1
 289 596 317 554 352 532 c 1
 371 565 397 595 429 622 c 0
 465 651 495 668 524 671 c 0
 568 676 598 654 617 606 c 1
EndSplineSet
EndChar

StartChar: u099a
Encoding: 70 2458 66
Width: 471
GlyphClass: 2
Flags: HW
AnchorPoint: "Anchor-1" 198 37 basechar 0
AnchorPoint: "Anchor-0" 132 667 basechar 0
LayerCount: 2
Fore
SplineSet
608 588 m 1
 305 588 l 1
 299 562 l 1
 309 528 330 501 363 480 c 1
 391 466 420 452 448 438 c 0
 476 422 489 401 488 374 c 0
 487 363 485 350 482 337 c 0
 468 276 433 215 378 152 c 0
 323 89 269 49 216 34 c 0
 211 33 207 32 201 32 c 0
 178 32 160 41 144 58 c 0
 126 79 119 105 127 139 c 2
 232 594 l 1
 227 590 l 1
 133 590 l 1
 153 673 l 1
 247 673 l 1
 250 671 l 1
 627 671 l 1
 608 588 l 1
414 355 m 1
 410 370 390 384 353 397 c 0
 310 412 282 425 270 438 c 1
 203 147 l 2
 197 123 202 111 218 111 c 0
 225 111 233 114 244 120 c 0
 274 137 307 166 342 207 c 0
 380 253 403 294 411 330 c 0
 413 339 414 347 414 355 c 1
EndSplineSet
EndChar

StartChar: u099b
Encoding: 71 2459 67
Width: 596
GlyphClass: 2
Flags: HMW
AnchorPoint: "Anchor-1" 461 59 basechar 0
AnchorPoint: "Anchor-0" 110 681 basechar 0
LayerCount: 2
Fore
SplineSet
641 34 m 1
 643 23 644 13 642 4 c 0
 636 -21 618 -32 588 -28 c 1
 510 43 384 82 214 90 c 1
 205 101 204 116 208 134 c 0
 212 150 220 160 232 165 c 1
 280 171 311 176 328 181 c 0
 361 189 392 205 421 226 c 1
 448 243 475 267 500 297 c 0
 527 330 545 360 551 387 c 0
 559 422 549 446 519 459 c 1
 509 402 472 351 410 306 c 0
 354 266 300 246 251 246 c 0
 200 246 181 270 192 318 c 2
 255 592 l 1
 243 591 l 1
 134 590 l 1
 154 673 l 1
 303 673 l 2
 306 673 306 673 339 673 c 2
 753 673 l 1
 734 589 l 1
 333 589 l 1
 336 574 352 561 382 553 c 0
 406 546 434 543 465 543 c 0
 482 543 495 544 506 546 c 1
 554 543 587 526 607 495 c 0
 624 466 629 430 619 387 c 0
 607 335 579 286 537 239 c 0
 495 192 454 160 415 145 c 1
 504 128 579 91 641 34 c 1
443 435 m 0
 444 456 428 468 394 474 c 0
 346 481 318 488 308 494 c 1
 269 323 l 2
 266 309 270 302 282 302 c 0
 302 302 334 319 376 353 c 0
 418 387 441 415 443 435 c 0
EndSplineSet
EndChar

StartChar: u099c
Encoding: 72 2460 68
Width: 775
GlyphClass: 2
Flags: HW
AnchorPoint: "Anchor-1" 732 15 basechar 0
AnchorPoint: "Anchor-0" 359 674 basechar 0
LayerCount: 2
Fore
SplineSet
918 590 m 1
 674 590 l 1
 820 476 l 1
 833 471 838 461 834 444 c 0
 832 437 829 431 824 424 c 0
 772 342 740 274 728 222 c 0
 715 165 717 101 734 31 c 1
 727 -1 710 -17 684 -17 c 0
 677 -17 670 -15 663 -12 c 1
 641 76 640 154 655 221 c 0
 668 277 698 345 746 424 c 1
 537 592 l 1
 505 575 475 552 449 523 c 0
 423 494 407 467 401 441 c 0
 395 416 402 396 418 382 c 1
 450 394 480 406 511 417 c 0
 549 431 580 438 603 437 c 1
 646 396 660 344 645 279 c 0
 628 206 583 150 511 112 c 0
 465 88 422 76 382 76 c 0
 288 76 218 136 170 254 c 1
 158 272 149 306 144 355 c 0
 138 407 139 459 145 509 c 1
 151 536 164 550 184 550 c 0
 198 550 209 543 218 528 c 1
 204 434 212 352 245 281 c 0
 284 196 337 153 404 153 c 0
 442 153 481 169 521 201 c 0
 549 223 567 250 574 281 c 0
 581 312 577 339 562 363 c 1
 553 360 522 349 471 329 c 0
 435 314 407 306 386 305 c 1
 334 331 317 376 332 440 c 0
 344 491 371 541 417 590 c 1
 126 590 l 1
 144 673 l 1
 937 673 l 1
 918 590 l 1
EndSplineSet
EndChar

StartChar: u099d
Encoding: 73 2461 69
Width: 643
GlyphClass: 2
Flags: HW
AnchorPoint: "Anchor-1" 381 22 basechar 0
AnchorPoint: "Anchor-0" 564 674 basechar 0
LayerCount: 2
Fore
SplineSet
348 154 m 1
 420 466 l 1
 201 340 l 1
 348 154 l 1
787 590 m 1
 715 590 l 1
 616 168 l 2
 612 149 596 139 567 139 c 0
 553 139 544 143 539 150 c 2
 447 251 l 1
 404 66 l 2
 401 55 396 47 385 40 c 0
 374 33 363 30 351 30 c 0
 339 30 331 34 325 41 c 2
 108 319 l 2
 104 325 104 333 107 346 c 0
 111 363 119 375 131 382 c 2
 442 560 l 1
 449 590 l 1
 131 590 l 1
 150 673 l 1
 478 673 l 2
 522 673 539 649 528 601 c 2
 471 355 l 1
 562 263 l 1
 640 601 l 2
 651 649 679 673 723 673 c 2
 806 673 l 1
 787 590 l 1
EndSplineSet
EndChar

StartChar: u099e
Encoding: 74 2462 70
Width: 870
GlyphClass: 2
Flags: HW
AnchorPoint: "Anchor-1" 571 44 basechar 0
AnchorPoint: "Anchor-0" 520 645 basechar 0
LayerCount: 2
Fore
SplineSet
582 67 m 2x7d
 580 59 572 52 559 46 c 0
 546 40 532 36 520 36 c 0
 510 36 505 39 502 44 c 0
 479 96 439 122 384 122 c 0x7d
 366 122 339 119 301 112 c 0
 263 105 235 101 216 101 c 0
 201 101 188 103 175 106 c 0
 133 123 107 150 96 185 c 0
 86 216 88 258 100 309 c 0
 105 329 110 352 119 377 c 1
 134 388 147 393 158 393 c 0
 170 393 180 386 189 372 c 1
 177 330 171 307 170 303 c 0
 159 254 165 217 191 194 c 0
 204 182 222 176 245 176 c 0xbd
 259 176 284 179 319 186 c 0
 354 193 381 196 401 196 c 0
 450 196 491 180 525 149 c 1x7e
 612 528 l 2
 621 567 613 586 589 586 c 0
 575 586 554 579 529 566 c 0
 466 535 429 490 415 431 c 0
 409 404 407 373 410 337 c 1
 402 313 386 301 361 301 c 0
 349 301 339 305 334 314 c 1
 327 349 330 386 338 422 c 0
 351 477 377 527 418 571 c 0
 459 615 505 643 561 658 c 0
 576 664 591 667 605 667 c 0
 632 667 655 655 675 632 c 0
 695 609 700 575 690 532 c 2
 665 435 l 1
 691 470 717 500 741 524 c 0
 784 568 827 591 871 594 c 1
 904 591 929 578 946 554 c 0
 963 530 968 502 961 471 c 0x7d80
 953 438 932 409 901 382 c 1
 927 353 935 319 926 278 c 0
 914 224 879 190 822 174 c 0
 813 173 805 172 798 172 c 0
 721 172 674 232 657 352 c 1x7e40
 582 67 l 2x7d
821 251 m 1
 836 260 845 271 848 284 c 0x3c40
 851 298 847 311 836 323 c 0
 825 335 811 340 795 340 c 1
 779 351 772 364 775 379 c 0
 778 394 789 406 807 417 c 1
 825 420 842 427 856 440 c 0
 870 453 879 466 882 479 c 0x3c80
 888 503 875 515 845 514 c 0
 825 513 803 498 776 467 c 0
 768 458 749 431 718 387 c 1
 722 350 734 319 750 293 c 0
 769 260 793 246 821 251 c 1
EndSplineSet
EndChar

StartChar: u099f
Encoding: 75 2463 71
Width: 514
GlyphClass: 2
Flags: HW
AnchorPoint: "Anchor-1" 264 44 basechar 0
AnchorPoint: "Anchor-0" 212 688 basechar 0
LayerCount: 2
Fore
SplineSet
653 588 m 1
 341 588 l 1
 248 184 l 2
 245 171 246 159 252 150 c 0
 258 141 268 136 280 136 c 0
 300 136 322 146 348 168 c 1
 407 227 441 277 451 319 c 0
 452 325 453 331 453 337 c 0
 455 355 453 369 444 379 c 0
 435 389 426 398 417 407 c 1
 415 412 414 416 416 423 c 0
 419 434 425 445 435 454 c 0
 445 463 458 468 470 468 c 1
 518 426 535 379 523 327 c 0
 508 264 471 200 413 136 c 0
 351 68 293 34 242 34 c 0
 217 34 198 48 181 76 c 0
 164 104 160 134 168 167 c 2
 265 588 l 1
 256 590 l 1
 133 590 l 1
 152 673 l 1
 275 673 l 1
 349 671 l 1
 550 671 l 1
 567 717 531 740 440 740 c 0
 427 740 411 739 393 738 c 0
 375 737 366 736 364 736 c 0
 280 745 227 758 205 773 c 0
 173 797 164 846 177 920 c 1
 182 938 197 947 218 947 c 0
 234 947 243 941 248 930 c 1
 238 884 246 852 271 835 c 0
 290 823 323 817 372 816 c 2
 443 816 l 2
 505 815 550 807 578 792 c 0
 619 769 635 729 624 671 c 1
 672 671 l 1
 653 588 l 1
EndSplineSet
EndChar

StartChar: u09a0
Encoding: 76 2464 72
Width: 479
GlyphClass: 2
Flags: HW
AnchorPoint: "Anchor-1" 212 37 basechar 0
AnchorPoint: "Anchor-0" 278 688 basechar 0
LayerCount: 2
Fore
SplineSet
316 157 m 0xf6
 368 200 400 252 414 311 c 0
 429 374 421 442 392 516 c 1
 363 393 285 303 157 246 c 1
 149 207 151 176 164 152 c 0
 177 128 198 116 225 116 c 0
 254 116 284 130 316 157 c 0xf6
616 590 m 1
 443 590 l 1
 490 490 501 393 480 300 c 0
 465 234 432 175 382 123 c 0
 327 67 270 39 210 39 c 0
 188 39 166 44 145 52 c 0
 122 62 106 88 93 129 c 0
 80 170 78 209 87 246 c 0xf6
 93 273 104 294 121 307 c 1
 180 331 227 360 259 393 c 0
 291 426 313 469 325 522 c 0
 330 543 333 566 335 590 c 1
 131 590 l 1
 150 673 l 1
 320 673 l 1
 312 705 303 737 294 768 c 0
 283 807 277 843 274 874 c 0
 272 899 274 921 279 941 c 0
 293 1001 335 1038 409 1052 c 1
 428 1045 435 1030 429 1005 c 0
 426 990 419 980 408 976 c 1
 375 976 356 963 350 937 c 0xee
 346 919 349 887 358 841 c 0
 367 800 381 744 403 673 c 1
 635 673 l 1
 616 590 l 1
EndSplineSet
EndChar

StartChar: u09a1
Encoding: 77 2465 73
Width: 681
GlyphClass: 2
Flags: HW
AnchorPoint: "Anchor-1" 425 29 basechar 0
AnchorPoint: "Anchor-0" 293 681 basechar 0
LayerCount: 2
Fore
SplineSet
819 590 m 1
 475 590 l 1
 420 354 l 1
 422 345 426 340 433 340 c 0
 456 340 507 384 582 473 c 0
 589 481 599 486 611 486 c 0
 627 486 640 480 649 467 c 0
 686 418 698 363 683 300 c 0
 675 267 661 231 640 192 c 1
 571 89 493 37 410 35 c 0
 359 34 311 51 269 87 c 0
 234 116 208 152 192 194 c 0
 163 270 146 370 141 495 c 0
 142 505 148 513 157 521 c 0
 166 529 177 533 188 533 c 0
 200 533 209 528 215 519 c 1
 223 412 234 335 248 289 c 1
 257 240 278 200 310 166 c 0
 342 132 378 115 419 115 c 0
 465 115 509 137 552 181 c 1
 580 214 599 251 608 292 c 0
 617 331 615 364 602 392 c 1
 557 350 524 321 502 306 c 0
 462 278 426 264 393 264 c 1
 347 272 333 311 349 381 c 2
 398 590 l 1
 131 590 l 1
 150 673 l 1
 838 673 l 1
 819 590 l 1
EndSplineSet
EndChar

StartChar: u09a2
Encoding: 78 2466 74
Width: 485
GlyphClass: 2
Flags: HW
AnchorPoint: "Anchor-1" 242 37 basechar 0
AnchorPoint: "Anchor-0" 154 667 basechar 0
LayerCount: 2
Fore
SplineSet
622 587 m 1
 315 587 l 1
 221 181 l 2
 218 168 219 155 225 146 c 0
 231 137 242 132 255 132 c 0
 275 132 296 144 320 166 c 0
 383 224 418 280 425 333 c 0
 427 350 424 364 415 374 c 0
 406 384 397 393 388 401 c 1
 386 406 386 411 388 418 c 0
 391 429 397 439 407 448 c 0
 417 457 428 461 440 461 c 1
 463 439 479 420 487 402 c 0
 497 379 500 353 493 322 c 0
 479 260 442 198 384 134 c 0
 323 67 267 33 217 33 c 0
 193 33 172 46 156 74 c 0
 140 102 135 132 143 165 c 2
 244 599 l 1
 240 590 l 1
 131 590 l 1
 150 673 l 1
 260 673 l 2
 260 671 281 670 324 670 c 2
 641 670 l 1
 622 587 l 1
EndSplineSet
EndChar

StartChar: u09a3
Encoding: 79 2467 75
Width: 480
GlyphClass: 2
Flags: HW
AnchorPoint: "Anchor-1" 417 37 basechar 0
AnchorPoint: "Anchor-0" 447 667 basechar 0
LayerCount: 2
Fore
SplineSet
622 590 m 1xb8
 555 590 l 1xb8
 436 77 l 2
 431 55 417 44 394 44 c 0
 384 44 375 47 368 53 c 0
 361 59 359 67 361 76 c 2
 438 411 l 2
 441 426 442 451 444 486 c 0
 445 509 436 529 416 546 c 0
 396 563 372 572 345 572 c 0
 316 572 291 562 267 543 c 0
 237 519 220 490 212 457 c 0
 206 429 208 404 219 383 c 0
 230 362 247 350 270 349 c 1
 280 346 285 337 281 321 c 0
 278 310 273 299 264 289 c 0
 255 279 246 274 238 274 c 0
 173 288 140 328 136 393 c 0
 134 414 137 436 142 458 c 0
 152 503 174 543 207 578 c 0
 240 613 278 634 324 642 c 0
 344 646 363 648 379 648 c 0xd8
 419 648 454 632 483 601 c 1
 501 649 527 673 563 673 c 2
 641 673 l 1
 622 590 l 1xb8
EndSplineSet
EndChar

StartChar: u09a4
Encoding: 80 2468 76
Width: 668
GlyphClass: 2
Flags: HW
AnchorPoint: "Anchor-1" 432 44 basechar 0
AnchorPoint: "Anchor-0" 330 674 basechar 0
LayerCount: 2
Fore
SplineSet
659 252 m 0
 632 188 598 137 556 99 c 0
 511 58 463 38 411 38 c 0
 398 38 385 39 372 42 c 0
 323 52 284 71 255 99 c 0
 239 115 221 143 200 183 c 0
 149 280 131 390 146 515 c 0
 146 525 150 534 160 541 c 0
 170 548 181 552 192 552 c 0
 208 552 216 545 219 532 c 1
 219 451 220 398 223 371 c 0
 230 318 246 268 270 223 c 0
 289 188 309 163 328 150 c 0
 341 141 366 130 404 117 c 0
 410 116 415 116 422 116 c 0
 467 116 506 136 539 175 c 0
 568 210 591 255 606 312 c 0
 620 365 618 407 600 437 c 0
 583 465 555 477 516 474 c 1
 480 467 457 446 449 411 c 0
 446 396 446 382 452 370 c 1
 449 359 444 349 434 340 c 0
 424 331 413 327 403 327 c 0
 395 327 388 330 382 335 c 1
 372 362 371 388 377 415 c 0
 386 453 407 485 443 512 c 0
 476 538 511 551 547 551 c 0
 606 552 648 528 671 479 c 0
 692 435 694 380 679 315 c 0
 674 294 668 273 659 252 c 0
812 590 m 1
 131 590 l 1
 150 673 l 1
 831 673 l 1
 812 590 l 1
EndSplineSet
EndChar

StartChar: u09a5
Encoding: 81 2469 77
Width: 536
GlyphClass: 2
Flags: HW
AnchorPoint: "Anchor-1" 476 37 basechar 0
AnchorPoint: "Anchor-0" 461 674 basechar 0
LayerCount: 2
Fore
SplineSet
671 590 m 1x78
 603 590 l 1x78
 482 69 l 2
 480 61 474 55 462 49 c 0
 450 43 439 40 427 40 c 0
 417 40 410 42 405 47 c 2
 181 269 l 1
 179 280 180 292 182 302 c 0
 186 318 194 327 205 332 c 0
 238 345 270 368 302 402 c 0
 334 436 353 467 360 498 c 0
 368 534 356 559 324 573 c 1
 314 574 304 575 296 575 c 0
 250 575 217 545 200 483 c 0
 193 465 179 456 157 456 c 0
 139 456 131 463 129 476 c 1
 148 585 203 644 292 653 c 0
 300 654 307 654 314 654 c 0xb8
 360 654 393 640 414 611 c 0
 435 582 440 545 430 500 c 0
 421 463 404 425 377 387 c 0
 359 360 325 329 276 294 c 1
 424 145 l 1
 529 601 l 2
 535 625 546 644 564 657 c 0
 578 667 595 673 612 673 c 2
 690 673 l 1
 671 590 l 1x78
EndSplineSet
EndChar

StartChar: u09a6
Encoding: 82 2470 78
Width: 408
GlyphClass: 2
Flags: HW
AnchorPoint: "Anchor-1" 359 44 basechar 0
AnchorPoint: "Anchor-0" 154 674 basechar 0
LayerCount: 2
Fore
SplineSet
552 590 m 1
 247 590 l 1
 203 401 l 1
 236 428 272 453 310 476 c 0
 359 505 394 519 418 519 c 0
 422 519 425 519 428 518 c 0
 455 516 463 501 454 472 c 1
 406 387 376 317 363 262 c 0
 349 202 350 142 365 82 c 1
 364 65 356 53 340 46 c 0
 327 39 313 37 296 40 c 1
 276 110 274 182 291 255 c 0
 302 304 323 359 353 420 c 1
 291 393 228 349 166 288 c 1
 156 282 145 279 135 279 c 0
 112 279 102 290 107 311 c 2
 172 590 l 1
 131 590 l 1
 150 673 l 1
 571 673 l 1
 552 590 l 1
EndSplineSet
EndChar

StartChar: u09a7
Encoding: 83 2471 79
Width: 443
GlyphClass: 2
Flags: HW
AnchorPoint: "Anchor-1" 381 37 basechar 0
AnchorPoint: "Anchor-0" 366 674 basechar 0
LayerCount: 2
Fore
SplineSet
342 152 m 1
 416 469 l 1
 197 341 l 1
 342 152 l 1
586 590 m 1
 519 590 l 1
 397 61 l 2
 395 54 389 48 378 43 c 0
 367 38 355 36 343 36 c 0
 334 36 326 38 321 42 c 2
 109 321 l 2
 106 328 105 336 108 347 c 0
 111 362 120 376 132 387 c 1
 205 428 l 1
 172 450 154 483 149 525 c 1
 150 534 151 543 153 551 c 0
 162 592 183 622 219 643 c 0
 250 662 286 671 327 671 c 1
 341 666 346 655 342 638 c 0
 337 615 327 600 311 593 c 1
 260 593 232 580 226 554 c 0
 225 548 225 543 225 536 c 0
 236 502 258 486 293 486 c 0
 299 486 303 486 308 487 c 1
 437 563 l 1
 446 601 l 2
 457 649 484 673 527 673 c 2
 605 673 l 1
 586 590 l 1
EndSplineSet
EndChar

StartChar: u09a8
Encoding: 84 2472 80
Width: 482
GlyphClass: 2
Flags: HW
AnchorPoint: "Anchor-1" 410 37 basechar 0
AnchorPoint: "Anchor-0" 403 688 basechar 0
LayerCount: 2
Fore
SplineSet
625 589 m 1
 557 589 l 1
 434 56 l 2
 430 40 417 32 392 32 c 0
 367 32 355 40 359 56 c 2
 406 260 l 1
 407 295 401 322 390 341 c 0
 379 360 359 372 330 378 c 0
 321 380 312 381 302 381 c 0
 271 381 245 372 221 353 c 0
 196 333 178 307 171 275 c 0
 169 267 169 259 168 251 c 0
 166 232 168 217 174 206 c 0
 180 195 190 184 207 173 c 1
 211 166 213 159 211 150 c 0
 208 138 201 127 191 118 c 0
 181 109 171 106 161 108 c 1
 124 126 103 154 96 192 c 0
 91 220 91 248 98 277 c 0
 109 323 131 362 166 396 c 0
 201 430 241 449 288 456 c 0
 301 458 314 459 326 459 c 0
 374 459 412 443 441 411 c 1
 482 589 l 1
 131 589 l 1
 150 673 l 1
 645 673 l 1
 625 589 l 1
EndSplineSet
EndChar

StartChar: u09aa
Encoding: 85 2474 81
Width: 618
GlyphClass: 2
Flags: HW
AnchorPoint: "Anchor-1" 571 44 basechar 0
AnchorPoint: "Anchor-0" 557 674 basechar 0
LayerCount: 2
Fore
SplineSet
498 535 m 1
 471 569 439 586 404 586 c 0
 369 586 328 569 286 534 c 1
 354 411 l 1
 498 535 l 1
760 589 m 1
 693 589 l 1
 571 61 l 2
 567 44 553 35 528 35 c 0
 502 35 491 43 495 60 c 2
 556 327 l 2
 565 364 558 414 534 477 c 1
 287 267 l 1
 283 266 279 266 275 266 c 0
 263 266 255 270 248 278 c 0
 241 286 241 296 244 308 c 0
 245 313 246 317 248 322 c 1
 288 357 l 1
 228 468 l 1
 198 431 l 1
 191 427 186 426 179 426 c 0
 169 426 160 430 153 439 c 0
 146 448 143 458 145 469 c 1
 213 573 291 638 385 661 c 0
 400 665 414 667 428 667 c 0
 501 667 562 622 604 531 c 1
 619 600 l 2
 624 620 634 637 650 651 c 0
 666 665 682 673 700 673 c 2
 780 673 l 1
 760 589 l 1
EndSplineSet
EndChar

StartChar: u09ab
Encoding: 86 2475 82
Width: 642
GlyphClass: 2
Flags: HW
AnchorPoint: "Anchor-1" 388 29 basechar 0
AnchorPoint: "Anchor-0" 308 674 basechar 0
LayerCount: 2
Fore
SplineSet
782 590 m 1
 244 590 l 1
 317 465 l 1
 318 454 318 444 316 436 c 0
 313 424 307 415 296 408 c 1
 192 323 l 1
 347 152 l 1
 430 509 l 2
 440 552 457 573 482 573 c 0
 588 573 650 541 667 476 c 0
 674 448 674 419 667 388 c 0
 658 347 638 310 608 278 c 0
 578 246 549 229 521 226 c 1
 501 229 494 243 500 270 c 0
 504 287 513 299 528 305 c 1
 540 304 552 311 565 328 c 0
 578 345 588 364 593 387 c 0
 598 407 598 425 594 442 c 0
 585 477 554 495 503 498 c 1
 404 73 l 1
 401 50 387 38 360 38 c 0
 346 38 335 43 327 51 c 2
 107 292 l 1
 104 302 103 312 105 321 c 0
 108 333 115 344 127 355 c 2
 233 440 l 1
 142 590 l 1
 114 590 l 1
 134 673 l 1
 801 673 l 1
 782 590 l 1
EndSplineSet
EndChar

StartChar: u09ac
Encoding: 87 2476 83
Width: 446
GlyphClass: 2
Flags: HW
AnchorPoint: "Anchor-1" 381 44 basechar 0
AnchorPoint: "Anchor-0" 352 674 basechar 0
LayerCount: 2
Fore
SplineSet
347 161 m 1
 419 475 l 1
 200 346 l 1
 347 161 l 1
589 590 m 1
 521 590 l 1
 401 71 l 2
 397 63 390 55 380 49 c 0
 370 43 359 39 350 39 c 0
 339 39 331 43 324 51 c 2
 111 324 l 2
 106 330 105 339 108 351 c 0
 112 367 119 378 129 384 c 2
 440 564 l 1
 446 590 l 1
 131 590 l 1
 150 673 l 1
 608 673 l 1
 589 590 l 1
EndSplineSet
EndChar

StartChar: u09ad
Encoding: 88 2477 84
Width: 741
GlyphClass: 2
Flags: HW
AnchorPoint: "Anchor-1" 483 29 basechar 0
AnchorPoint: "Anchor-0" 352 681 basechar 0
LayerCount: 2
Fore
SplineSet
688 175 m 0
 610 74 525 24 432 24 c 0
 327 24 249 89 196 219 c 0
 174 275 159 328 153 378 c 0
 148 425 149 484 155 556 c 1
 164 576 178 586 197 586 c 0
 207 586 216 583 227 577 c 1
 219 492 224 411 244 332 c 0
 259 274 280 226 309 187 c 0
 347 136 394 111 449 111 c 0
 471 111 495 115 519 124 c 0
 552 136 584 158 613 188 c 0
 642 218 660 250 668 285 c 0
 675 317 671 347 658 374 c 1
 605 323 559 292 517 284 c 0
 504 281 492 280 482 280 c 0
 443 280 415 294 398 323 c 0
 381 352 378 388 387 429 c 0
 391 448 398 466 407 484 c 1
 419 494 430 499 440 499 c 0
 456 499 467 489 477 470 c 1
 471 454 466 440 463 428 c 0
 452 380 465 357 501 357 c 0
 506 357 511 357 516 358 c 0
 542 365 565 378 587 399 c 0
 597 408 613 426 636 455 c 1
 645 468 657 475 677 475 c 0
 687 475 695 472 700 465 c 0
 744 408 757 348 743 286 c 0
 734 249 716 212 688 175 c 0
879 590 m 1
 131 590 l 1
 150 673 l 1
 899 673 l 1
 879 590 l 1
EndSplineSet
EndChar

StartChar: u09ae
Encoding: 89 2478 85
Width: 524
GlyphClass: 2
Flags: HW
AnchorPoint: "Anchor-1" 461 44 basechar 0
AnchorPoint: "Anchor-0" 432 667 basechar 0
LayerCount: 2
Fore
SplineSet
468 350 m 1
 523 590 l 1
 282 590 l 1
 249 548 l 1
 279 541 301 527 317 506 c 0
 333 485 339 458 334 426 c 1
 387 427 432 401 468 350 c 1
667 590 m 1
 599 590 l 1
 478 64 l 2
 474 48 460 40 437 40 c 0
 410 40 398 48 402 65 c 2
 412 108 l 2
 433 200 429 265 398 302 c 0
 374 332 345 346 309 346 c 0
 265 346 230 324 200 280 c 1
 194 268 190 256 187 244 c 0
 180 215 183 191 194 171 c 0
 206 150 225 139 254 139 c 1
 264 133 267 122 263 105 c 0
 260 94 257 84 249 75 c 0
 241 66 234 62 227 63 c 0
 152 68 113 113 110 196 c 1
 111 214 114 230 117 245 c 0
 133 314 181 370 259 411 c 1
 264 436 255 454 235 464 c 0
 218 472 198 475 172 473 c 1
 149 478 139 492 145 516 c 0
 146 521 149 526 151 531 c 2
 197 590 l 1
 131 590 l 1
 150 673 l 1
 687 673 l 1
 667 590 l 1
EndSplineSet
EndChar

StartChar: u09af
Encoding: 90 2479 86
Width: 455
GlyphClass: 2
Flags: HW
AnchorPoint: "Anchor-1" 381 37 basechar 0
AnchorPoint: "Anchor-0" 359 667 basechar 0
LayerCount: 2
Fore
SplineSet
351 143 m 1
 454 590 l 1
 254 590 l 1
 324 454 l 2
 326 447 326 438 324 430 c 0
 321 417 315 408 307 401 c 2
 178 304 l 1
 351 143 l 1
598 590 m 1
 530 590 l 1
 409 69 l 2
 404 46 388 34 359 34 c 0
 347 34 338 37 332 43 c 2
 94 271 l 2
 86 278 84 288 87 299 c 0
 89 309 94 319 103 329 c 1
 243 438 l 1
 160 590 l 1
 131 590 l 1
 150 673 l 1
 617 673 l 1
 598 590 l 1
EndSplineSet
EndChar

StartChar: u09b0
Encoding: 91 2480 87
Width: 446
GlyphClass: 2
Flags: HW
AnchorPoint: "Anchor-1" 381 37 basechar 0
AnchorPoint: "Anchor-0" 352 681 basechar 0
LayerCount: 2
Fore
SplineSet
347 161 m 1
 419 475 l 1
 200 346 l 1
 347 161 l 1
147 148 m 0
 144 133 135 121 123 111 c 0
 111 101 99 96 86 96 c 0
 72 96 62 101 54 111 c 0
 46 121 44 133 48 148 c 0
 51 163 58 177 70 188 c 0
 82 199 96 205 111 205 c 0
 124 205 133 199 141 188 c 0
 149 177 151 164 147 148 c 0
589 590 m 1
 521 590 l 1
 401 71 l 2
 397 63 390 55 380 49 c 0
 370 43 359 39 350 39 c 0
 339 39 331 43 324 51 c 2
 111 324 l 2
 106 330 105 339 108 351 c 0
 112 367 119 378 129 384 c 2
 440 564 l 1
 446 590 l 1
 131 590 l 1
 150 673 l 1
 608 673 l 1
 589 590 l 1
EndSplineSet
EndChar

StartChar: u09b2
Encoding: 92 2482 88
Width: 640
GlyphClass: 2
Flags: HW
AnchorPoint: "Anchor-1" 586 29 basechar 0
AnchorPoint: "Anchor-0" 564 674 basechar 0
LayerCount: 2
Fore
SplineSet
783 590 m 1xdc
 714 590 l 1
 594 72 l 2
 588 44 572 30 546 30 c 0
 521 30 512 43 518 70 c 2
 582 348 l 1
 564 412 539 445 506 445 c 0xdc
 481 445 456 424 430 383 c 1
 422 376 411 372 395 372 c 0
 379 372 369 377 363 385 c 1
 360 431 337 454 294 454 c 0
 256 454 224 435 197 396 c 0
 189 383 184 370 181 357 c 0
 173 324 179 298 199 279 c 0
 219 260 244 252 276 256 c 1
 290 250 296 239 292 223 c 0
 288 204 278 190 261 182 c 1
 254 181 247 181 240 181 c 0
 191 181 153 198 128 233 c 0
 103 268 96 309 107 356 c 0
 115 389 130 419 155 449 c 0
 201 506 254 534 314 534 c 0xbc
 360 534 395 514 418 475 c 1
 457 510 491 527 523 527 c 0
 555 527 584 510 611 475 c 1
 638 590 l 1
 131 590 l 1
 150 673 l 1
 802 673 l 1
 783 590 l 1xdc
EndSplineSet
EndChar

StartChar: u09b6
Encoding: 93 2486 89
Width: 586
GlyphClass: 2
Flags: HW
AnchorPoint: "Anchor-1" 542 37 basechar 0
AnchorPoint: "Anchor-0" 535 667 basechar 0
LayerCount: 2
Fore
SplineSet
730 590 m 1
 660 590 l 1
 539 67 l 2
 535 50 521 41 498 41 c 0
 470 41 458 50 462 67 c 2
 564 507 l 2
 569 528 561 547 541 564 c 0
 519 582 492 591 459 591 c 0
 438 591 416 584 395 571 c 0
 371 556 356 535 351 508 c 0
 344 472 350 446 372 431 c 0
 387 420 418 412 460 406 c 1
 466 402 465 393 462 378 c 0
 457 356 448 339 436 330 c 1
 389 334 356 342 336 353 c 0
 314 365 297 387 286 419 c 1
 258 381 228 356 196 343 c 0
 175 335 140 330 93 327 c 1
 85 336 81 349 84 364 c 0
 87 379 95 392 106 403 c 1
 139 405 168 414 196 429 c 0
 224 444 243 465 255 491 c 1
 263 512 262 531 254 548 c 0
 244 568 229 581 209 586 c 0
 198 589 174 590 140 590 c 0
 128 590 125 604 132 633 c 0
 138 660 147 673 159 673 c 0
 208 673 240 671 255 666 c 0
 285 655 309 630 324 590 c 1
 350 618 373 637 394 649 c 0
 415 661 442 669 475 673 c 0
 497 676 520 672 544 662 c 0
 568 652 586 640 597 625 c 1
 617 657 641 673 668 673 c 2
 749 673 l 1
 730 590 l 1
EndSplineSet
EndChar

StartChar: u09b7
Encoding: 94 2487 90
Width: 455
GlyphClass: 2
Flags: HW
AnchorPoint: "Anchor-1" 388 22 basechar 0
AnchorPoint: "Anchor-0" 352 681 basechar 0
LayerCount: 2
Fore
SplineSet
351 143 m 1
 393 322 l 1
 281 382 l 1
 178 304 l 1
 351 143 l 1
412 406 m 1
 454 590 l 1
 254 590 l 1
 312 479 l 1
 308 461 341 437 412 406 c 1
598 590 m 1
 530 590 l 1
 409 69 l 2
 404 46 388 34 359 34 c 0
 347 34 338 37 332 43 c 2
 94 271 l 2
 86 278 84 288 87 299 c 0
 89 309 94 319 103 329 c 1
 243 438 l 1
 160 590 l 1
 131 590 l 1
 150 673 l 1
 617 673 l 1
 598 590 l 1
EndSplineSet
EndChar

StartChar: u09b8
Encoding: 95 2488 91
Width: 609
GlyphClass: 2
Flags: HW
AnchorPoint: "Anchor-1" 549 29 basechar 0
AnchorPoint: "Anchor-0" 527 681 basechar 0
LayerCount: 2
Fore
SplineSet
561 390 m 1
 607 589 l 1
 347 589 l 1
 311 543 l 1
 359 530 396 496 421 441 c 1
 440 451 456 456 472 456 c 0
 503 456 532 434 561 390 c 1
752 589 m 1
 684 589 l 1
 561 56 l 2
 557 38 542 29 519 29 c 0
 491 29 480 38 484 56 c 2
 499 122 l 2
 515 193 518 255 508 310 c 0
 498 360 482 385 461 385 c 0
 451 385 440 377 430 361 c 0
 394 290 354 232 310 186 c 0
 262 137 220 113 181 113 c 0
 135 113 101 148 80 217 c 0
 80 223 80 229 81 234 c 0
 86 257 101 269 126 269 c 0
 135 269 144 266 151 261 c 1
 164 219 181 198 203 198 c 0
 237 198 287 254 355 367 c 1
 345 405 333 432 317 447 c 0
 299 463 271 472 232 473 c 1
 220 471 212 474 207 481 c 0
 202 488 201 498 204 509 c 0
 206 517 209 525 215 533 c 2
 257 589 l 1
 131 589 l 1
 150 673 l 1
 771 673 l 1
 752 589 l 1
EndSplineSet
EndChar

StartChar: u09b9
Encoding: 96 2489 92
Width: 413
GlyphClass: 2
Flags: HW
AnchorPoint: "Anchor-1" 322 51 basechar 0
AnchorPoint: "Anchor-0" 220 674 basechar 0
LayerCount: 2
Fore
SplineSet
407 589 m 1x70
 478 565 501 506 480 413 c 0
 477 402 475 390 471 378 c 0
 428 285 344 228 221 208 c 1
 467 10 l 1
 467 3 467 -3 466 -9 c 0
 460 -35 443 -47 416 -44 c 1
 79 221 l 1
 75 231 73 242 76 254 c 0
 82 279 96 292 116 292 c 0
 121 292 125 291 129 289 c 0
 152 285 176 283 197 283 c 0
 291 283 358 318 401 388 c 0
 405 397 408 406 410 415 c 0
 416 440 415 462 406 481 c 0
 397 500 383 512 363 517 c 0
 357 518 352 518 346 518 c 0xb0
 279 518 235 482 215 410 c 1
 205 397 193 390 176 390 c 0
 158 390 149 399 148 418 c 1
 155 447 167 475 188 504 c 0
 209 533 231 554 258 569 c 1
 239 589 l 1
 131 589 l 1
 150 673 l 1
 577 673 l 1
 557 589 l 1
 407 589 l 1x70
EndSplineSet
EndChar

StartChar: u09bc
Encoding: 97 2492 93
Width: 6
GlyphClass: 2
Flags: HW
LayerCount: 2
Fore
SplineSet
-102 -71 m 0
 -105 -83 -112 -94 -122 -103 c 0
 -132 -112 -144 -116 -154 -116 c 0
 -164 -116 -174 -112 -180 -103 c 0
 -186 -94 -189 -83 -186 -71 c 0
 -183 -59 -176 -49 -166 -41 c 0
 -156 -33 -145 -28 -134 -28 c 0
 -123 -28 -114 -33 -107 -41 c 0
 -100 -49 -99 -59 -102 -71 c 0
EndSplineSet
EndChar

StartChar: avagraha
Encoding: 98 2493 94
Width: 413
GlyphClass: 2
Flags: HW
LayerCount: 2
Fore
SplineSet
408 589 m 1
 480 567 504 508 482 413 c 0
 479 402 476 390 472 378 c 0
 429 285 346 228 223 208 c 1
 469 10 l 1
 469 3 469 -3 468 -9 c 0
 462 -35 445 -47 418 -44 c 1
 81 221 l 1
 77 231 75 242 78 254 c 0
 84 279 98 292 118 292 c 0
 123 292 127 291 131 289 c 0
 154 285 177 283 198 283 c 0
 292 283 360 318 403 388 c 0
 407 397 410 406 412 415 c 0
 418 440 417 462 408 481 c 0
 399 500 385 512 365 517 c 0
 359 518 354 518 348 518 c 0
 281 518 237 482 217 410 c 1
 207 397 194 390 178 390 c 0
 160 390 151 399 150 418 c 1
 157 447 169 475 190 504 c 0
 211 533 233 554 260 569 c 1
 254 613 211 619 132 589 c 1
 152 673 l 1
 277 681 362 653 408 589 c 1
EndSplineSet
EndChar

StartChar: u09be
Encoding: 99 2494 95
Width: 215
GlyphClass: 2
Flags: HW
LayerCount: 2
Fore
SplineSet
358 590 m 1
 294 590 l 1
 173 67 l 2
 170 54 155 47 130 47 c 0
 107 47 98 54 101 69 c 2
 221 590 l 1
 131 590 l 1
 150 673 l 1
 377 673 l 1
 358 590 l 1
EndSplineSet
EndChar

StartChar: u09bf
Encoding: 100 2495 96
Width: 223
GlyphClass: 2
Flags: HW
LayerCount: 2
Fore
SplineSet
774 783 m 1xf0
 774 777 774 773 773 768 c 0
 767 744 751 732 726 732 c 0
 719 732 713 733 709 735 c 1
 656 829 586 876 499 876 c 0
 473 876 443 872 411 865 c 1
 345 840 306 804 295 758 c 0xf0
 289 730 292 702 307 673 c 1
 391 673 l 1
 372 590 l 1
 303 590 l 1
 183 73 l 2
 179 56 165 48 137 48 c 0
 114 48 103 56 107 74 c 2
 227 590 l 1xe8
 131 590 l 1
 150 673 l 1
 221 673 l 1
 210 698 208 725 215 756 c 0
 229 818 269 869 333 908 c 1
 395 939 454 954 514 954 c 0
 634 954 720 897 774 783 c 1xf0
EndSplineSet
Substitution2: "'salt' Stylistic Alternatives in Bengali2 lookup 17-1" u09bf.salt
EndChar

StartChar: u09c0
Encoding: 101 2496 97
Width: 223
GlyphClass: 2
Flags: HW
LayerCount: 2
Fore
SplineSet
359 590 m 1xf0
 292 590 l 1
 172 73 l 2
 165 44 149 30 123 30 c 0
 98 30 88 44 95 73 c 2
 215 590 l 1xe8
 125 590 l 1
 144 673 l 1
 221 673 l 1
 219 772 176 832 93 852 c 0
 70 857 46 860 21 860 c 0
 -35 860 -83 847 -126 822 c 1
 -131 815 -135 810 -136 805 c 0
 -139 790 -115 783 -61 782 c 0
 9 781 58 775 84 763 c 0
 132 742 149 698 134 632 c 1
 122 613 106 603 86 603 c 0
 73 603 65 610 61 624 c 1
 65 656 65 676 62 685 c 0
 58 699 43 708 19 713 c 1
 -35 718 -88 722 -142 727 c 1
 -197 737 -217 769 -199 822 c 0
 -186 861 -154 889 -103 909 c 0
 -60 926 -11 934 45 934 c 0
 77 934 103 932 126 926 c 0
 253 896 309 812 296 673 c 1
 378 673 l 1
 359 590 l 1xf0
EndSplineSet
Substitution2: "'salt' Stylistic Alternatives in Bengali2 lookup 17-1" u09c0.salt
EndChar

StartChar: u09c1
Encoding: 102 2497 98
Width: 11
GlyphClass: 2
Flags: HW
AnchorPoint: "Anchor-1" -88 51 mark 0
LayerCount: 2
Fore
SplineSet
-121 -36 m 1
 -135 -21 -155 -17 -179 -22 c 0
 -196 -25 -207 -35 -210 -50 c 0
 -215 -70 -203 -79 -178 -79 c 0
 -171 -79 -162 -75 -150 -67 c 0
 -138 -59 -129 -49 -121 -36 c 1
51 -61 m 2
 55 -64 57 -68 55 -75 c 0
 53 -83 48 -92 40 -101 c 0
 32 -110 26 -114 19 -114 c 0
 17 -114 16 -114 14 -113 c 2
 -71 -65 l 1
 -103 -104 -144 -124 -195 -124 c 0
 -228 -124 -249 -114 -261 -93 c 0
 -268 -81 -270 -67 -267 -53 c 0
 -263 -36 -253 -20 -235 -4 c 0
 -219 10 -202 20 -184 25 c 0
 -172 28 -146 27 -108 20 c 1
 -109 27 -110 41 -111 61 c 1
 -44 61 l 1
 -34 36 -33 13 -41 -8 c 1
 51 -61 l 2
EndSplineSet
EndChar

StartChar: u09c2
Encoding: 103 2498 99
Width: 11
GlyphClass: 2
Flags: HW
AnchorPoint: "Anchor-1" -95 59 mark 0
LayerCount: 2
Fore
SplineSet
54 -139 m 2xd0
 56 -143 56 -148 55 -154 c 0
 53 -164 46 -173 38 -181 c 0
 30 -189 19 -193 9 -193 c 1
 -93 -111 l 1
 -117 -121 -139 -126 -159 -126 c 0
 -199 -126 -222 -108 -228 -72 c 0
 -228 -64 -227 -55 -225 -47 c 0
 -219 -22 -204 -1 -179 17 c 0
 -156 33 -132 41 -109 41 c 1xb0
 -110 45 -110 52 -113 61 c 1
 -44 61 -44 61 -44 61 c 1
 -37 45 -34 33 -35 26 c 0
 -37 13 -48 1 -65 -10 c 0
 -82 -21 -94 -26 -101 -23 c 0
 -105 -22 -110 -21 -115 -21 c 0
 -135 -21 -150 -30 -162 -48 c 1
 -162 -57 -156 -62 -146 -62 c 0
 -134 -62 -117 -56 -95 -45 c 0
 -86 -40 -80 -38 -73 -38 c 0
 -66 -38 -59 -41 -56 -47 c 1
 54 -139 l 2xd0
EndSplineSet
EndChar

StartChar: u09c3
Encoding: 104 2499 100
Width: 8
GlyphClass: 2
Flags: HW
AnchorPoint: "Anchor-1" -73 59 mark 0
LayerCount: 2
Fore
SplineSet
-46 -143 m 2
 -43 -148 -42 -154 -44 -161 c 0
 -46 -169 -50 -177 -58 -184 c 0
 -66 -191 -75 -194 -83 -194 c 0
 -87 -194 -90 -193 -93 -192 c 2
 -216 -60 l 2
 -221 -54 -222 -46 -220 -36 c 0
 -217 -24 -211 -14 -202 -7 c 1
 -76 61 l 1
 -65 64 -57 61 -52 54 c 0
 -47 47 -45 38 -48 27 c 0
 -50 19 -54 13 -60 7 c 1
 -142 -38 l 1
 -46 -143 l 2
EndSplineSet
EndChar

StartChar: u09c4
Encoding: 105 2500 101
Width: 6
GlyphClass: 2
Flags: HW
LayerCount: 2
Fore
SplineSet
-149 61 m 1
 -283 -11 l 2
 -289 -16 -292 -22 -295 -29 c 1
 -379 -75 l 1
 -386 -81 -391 -88 -393 -96 c 0
 -395 -103 -392 -108 -389 -113 c 2
 -256 -255 l 2
 -253 -256 -252 -256 -249 -256 c 0
 -233 -256 -224 -249 -221 -234 c 0
 -220 -229 -221 -226 -223 -222 c 2
 -336 -97 l 1
 -278 -65 l 1
 -160 -192 l 2
 -157 -193 -156 -193 -153 -193 c 0
 -137 -193 -127 -186 -124 -171 c 0
 -123 -166 -124 -162 -126 -158 c 2
 -233 -40 l 1
 -228 -36 -225 -32 -224 -26 c 0
 -224 -25 -223 -25 -223 -24 c 2
 -136 23 l 2
 -131 27 -128 31 -127 37 c 0
 -125 44 -128 51 -131 56 c 0
 -134 61 -140 63 -149 61 c 1
EndSplineSet
EndChar

StartChar: u09c7
Encoding: 106 2503 102
Width: 287
GlyphClass: 2
Flags: HW
LayerCount: 2
Fore
SplineSet
431 590 m 1
 398 590 367 588 337 585 c 1
 310 570 280 547 250 516 c 0
 203 468 169 404 151 325 c 0
 139 274 138 231 149 196 c 0
 160 155 183 129 220 119 c 0
 229 116 239 116 251 119 c 0
 267 122 276 123 280 123 c 0
 303 123 312 111 306 87 c 0
 303 74 296 64 287 56 c 1
 280 52 270 49 256 45 c 0
 242 41 229 40 217 40 c 0
 160 40 119 69 94 126 c 0
 72 178 66 239 80 310 c 0
 97 398 136 481 200 560 c 1
 220 587 l 1
 133 590 l 1
 153 673 l 1
 422 673 l 1
 443 673 l 1
 431 590 l 1
EndSplineSet
Substitution2: "'init' Initial Forms in Bengali lookup 0 subtable" u09c7.init
EndChar

StartChar: u09c8
Encoding: 107 2504 103
Width: 327
GlyphClass: 2
Flags: HW
LayerCount: 2
Fore
SplineSet
474 590 m 1
 364 590 283 528 228 403 c 0
 216 376 206 349 199 320 c 0
 188 271 187 228 195 192 c 0
 203 150 224 122 255 109 c 1
 272 106 286 106 297 111 c 0
 304 113 310 114 317 114 c 0
 340 114 350 101 344 77 c 0
 342 68 337 58 330 49 c 1
 301 31 278 24 263 27 c 1
 196 25 151 57 128 123 c 0
 109 180 108 248 127 329 c 0
 133 356 142 382 152 406 c 0
 199 522 241 583 277 590 c 1
 271 590 l 1
 179 590 l 1
 198 673 l 1
 348 673 l 1
 350 693 337 706 307 714 c 0
 294 718 263 720 215 720 c 0
 172 721 141 727 120 737 c 0
 84 755 72 790 84 840 c 0
 87 851 97 881 115 932 c 1
 128 939 139 943 150 943 c 0
 167 943 180 935 189 920 c 1
 173 885 162 861 159 848 c 0
 152 819 167 803 202 801 c 0
 286 796 339 790 362 781 c 0
 408 764 437 728 446 673 c 1
 488 673 l 1
 474 590 l 1
EndSplineSet
Substitution2: "'init' Initial Forms in Bengali lookup 0 subtable" u09c8.init
EndChar

StartChar: u09cb
Encoding: 108 2507 104
Width: 610
GlyphClass: 2
Flags: HW
LayerCount: 2
Fore
SplineSet
431 590 m 1
 398 590 367 588 337 585 c 1
 310 570 280 547 250 516 c 0
 203 468 169 404 151 325 c 0
 139 274 138 231 149 196 c 0
 160 155 183 129 220 119 c 0
 229 116 239 116 251 119 c 0
 267 122 276 123 280 123 c 0
 303 123 312 111 306 87 c 0
 303 74 296 64 287 56 c 1
 280 52 270 49 256 45 c 0
 242 41 229 40 217 40 c 0
 160 40 119 69 94 126 c 0
 72 178 66 239 80 310 c 0
 97 398 136 481 200 560 c 1
 220 587 l 1
 133 590 l 1
 153 673 l 1
 422 673 l 1
 443 673 l 1
 431 590 l 1
811 590 m 1
 747 590 l 1
 627 67 l 2
 624 54 609 47 584 47 c 0
 561 47 551 54 554 69 c 2
 675 590 l 1
 585 590 l 1
 604 673 l 1
 831 673 l 1
 811 590 l 1
EndSplineSet
EndChar

StartChar: u09cc
Encoding: 109 2508 105
Width: 696
GlyphClass: 2
Flags: HW
LayerCount: 2
Fore
SplineSet
431 590 m 1
 398 590 367 588 337 585 c 1
 310 570 280 547 250 516 c 0
 203 468 169 404 151 325 c 0
 139 274 138 231 149 196 c 0
 160 155 183 129 220 119 c 0
 229 116 239 116 251 119 c 0
 267 122 276 123 280 123 c 0
 303 123 312 111 306 87 c 0
 303 74 296 64 287 56 c 1
 280 52 270 49 256 45 c 0
 242 41 229 40 217 40 c 0
 160 40 119 69 94 126 c 0
 72 178 66 239 80 310 c 0
 97 398 136 481 200 560 c 1
 220 587 l 1
 133 590 l 1
 153 673 l 1
 422 673 l 1
 443 673 l 1
 431 590 l 1
811 590 m 1
 744 590 l 1
 627 87 l 2
 620 58 605 43 580 43 c 0
 570 43 562 46 556 54 c 0
 550 62 548 73 551 86 c 2
 667 590 l 1
 572 590 l 1
 592 673 l 1
 680 673 l 1
 678 702 645 720 583 729 c 0
 485 742 431 751 421 754 c 0
 368 773 346 810 359 865 c 0
 361 875 365 886 369 897 c 1
 381 910 394 916 406 916 c 0
 423 916 434 907 438 888 c 1
 434 880 432 873 430 866 c 0
 421 827 445 804 503 796 c 1
 559 791 614 785 670 779 c 1
 731 764 759 729 754 673 c 1
 831 673 l 1
 811 590 l 1
EndSplineSet
EndChar

StartChar: u09cd
Encoding: 110 2509 106
Width: 8
GlyphClass: 2
Flags: HW
AnchorPoint: "Anchor-1" -125 51 mark 0
LayerCount: 2
Fore
SplineSet
-62 10 m 1
 -103 -28 l 1
 24 -154 l 1
 64 -111 l 1
 -62 10 l 1
EndSplineSet
EndChar

StartChar: u09ce
Encoding: 111 2510 107
Width: 464
GlyphClass: 2
Flags: HW
LayerCount: 2
Fore
SplineSet
349 701 m 0
 393 700 427 688 450 660 c 0
 470 637 482 601 487 557 c 2
 487 552 l 1
 486 547 l 2
 482 531 468 511 455 503 c 0
 435 490 423 489 411 489 c 0
 399 489 386 495 380 507 c 2
 378 511 l 1
 378 515 l 2
 373 568 355 583 328 583 c 0
 322 583 313 582 307 581 c 0
 262 567 243 544 234 506 c 0
 224 465 246 404 317 329 c 2
 417 226 l 1
 418 225 l 1
 418 224 l 2
 454 179 477 128 486 72 c 2
 486 69 l 1
 486 65 l 2
 485 42 468 19 446 10 c 0
 435 6 427 5 418 5 c 0
 399 5 376 13 372 37 c 0
 365 77 344 117 304 160 c 2
 194 273 l 1
 193 274 l 1
 193 275 l 2
 152 325 126 381 120 442 c 0
 117 465 120 487 125 508 c 0
 138 562 170 610 218 648 c 0
 261 682 306 701 349 701 c 0
EndSplineSet
Colour: ff0000
EndChar

StartChar: u09d7
Encoding: 112 2519 108
Width: 221
GlyphClass: 2
Flags: HW
LayerCount: 2
Fore
SplineSet
364 590 m 1
 296 590 l 1
 180 87 l 2
 173 58 158 43 133 43 c 0
 123 43 113 46 107 54 c 0
 101 62 100 73 103 86 c 2
 220 590 l 1
 125 590 l 1
 144 673 l 1
 232 673 l 1
 230 702 198 720 136 729 c 0
 38 742 -17 751 -27 754 c 0
 -80 773 -102 810 -89 865 c 0
 -87 875 -83 886 -79 897 c 1
 -67 910 -54 916 -42 916 c 0
 -25 916 -14 907 -10 888 c 1
 -14 880 -16 873 -18 866 c 0
 -27 827 -3 804 55 796 c 1
 111 791 166 785 222 779 c 1
 283 764 312 729 307 673 c 1
 383 673 l 1
 364 590 l 1
EndSplineSet
EndChar

StartChar: u09dc
Encoding: 113 2524 109
Width: 682
GlyphClass: 3
Flags: HW
AnchorPoint: "Anchor-1" 461 -81 basechar 0
AnchorPoint: "Anchor-0" 264 681 basechar 0
LayerCount: 2
Fore
SplineSet
819 590 m 1xfd
 475 590 l 1
 420 354 l 1
 422 345 426 340 433 340 c 0
 456 340 507 384 582 473 c 0
 589 481 599 486 611 486 c 0
 627 486 640 480 649 467 c 0
 686 418 698 363 683 300 c 0
 675 267 661 231 640 192 c 1
 571 89 493 37 410 35 c 0
 359 34 311 51 269 87 c 0
 234 116 208 152 192 194 c 0
 163 270 146 370 141 495 c 0
 142 505 148 513 157 521 c 0
 166 529 177 533 188 533 c 0
 200 533 209 528 215 519 c 1
 223 412 234 335 248 289 c 1
 257 240 278 200 310 166 c 0
 342 132 378 115 419 115 c 0
 465 115 509 137 552 181 c 1
 580 214 599 251 608 292 c 0
 617 331 615 364 602 392 c 1
 557 350 524 321 502 306 c 0
 462 278 426 264 393 264 c 1
 347 272 333 311 349 381 c 2
 398 590 l 1
 131 590 l 1
 150 673 l 1
 838 673 l 1
 819 590 l 1xfd
402 -56 m 0xfb
 399 -68 392 -79 382 -88 c 0
 372 -97 360 -102 350 -102 c 0
 340 -102 330 -97 324 -88 c 0
 318 -79 315 -68 318 -56 c 0
 321 -44 328 -34 338 -26 c 0
 348 -18 359 -13 370 -13 c 0
 381 -13 390 -18 397 -26 c 0
 404 -34 405 -44 402 -56 c 0xfb
EndSplineSet
Ligature2: "'nukt' Nukta Forms in Bengali lookup 1 subtable" u09a1 u09bc
EndChar

StartChar: u09dd
Encoding: 114 2525 110
Width: 484
GlyphClass: 3
Flags: HW
AnchorPoint: "Anchor-1" 308 -81 basechar 0
AnchorPoint: "Anchor-0" 154 681 basechar 0
LayerCount: 2
Fore
SplineSet
622 587 m 1xf0
 315 587 l 1
 221 181 l 2
 218 168 219 155 225 146 c 0
 231 137 242 132 255 132 c 0
 275 132 296 144 320 166 c 0
 383 224 418 280 425 333 c 0
 427 350 424 364 415 374 c 0
 406 384 397 393 388 401 c 1
 386 406 386 411 388 418 c 0
 391 429 397 439 407 448 c 0
 417 457 428 461 440 461 c 1
 463 439 479 420 487 402 c 0
 497 379 500 353 493 322 c 0
 479 260 442 198 384 134 c 0
 323 67 267 33 217 33 c 0
 193 33 172 46 156 74 c 0
 140 102 135 132 143 165 c 2
 244 599 l 1
 240 590 l 1
 131 590 l 1
 150 673 l 1
 260 673 l 2
 260 671 281 670 324 670 c 2
 641 670 l 1
 622 587 l 1xf0
240 -51 m 0xe8
 237 -63 230 -74 220 -83 c 0
 210 -92 198 -97 188 -97 c 0
 178 -97 168 -92 162 -83 c 0
 156 -74 154 -63 157 -51 c 0
 160 -39 166 -29 176 -21 c 0
 186 -13 197 -8 208 -8 c 0
 219 -8 227 -13 234 -21 c 0
 241 -29 243 -39 240 -51 c 0xe8
EndSplineSet
Ligature2: "'nukt' Nukta Forms in Bengali lookup 1 subtable" u09a2 u09bc
EndChar

StartChar: u09df
Encoding: 115 2527 111
Width: 455
GlyphClass: 3
Flags: HW
AnchorPoint: "Anchor-1" 388 29 basechar 0
AnchorPoint: "Anchor-0" 330 667 basechar 0
LayerCount: 2
Fore
SplineSet
351 143 m 1
 454 590 l 1
 254 590 l 1
 324 454 l 2
 326 447 326 438 324 430 c 0
 321 417 315 408 307 401 c 2
 178 304 l 1
 351 143 l 1
174 101 m 0
 171 86 163 73 151 62 c 0
 139 51 127 45 114 45 c 0
 100 45 89 51 81 62 c 0
 73 73 72 86 76 101 c 0
 80 116 88 128 100 139 c 0
 112 150 126 155 140 155 c 0
 153 155 162 149 169 138 c 0
 176 127 177 115 174 101 c 0
598 590 m 1
 530 590 l 1
 409 69 l 2
 404 46 388 34 359 34 c 0
 347 34 338 37 332 43 c 2
 94 271 l 2
 86 278 84 288 87 299 c 0
 89 309 94 319 103 329 c 1
 243 438 l 1
 160 590 l 1
 131 590 l 1
 150 673 l 1
 617 673 l 1
 598 590 l 1
EndSplineSet
Ligature2: "'nukt' Nukta Forms in Bengali lookup 1 subtable" u09af u09bc
EndChar

StartChar: u09e0
Encoding: 116 2528 112
Width: 624
GlyphClass: 2
Flags: HW
LayerCount: 2
Fore
SplineSet
415 156 m 1xd8
 487 469 l 1
 269 342 l 1
 415 156 l 1xd8
645 169 m 2
 643 159 636 150 625 144 c 0
 614 138 603 135 591 135 c 0
 578 135 570 139 566 146 c 2
 510 246 l 1
 467 66 l 2
 465 56 459 48 447 41 c 0
 445 40 442 38 440 37 c 1
 442 32 442 27 440 20 c 0
 438 12 434 6 428 0 c 1
 346 -45 l 1
 442 -150 l 2
 445 -155 446 -161 444 -168 c 0
 442 -176 437 -184 429 -191 c 0
 421 -198 413 -201 405 -201 c 0
 401 -201 398 -200 395 -199 c 2
 272 -67 l 2
 267 -61 265 -53 267 -43 c 0xe8
 270 -31 277 -21 286 -14 c 1
 388 41 l 1
 176 323 l 2
 171 329 171 337 173 346 c 0
 176 361 185 374 198 383 c 2
 418 514 l 1
 400 543 l 1
 362 509 325 492 285 492 c 0
 230 492 192 520 170 575 c 0
 170 579 170 583 171 587 c 0
 174 598 180 607 190 615 c 0
 200 623 212 627 225 627 c 0
 231 627 235 626 240 625 c 1
 251 590 272 573 303 573 c 0
 333 573 356 589 378 622 c 1
 397 638 416 642 438 635 c 1
 450 617 468 590 491 554 c 1
 509 565 l 1
 532 664 l 2
 536 680 551 688 577 688 c 0
 601 688 610 681 607 666 c 2
 538 369 l 1
 593 275 l 1
 683 666 l 2
 686 681 701 688 726 688 c 0
 751 688 762 681 759 666 c 2
 645 169 l 2
EndSplineSet
EndChar

StartChar: u09e1
Encoding: 117 2529 113
Width: 509
GlyphClass: 2
Flags: HW
LayerCount: 2
Fore
SplineSet
568 203 m 1xc140
 540 155 500 116 447 85 c 0
 435 78 423 72 411 66 c 1
 414 65 419 63 423 61 c 0
 491 34 520 -4 509 -52 c 0
 507 -61 503 -70 498 -80 c 0
 487 -99 471 -115 450 -127 c 0
 430 -139 409 -146 389 -147 c 1
 378 -145 374 -142 375 -136 c 0
 376 -133 378 -129 381 -125 c 0
 384 -119 389 -112 392 -106 c 0
 395 -100 399 -94 400 -89 c 0
 401 -83 401 -76 400 -69 c 0
 397 -57 389 -51 377 -51 c 0
 370 -51 364 -54 357 -59 c 0
 349 -65 344 -73 341 -84 c 0xc340
 339 -93 339 -103 341 -112 c 0
 341 -113 340 -115 340 -116 c 0
 338 -125 332 -129 322 -129 c 0xc9
 316 -129 312 -127 311 -123 c 0
 308 -111 309 -98 312 -85 c 0xc3
 315 -70 322 -57 332 -46 c 0
 348 -29 365 -21 385 -21 c 0
 396 -21 405 -24 414 -31 c 0
 423 -38 428 -46 430 -58 c 0
 431 -70 430 -81 428 -91 c 0
 427 -97 424 -104 421 -110 c 1
 453 -99 473 -81 479 -54 c 0
 480 -49 480 -45 480 -40 c 0
 480 -21 473 -4 456 8 c 0
 447 15 431 23 407 33 c 0
 391 40 378 44 370 49 c 1
 346 41 322 37 297 35 c 1
 270 40 258 50 261 64 c 0
 263 71 268 80 276 90 c 0
 285 105 294 121 303 137 c 0
 312 153 319 167 322 180 c 0
 325 195 325 212 323 231 c 1
 315 260 296 275 265 275 c 0
 247 275 232 269 215 256 c 0
 195 241 181 219 175 192 c 0
 170 170 169 147 174 124 c 0
 174 121 174 118 173 114 c 0
 168 92 152 81 126 81 c 0
 112 81 104 86 101 95 c 0
 94 126 94 157 102 190 c 0xd940
 111 228 127 260 152 287 c 0
 191 330 235 351 284 351 c 0
 313 351 338 342 358 326 c 0
 378 310 392 287 397 258 c 1
 400 229 398 201 392 175 c 0
 388 159 382 143 375 127 c 1
 455 154 504 201 519 268 c 0
 522 279 523 291 523 303 c 0
 524 352 503 392 461 423 c 0
 440 440 399 461 339 485 c 0
 275 511 235 531 218 544 c 0
 183 571 171 604 182 643 c 0
 188 666 202 678 222 678 c 0
 246 678 256 667 254 646 c 1
 249 627 259 610 285 595 c 0
 290 591 321 578 380 555 c 0
 550 487 621 393 593 273 c 0xe980
 588 251 580 228 568 203 c 1xc140
EndSplineSet
EndChar

StartChar: u09e2
Encoding: 118 2530 114
Width: 5
GlyphClass: 2
Flags: HW
LayerCount: 2
Fore
SplineSet
227 81 m 0xd8
 216 62 200 46 179 34 c 0
 159 22 138 15 118 14 c 1
 107 16 103 20 104 26 c 0
 105 29 107 32 110 36 c 0
 113 42 118 49 121 55 c 0
 124 61 128 67 129 72 c 0
 130 78 130 85 129 92 c 0
 126 104 118 110 106 110 c 0
 99 110 93 107 86 102 c 0
 78 96 73 88 70 77 c 0xb8
 68 68 68 59 70 50 c 0
 70 49 69 47 69 46 c 0
 67 37 60 32 50 32 c 0xd8
 44 32 41 34 40 38 c 0
 37 50 37 63 40 76 c 0xb8
 43 91 51 104 61 115 c 0
 77 132 94 140 114 140 c 0
 125 140 134 138 143 131 c 0
 152 124 157 115 159 103 c 0
 160 91 159 80 157 70 c 0
 156 64 153 57 150 51 c 1
 182 62 202 80 208 107 c 0
 209 112 209 116 209 121 c 0
 209 140 202 157 185 169 c 0
 176 176 160 184 136 194 c 0
 110 204 94 213 87 218 c 0
 73 229 68 241 73 257 c 0
 76 266 81 271 89 271 c 0
 98 271 103 267 102 258 c 0
 99 250 103 244 114 238 c 0
 116 237 129 231 152 222 c 0
 220 195 249 157 238 109 c 0
 236 100 232 91 227 81 c 0xd8
EndSplineSet
EndChar

StartChar: u09e3
Encoding: 119 2531 115
Width: 10
GlyphClass: 2
Flags: HW
LayerCount: 2
Fore
SplineSet
-129 262 m 0xcdc0
 -128 269 -132 271 -139 271 c 0
 -146 271 -149 268 -151 261 c 0xcdc0
 -155 246 -150 233 -136 223 c 0
 -130 219 -114 211 -87 200 c 0
 -61 190 -44 181 -34 174 c 0
 -17 160 -8 143 -8 122 c 0
 -8 117 -9 111 -10 106 c 0
 -14 90 -23 75 -37 63 c 0
 -50 53 -64 46 -82 41 c 1
 -77 51 -73 61 -71 69 c 0
 -69 79 -70 89 -71 100 c 0
 -72 111 -77 120 -85 126 c 0
 -93 132 -102 136 -113 136 c 0
 -133 136 -150 127 -165 111 c 0
 -174 101 -180 89 -183 74 c 0
 -183 73 -184 72 -184 71 c 1
 -198 82 -217 93 -242 103 c 0
 -266 113 -280 119 -284 122 c 0
 -295 129 -300 137 -297 145 c 0
 -296 152 -299 154 -306 154 c 0
 -313 154 -317 151 -319 144 c 0
 -323 129 -318 115 -304 105 c 0
 -298 101 -282 94 -255 83 c 0
 -229 73 -212 64 -202 57 c 0
 -194 51 -189 44 -185 37 c 0
 -184 36 l 0
 -184 35 -183 35 -182 34 c 0
 -178 25 -176 15 -176 4 c 0
 -176 -1 -177 -6 -178 -11 c 0
 -182 -27 -191 -42 -205 -54 c 0
 -218 -64 -232 -71 -250 -76 c 1
 -245 -66 -241 -56 -239 -48 c 0
 -237 -38 -237 -28 -238 -17 c 0
 -239 -6 -244 3 -252 9 c 0
 -260 15 -270 19 -281 19 c 0
 -301 19 -317 10 -332 -6 c 0xebc0
 -341 -16 -348 -28 -351 -43 c 0
 -354 -56 -355 -69 -352 -81 c 0
 -352 -84 -350 -85 -345 -85 c 0
 -341 -85 -338 -84 -335 -82 c 0
 -332 -80 -331 -76 -331 -72 c 0
 -333 -62 -332 -52 -330 -43 c 0
 -327 -30 -321 -21 -311 -13 c 0
 -303 -7 -294 -4 -287 -4 c 0
 -272 -4 -262 -11 -259 -25 c 0
 -258 -33 -258 -41 -260 -48 c 0
 -261 -54 -264 -59 -268 -66 c 0
 -272 -73 -277 -80 -280 -87 c 0
 -283 -90 -285 -92 -285 -94 c 0
 -286 -98 -282 -101 -274 -103 c 1
 -254 -101 -232 -94 -213 -83 c 0
 -192 -71 -176 -56 -165 -37 c 0
 -160 -28 -157 -18 -155 -9 c 0
 -150 12 -153 31 -163 48 c 1
 -165 57 -164 66 -162 74 c 0xdbc0
 -159 87 -153 96 -143 104 c 0
 -135 110 -127 113 -120 113 c 0
 -105 113 -95 106 -92 92 c 0
 -91 84 -91 76 -93 69 c 0
 -94 63 -96 58 -100 51 c 0
 -104 44 -109 37 -112 30 c 0
 -115 27 -117 25 -117 23 c 0
 -118 19 -113 16 -105 14 c 1
 -85 16 -65 23 -46 34 c 0
 -25 46 -9 62 2 81 c 0
 7 90 10 99 12 108 c 0
 19 137 12 161 -8 181 c 0
 -22 195 -44 208 -74 220 c 0
 -98 230 -113 236 -117 239 c 0
 -128 246 -132 254 -129 262 c 0xcdc0
EndSplineSet
EndChar

StartChar: u09e6
Encoding: 120 2534 116
Width: 533
GlyphClass: 2
Flags: HW
LayerCount: 2
Fore
SplineSet
447 302 m 0
 467 329 480 357 487 387 c 0
 495 423 493 453 479 476 c 0
 463 501 436 514 399 513 c 0
 330 512 271 473 221 395 c 0
 208 374 198 351 193 329 c 0
 187 301 187 276 196 253 c 0
 205 230 220 215 242 206 c 0
 253 201 265 199 279 199 c 0
 308 199 339 209 371 230 c 0
 400 249 425 273 447 302 c 0
553 356 m 0
 499 226 416 148 304 123 c 0
 287 119 271 117 255 117 c 0
 201 117 161 138 137 181 c 0
 113 222 107 271 121 330 c 0
 131 373 150 415 180 455 c 0
 210 495 246 527 287 552 c 0
 328 577 368 590 408 592 c 0
 465 595 510 577 540 538 c 0
 570 499 578 452 565 395 c 0
 562 382 559 369 553 356 c 0
EndSplineSet
EndChar

StartChar: u09e7
Encoding: 121 2535 117
Width: 444
GlyphClass: 2
Flags: W
HStem: 49 71<166.5 303.704>
VStem: 193 68<578.859 671.687>
LayerCount: 2
Fore
SplineSet
437 249 m 0
 409 164 372 108 329 80 c 0
 305 65 281 55 253 51 c 0
 243 50 216 49 175 49 c 0
 158 49 133 67 101 102 c 1
 100 111 101 118 103 125 c 0
 109 152 129 165 162 162 c 1
 176 134 202 120 242 120 c 0
 262 120 278 124 290 131 c 0
 332 158 361 215 381 305 c 1
 385 364 347 423 263 482 c 1
 228 516 206 542 198 559 c 0
 185 584 183 615 193 651 c 0
 198 666 211 674 231 674 c 0
 252 674 263 666 261 651 c 1
 254 624 261 599 285 576 c 0
 309 553 334 531 360 509 c 0
 435 436 463 358 443 273 c 0
 441 265 440 257 437 249 c 0
EndSplineSet
EndChar

StartChar: u09e8
Encoding: 122 2536 118
Width: 444
GlyphClass: 2
Flags: W
VStem: 217 70<608.001 651.484>
LayerCount: 2
Fore
SplineSet
450 2 m 2
 454 -4 455 -11 453 -19 c 0
 451 -28 446 -36 437 -43 c 0
 428 -50 418 -53 408 -53 c 0
 398 -53 390 -50 381 -44 c 1
 111 253 l 2
 104 264 101 275 104 286 c 0
 109 308 124 320 148 320 c 0
 153 320 158 319 163 317 c 0
 180 305 203 299 232 299 c 0
 264 299 293 306 319 320 c 0
 348 335 365 356 371 381 c 0
 374 393 374 406 370 419 c 0
 354 460 330 493 300 518 c 1
 278 533 256 547 234 561 c 1
 217 576 211 596 217 622 c 0
 219 630 223 641 227 652 c 1
 240 670 254 679 274 679 c 0
 291 679 300 671 301 653 c 1
 292 640 288 631 287 628 c 0
 286 624 288 621 291 619 c 0
 338 589 371 562 393 539 c 0
 437 490 453 438 442 383 c 0
 433 340 409 304 370 275 c 0
 337 250 298 233 252 225 c 1
 450 2 l 2
EndSplineSet
EndChar

StartChar: u09e9
Encoding: 123 2537 119
Width: 631
GlyphClass: 2
Flags: W
HStem: 74 78<320.919 450.172> 569 75<436.731 552.205>
VStem: 153 70<293.375 528.141> 328 70<410.561 525.234>
LayerCount: 2
Fore
SplineSet
653 370 m 0
 641 307 609 243 557 181 c 0
 497 110 434 74 369 74 c 0
 316 74 269 101 226 155 c 0
 183 209 159 273 153 347 c 0
 148 409 150 470 159 531 c 1
 170 551 183 560 200 560 c 0
 214 560 224 552 230 537 c 1
 224 483 223 443 223 416 c 0
 224 378 231 340 242 301 c 0
 253 262 270 230 291 204 c 0
 317 169 348 152 381 152 c 0
 399 152 418 157 438 167 c 0
 476 186 507 215 534 254 c 0
 559 289 575 326 583 364 c 0
 610 501 575 570 479 569 c 1
 440 561 416 534 405 487 c 0
 402 474 400 457 398 437 c 0
 396 428 390 420 380 413 c 0
 370 406 361 403 351 403 c 0
 335 403 328 410 328 424 c 0
 327 444 327 463 332 483 c 0
 342 526 361 563 391 595 c 0
 421 627 457 643 495 644 c 0
 566 645 614 618 641 565 c 0
 665 518 669 453 653 370 c 0
EndSplineSet
EndChar

StartChar: u09ea
Encoding: 124 2538 120
Width: 472
GlyphClass: 2
Flags: W
HStem: 42 85<178.619 304.773>
LayerCount: 2
Fore
SplineSet
330 163 m 0
 356 185 372 211 379 241 c 0
 385 266 382 287 370 304 c 0
 358 321 338 328 310 325 c 0
 234 318 188 288 169 234 c 0
 158 201 159 174 174 154 c 0
 188 136 210 127 239 127 c 0
 272 127 302 139 330 163 c 0
420 463 m 0
 432 477 441 493 445 511 c 0
 451 535 447 556 436 574 c 0
 425 592 408 600 384 598 c 0
 354 595 323 585 297 567 c 0
 265 546 245 520 239 489 c 0
 233 460 236 438 249 424 c 0
 262 410 278 403 301 403 c 0
 348 403 388 423 420 463 c 0
362 98 m 0
 311 61 263 42 219 42 c 0
 200 42 183 45 165 51 c 0
 93 74 65 122 83 198 c 0
 97 259 134 311 193 354 c 1
 157 386 144 428 156 480 c 0
 168 530 198 576 246 617 c 0
 294 658 343 678 395 678 c 0
 449 678 487 663 510 633 c 0
 531 605 536 570 526 528 c 0
 512 469 476 418 420 377 c 1
 463 346 478 301 465 244 c 0
 452 187 418 139 362 98 c 0
EndSplineSet
EndChar

StartChar: u09eb
Encoding: 125 2539 121
Width: 530
GlyphClass: 2
Flags: HW
LayerCount: 2
Fore
SplineSet
454 473 m 1
 437 492 424 508 417 519 c 0
 406 538 402 559 404 580 c 1
 361 561 316 526 270 475 c 0
 218 418 185 363 173 310 c 0
 168 290 168 273 170 256 c 0
 175 212 194 177 226 152 c 0
 256 129 293 117 338 116 c 1
 304 168 295 227 310 290 c 0
 328 368 376 429 454 473 c 1
559 434 m 1
 515 431 475 414 442 383 c 0
 411 355 392 321 383 283 c 0
 368 216 387 167 443 135 c 1
 457 125 463 112 460 97 c 0
 457 84 449 74 436 67 c 0
 400 46 361 36 321 36 c 0
 262 36 210 56 165 97 c 0
 120 138 94 184 92 234 c 0
 90 255 94 278 100 302 c 0
 120 388 172 472 257 554 c 0
 338 632 408 672 465 671 c 0
 475 671 483 667 488 660 c 0
 493 653 495 644 492 633 c 0
 491 629 490 625 488 620 c 0
 484 613 480 607 478 600 c 0
 473 580 480 560 500 540 c 0
 517 523 535 511 555 506 c 0
 575 501 582 486 577 463 c 0
 574 452 568 442 559 434 c 1
EndSplineSet
EndChar

StartChar: u09ec
Encoding: 126 2540 122
Width: 590
GlyphClass: 2
Flags: HW
LayerCount: 2
Fore
SplineSet
600 520 m 0
 624 482 627 433 613 372 c 0
 596 299 561 233 506 173 c 0
 449 111 391 79 333 78 c 0
 293 78 257 90 225 116 c 0
 193 142 169 176 154 217 c 0
 126 297 123 381 144 471 c 0
 147 486 153 502 157 517 c 1
 165 535 177 544 195 544 c 0
 215 544 223 534 222 514 c 1
 200 440 196 370 208 306 c 0
 215 267 231 233 256 204 c 0
 284 171 315 155 350 155 c 0
 357 155 362 155 369 157 c 0
 407 167 444 194 479 236 c 0
 511 276 533 319 544 366 c 0
 549 388 550 410 548 430 c 1
 468 366 408 334 364 334 c 0
 328 334 305 357 296 402 c 1
 350 636 l 2
 353 650 367 657 392 657 c 0
 417 657 428 650 425 636 c 2
 375 418 l 1
 379 410 385 406 393 406 c 0
 411 406 437 422 474 454 c 0
 498 476 521 498 545 520 c 0
 557 529 567 534 575 534 c 0
 583 534 592 529 600 520 c 0
EndSplineSet
EndChar

StartChar: u09ed
Encoding: 127 2541 123
Width: 439
GlyphClass: 2
Flags: HW
LayerCount: 2
Fore
SplineSet
405 389 m 1xe8
 418 453 426 497 428 520 c 0
 431 573 418 598 392 593 c 1
 350 590 314 575 281 547 c 0
 244 515 219 471 207 416 c 1
 210 389 235 376 284 376 c 0
 302 376 324 378 352 381 c 0
 370 384 387 386 405 389 c 1xe8
436 110 m 0
 456 111 464 102 459 82 c 0
 456 71 450 61 440 52 c 0
 430 43 419 38 406 38 c 0
 374 37 356 53 350 84 c 0xe4
 346 108 349 144 359 192 c 0
 372 250 372 250 386 309 c 1
 335 304 300 302 280 302 c 0
 178 302 128 335 132 401 c 0
 133 413 135 425 138 438 c 0
 152 498 186 551 239 596 c 0
 292 641 347 666 404 671 c 0
 449 674 478 656 490 616 c 0
 498 589 499 545 493 482 c 0
 492 465 488 445 482 420 c 0
 477 398 467 362 453 313 c 0
 439 264 429 230 424 209 c 0xf0
 409 142 413 109 436 110 c 0
EndSplineSet
EndChar

StartChar: u09ee
Encoding: 128 2542 124
Width: 604
GlyphClass: 2
Flags: W
HStem: 38 75<187.236 265.634> 388 76<245.424 398.009> 598 75<163.489 194.125>
VStem: 152 110<599.39 661.016>
LayerCount: 2
Fore
SplineSet
403 356 m 0
 396 377 377 388 346 388 c 0
 315 388 270 377 212 354 c 1
 211 349 208 337 202 316 c 0
 197 299 195 286 192 275 c 0
 175 200 173 149 187 121 c 1
 192 115 199 113 207 113 c 0
 237 113 276 135 321 179 c 0
 366 223 394 266 404 308 c 0
 408 326 407 342 403 356 c 0
675 440 m 1
 483 362 l 1
 483 348 481 334 478 319 c 0
 462 251 423 187 360 127 c 0
 295 65 231 35 170 38 c 1
 143 45 125 57 116 73 c 0
 107 89 102 113 103 145 c 1
 101 180 110 238 134 321 c 0
 169 446 188 509 188 511 c 0
 201 570 196 599 174 598 c 1
 155 601 148 611 152 630 c 0
 155 641 161 650 171 659 c 0
 181 668 192 673 204 673 c 0
 236 673 255 660 262 636 c 0
 269 612 267 573 255 520 c 0
 250 497 242 470 232 439 c 1
 289 456 333 464 366 464 c 0
 407 464 438 452 459 429 c 1
 666 512 l 1
 678 514 686 511 692 503 c 0
 698 495 699 484 696 472 c 0
 693 459 685 449 675 440 c 1
EndSplineSet
EndChar

StartChar: u09ef
Encoding: 129 2543 125
Width: 593
GlyphClass: 2
Flags: HW
LayerCount: 2
Fore
SplineSet
568 203 m 1xd8
 540 155 500 116 447 85 c 0
 397 55 347 38 297 35 c 1
 270 40 258 50 261 64 c 0
 263 71 268 80 276 90 c 0
 285 105 294 121 303 137 c 0
 312 153 319 167 322 180 c 0
 325 195 325 212 323 231 c 1
 315 260 296 275 265 275 c 0
 247 275 232 269 215 256 c 0
 195 241 181 219 175 192 c 0
 170 170 169 147 174 124 c 0
 174 121 174 118 173 114 c 0
 168 92 152 81 126 81 c 0
 112 81 104 86 101 95 c 0
 94 126 94 157 102 190 c 0xb8
 111 228 127 260 152 287 c 0
 191 330 235 351 284 351 c 0
 313 351 338 342 358 326 c 0
 378 310 392 287 397 258 c 1
 400 229 398 201 392 175 c 0
 388 159 382 143 375 127 c 1
 455 154 504 201 519 268 c 0
 522 279 523 291 523 303 c 0
 524 352 503 392 461 423 c 0
 440 440 399 461 339 485 c 0
 275 511 235 531 218 544 c 0
 183 571 171 604 182 643 c 0
 188 666 202 678 222 678 c 0
 246 678 256 667 254 646 c 1
 249 627 259 610 285 595 c 0
 290 591 321 578 380 555 c 0
 550 487 621 393 593 273 c 0
 588 251 580 228 568 203 c 1xd8
EndSplineSet
EndChar

StartChar: u09f0
Encoding: 130 2544 126
Width: 446
GlyphClass: 2
Flags: HW
LayerCount: 2
Fore
SplineSet
347 161 m 1
 363 231 l 1
 256 379 l 1
 200 346 l 1
 347 161 l 1
383 315 m 1
 419 475 l 1
 313 412 l 1
 383 315 l 1
589 590 m 1
 521 590 l 1
 401 71 l 2
 397 63 390 55 380 49 c 0
 370 43 359 39 350 39 c 0
 339 39 331 43 324 51 c 2
 111 324 l 2
 106 330 105 339 108 351 c 0
 112 367 119 378 129 384 c 2
 440 564 l 1
 446 590 l 1
 131 590 l 1
 150 673 l 1
 608 673 l 1
 589 590 l 1
EndSplineSet
EndChar

StartChar: u09f1
Encoding: 131 2545 127
Width: 446
GlyphClass: 2
Flags: HW
LayerCount: 2
Fore
SplineSet
347 161 m 1
 419 475 l 1
 200 346 l 1
 347 161 l 1
221 79 m 1
 180 43 l 1
 72 188 l 1
 118 217 l 1
 221 79 l 1
589 590 m 1
 521 590 l 1
 401 71 l 2
 397 63 390 55 380 49 c 0
 370 43 359 39 350 39 c 0
 339 39 331 43 324 51 c 2
 111 324 l 2
 106 330 105 339 108 351 c 0
 112 367 119 378 129 384 c 2
 440 564 l 1
 446 590 l 1
 131 590 l 1
 150 673 l 1
 608 673 l 1
 589 590 l 1
EndSplineSet
EndChar

StartChar: u09f2
Encoding: 132 2546 128
Width: 520
GlyphClass: 2
Flags: HW
LayerCount: 2
Fore
SplineSet
306 -165 m 6
 307 -167 307 -170 307 -175 c 4
 307 -180 305 -185 303 -191 c 4
 301 -194 301 -196 299 -199 c 4
 290 -212 282 -217 275 -213 c 4
 272 -212 270 -210 268 -208 c 6
 108 -6 l 5
 114 78 l 5
 306 -165 l 6
EndSplineSet
EndChar

StartChar: u09f3
Encoding: 133 2547 129
Width: 610
GlyphClass: 2
Flags: HW
LayerCount: 2
Fore
SplineSet
666 134 m 0
 656 90 633 50 597 20 c 0
 552 -16 499 -31 438 -31 c 0
 364 -31 309 -6 283 47 c 2
 283 47 l 1
 282 48 l 2
 268 84 266 126 276 170 c 2
 314 340 l 1
 263 341 l 1
 235 341 l 1
 242 371 l 1
 250 404 l 1
 257 434 l 1
 285 434 l 1
 337 434 l 1
 366 562 l 2
 369 577 368 586 366 591 c 2
 366 592 l 1
 366 593 l 2
 364 600 353 610 316 610 c 0
 278 610 257 601 246 592 c 0
 235 583 223 565 216 535 c 2
 209 505 l 1
 181 505 l 1
 129 505 l 1
 102 505 l 1
 108 534 l 1
 113 560 l 1
 114 566 l 1
 117 571 l 1
 156 639 l 1
 159 644 l 1
 162 647 l 2
 205 693 266 710 339 710 c 0
 393 710 434 693 458 657 c 2
 458 656 l 1
 459 655 l 2
 476 624 479 586 469 544 c 2
 444 436 l 1
 496 434 l 1
 523 433 l 1
 516 404 l 1
 508 371 l 1
 501 341 l 1
 474 341 l 1
 422 340 l 1
 381 164 l 1
 381 124 l 1
 384 94 l 1
 395 83 420 75 462 75 c 0
 495 75 518 83 533 95 c 0
 549 107 558 120 563 143 c 0
 565 151 564 157 559 163 c 2
 527 182 l 1
 507 194 l 1
 521 219 l 1
 547 266 l 1
 563 296 l 1
 588 284 l 2
 607 275 625 260 641 241 c 0
 665 211 675 175 666 134 c 0
EndSplineSet
EndChar

StartChar: u09f4
Encoding: 134 2548 130
Width: 313
GlyphClass: 2
Flags: HW
LayerCount: 2
Fore
SplineSet
291 288 m 2
 5 21 l 1
 86 36 l 1
 324 259 l 2
 330 265 333 269 333 274 c 0
 334 281 330 286 323 290 c 0
 316 294 308 294 300 292 c 0
 296 291 293 290 291 288 c 2
EndSplineSet
EndChar

StartChar: u09f5
Encoding: 135 2549 131
Width: 591
GlyphClass: 2
Flags: HW
LayerCount: 2
Fore
SplineSet
506 654 m 1
 490 476 466 350 433 277 c 1
 425 264 417 251 408 239 c 0
 379 200 344 168 306 142 c 0
 272 119 241 105 210 98 c 1
 233 121 251 143 267 163 c 0
 286 187 301 213 316 240 c 0
 331 267 335 289 334 307 c 0
 333 325 324 334 309 337 c 0
 282 342 246 326 200 289 c 0
 171 266 144 238 117 203 c 0
 94 172 74 141 60 111 c 0
 57 104 58 100 64 99 c 0
 69 98 74 100 82 105 c 0
 90 110 97 117 103 126 c 0
 115 151 130 175 146 197 c 0
 170 227 194 251 219 268 c 0
 239 280 254 284 266 282 c 0
 286 278 289 260 274 226 c 1
 263 206 250 187 238 170 c 0
 228 157 215 142 199 127 c 0
 183 112 169 96 153 80 c 0
 145 73 138 67 134 62 c 0
 126 52 127 44 136 38 c 1
 167 37 205 48 249 71 c 0
 297 96 342 130 386 174 c 0
 407 196 425 217 441 238 c 0
 493 306 523 364 532 412 c 1
 549 544 554 636 546 690 c 1
 506 654 l 1
EndSplineSet
EndChar

StartChar: u09f6
Encoding: 136 2550 132
Width: 592
GlyphClass: 2
Flags: HW
LayerCount: 2
Fore
SplineSet
187 666 m 1
 322 529 399 452 420 434 c 0
 457 399 478 356 480 304 c 0
 482 291 481 278 480 265 c 0
 475 224 460 189 434 159 c 1
 418 136 391 118 358 107 c 1
 360 129 363 151 365 172 c 0
 368 197 368 224 363 251 c 0
 358 278 347 300 330 316 c 0
 313 332 293 340 272 340 c 0
 234 340 202 319 175 278 c 0
 159 252 148 220 143 184 c 0
 139 152 142 121 149 91 c 0
 151 84 156 80 164 80 c 0
 171 80 178 83 183 89 c 0
 188 95 190 102 190 112 c 0
 185 137 183 161 186 184 c 0
 190 216 200 241 218 261 c 0
 232 275 248 282 264 282 c 0
 293 282 311 265 321 231 c 1
 325 210 325 192 323 174 c 0
 322 160 319 145 316 130 c 0
 313 115 308 98 302 81 c 1
 296 73 293 67 293 62 c 0
 291 51 299 44 316 40 c 1
 356 44 395 60 431 89 c 0
 463 116 489 153 508 201 c 1
 515 225 521 248 523 270 c 0
 531 341 514 402 471 453 c 0
 442 488 354 576 209 717 c 1
 187 666 l 1
EndSplineSet
EndChar

StartChar: u09f7
Encoding: 137 2551 133
Width: 293
GlyphClass: 2
Flags: HW
LayerCount: 2
Fore
SplineSet
32 82 m 1
 38 42 52 42 77 81 c 1
 150 400 l 1
 163 417 171 420 175 407 c 1
 281 183 l 1
 295 141 314 149 334 208 c 1
 409 538 l 1
 407 559 392 560 364 543 c 1
 312 314 l 1
 305 291 297 290 288 311 c 2
 215 473 l 1
 192 511 161 513 123 477 c 1
 32 82 l 1
EndSplineSet
EndChar

StartChar: u09f8
Encoding: 138 2552 134
Width: 292
GlyphClass: 2
Flags: HW
LayerCount: 2
Fore
SplineSet
271 276 m 2
 305 206 l 2
 306 208 306 210 306 210 c 1
 322 280 l 2
 319 277 317 274 313 272 c 0
 292 258 275 271 271 276 c 2
221 383 m 1
 188 454 l 2
 172 480 163 477 147 465 c 1
 139 427 l 1
 145 433 147 435 154 439 c 0
 179 454 197 435 201 424 c 2
 221 383 l 1
EndSplineSet
EndChar

StartChar: u09f9
Encoding: 139 2553 135
Width: 234
GlyphClass: 2
Flags: HW
LayerCount: 2
Fore
SplineSet
233 490 m 0
 294 489 337 460 349 405 c 0
 354 382 354 354 348 326 c 0
 341 286 320 250 289 220 c 0
 252 183 209 166 163 166 c 0
 99 165 55 196 45 255 c 0
 41 275 42 294 46 317 c 0
 54 361 79 401 114 436 c 0
 151 472 191 491 233 490 c 0
207 378 m 0
 176 377 167 368 159 349 c 2
 153 333 l 1
 153 307 l 2
 154 303 156 297 178 295 c 2
 179 295 l 1
 180 295 l 1
 194 294 l 2
 222 295 232 302 234 303 c 0
 235 307 237 314 240 325 c 2
 242 331 l 1
 242 333 l 2
 245 345 243 356 233 367 c 0
 226 374 218 378 207 378 c 0
EndSplineSet
EndChar

StartChar: u09fa
Encoding: 140 2554 136
Width: 356
GlyphClass: 2
Flags: HW
LayerCount: 2
Fore
SplineSet
469 843 m 2
 506 817 506 759 490 688 c 0
 477 630 454 573 423 516 c 0
 392 457 360 411 322 382 c 2
 320 381 l 1
 319 380 l 2
 288 360 257 346 227 339 c 0
 210 335 194 333 178 333 c 0
 147 333 118 340 90 354 c 2
 82 358 l 1
 79 367 l 2
 76 378 73 390 77 406 c 0
 84 438 112 454 134 462 c 1
 122 477 120 498 125 518 c 0
 130 542 145 563 165 578 c 0
 185 593 208 600 230 600 c 0
 252 600 273 593 287 578 c 0
 299 564 306 544 301 519 c 1
 313 537 324 559 336 584 c 0
 358 630 373 670 381 706 c 0
 389 739 386 755 385 757 c 2
 377 764 l 1
 378 777 l 2
 380 795 383 818 406 835 c 0
 424 848 441 848 458 847 c 2
 464 847 l 1
 469 843 l 2
EndSplineSet
EndChar

StartChar: zwnj
Encoding: 146 8204 137
Width: 0
GlyphClass: 2
Flags: HW
LayerCount: 2
Fore
SplineSet
147 684 m 1
 170 683 l 1
 14 12 l 1
 -9 12 l 1
 147 684 l 1
EndSplineSet
EndChar

StartChar: zwj
Encoding: 147 8205 138
Width: 5
GlyphClass: 2
Flags: HW
LayerCount: 2
Fore
SplineSet
-12 10 m 1
 125 605 l 1
 31 532 l 1
 6 542 l 1
 117 630 l 1
 26 688 l 1
 53 723 l 1
 152 645 l 1
 256 723 l 1
 278 698 l 1
 166 625 l 1
 250 557 l 1
 237 537 l 1
 160 601 l 1
 25 15 l 1
 -12 10 l 1
EndSplineSet
EndChar

StartChar: quotedblleft
Encoding: 148 8220 139
Width: 478
GlyphClass: 2
Flags: HW
LayerCount: 2
Fore
SplineSet
268 623 m 1
 231 633 217 657 226 695 c 0
 229 710 236 725 247 743 c 0
 272 783 307 818 354 848 c 1
 368 849 376 845 379 838 c 0
 381 834 380 830 379 824 c 0
 378 819 376 815 374 810 c 1
 361 804 343 789 319 765 c 0
 291 737 275 715 271 697 c 0
 268 684 272 675 285 670 c 0
 291 669 300 669 311 670 c 0
 317 670 324 671 331 672 c 1
 341 667 345 658 342 646 c 0
 340 637 335 630 325 625 c 1
 305 621 290 621 278 622 c 2
 268 623 l 1
462 623 m 1
 425 633 411 657 420 695 c 0
 423 710 431 725 442 743 c 0
 467 783 502 818 549 848 c 1
 563 849 570 845 573 838 c 0
 575 834 575 830 574 824 c 0
 573 819 571 815 569 810 c 1
 556 804 538 789 514 765 c 0
 486 737 469 715 465 697 c 0
 462 684 467 675 480 670 c 0
 486 669 495 669 506 670 c 0
 512 670 519 671 526 672 c 1
 536 667 539 658 536 646 c 0
 534 637 530 630 520 625 c 1
 500 621 485 621 473 622 c 2
 462 623 l 1
EndSplineSet
EndChar

StartChar: quotedblright
Encoding: 149 8221 140
Width: 476
GlyphClass: 2
Flags: HW
LayerCount: 2
Fore
SplineSet
562 683 m 0
 537 642 501 607 454 578 c 1
 440 576 431 579 428 587 c 0
 426 591 426 596 428 603 c 0
 429 607 431 611 433 616 c 1
 445 621 465 636 490 661 c 0
 518 689 533 712 537 729 c 0
 540 742 536 751 523 756 c 0
 517 757 507 757 496 756 c 0
 490 756 484 755 477 754 c 1
 467 759 463 767 466 779 c 0
 468 789 474 796 484 801 c 1
 503 805 519 806 531 805 c 0
 535 805 537 804 540 803 c 0
 578 793 593 769 584 732 c 0
 581 717 572 700 562 683 c 0
368 683 m 0
 343 642 307 607 260 578 c 1
 246 576 237 579 234 587 c 0
 232 591 232 596 234 603 c 0
 235 607 237 611 239 616 c 1
 251 621 270 636 295 661 c 0
 323 689 339 712 343 729 c 0
 346 742 342 751 329 756 c 0
 323 757 313 757 302 756 c 0
 296 756 290 755 283 754 c 1
 273 759 269 767 272 779 c 0
 274 789 280 796 290 801 c 1
 309 805 324 806 336 805 c 0
 340 805 342 804 345 803 c 0
 383 793 397 769 388 732 c 0
 385 717 378 700 368 683 c 0
EndSplineSet
EndChar

StartChar: euro
Encoding: 151 8364 141
Width: 482
GlyphClass: 2
Flags: HW
LayerCount: 2
Fore
SplineSet
346 410 m 1
 553 410 l 1
 547 385 l 1
 327 386 l 1
 318 374 l 1
 303 330 l 1
 304 318 305 304 308 289 c 2
 305 312 l 1
 531 312 l 1
 526 287 l 1
 309 288 l 1
 313 269 317 248 324 225 c 0
 336 184 378 129 450 61 c 1
 434 12 l 1
 425 10 411 18 389 37 c 0
 378 46 365 58 351 73 c 0
 308 117 280 159 268 198 c 0
 259 225 253 255 247 287 c 1
 71 288 l 1
 78 314 l 1
 242 313 l 1
 240 330 l 1
 244 347 254 368 270 394 c 1
 264 386 l 1
 93 386 l 1
 100 409 l 1
 281 410 l 1
 291 424 301 438 314 454 c 0
 401 563 493 620 590 627 c 1
 591 574 l 1
 554 571 514 556 472 532 c 0
 436 511 395 471 346 410 c 1
EndSplineSet
EndChar

StartChar: uni25CC
Encoding: 153 9676 142
Width: 717
GlyphClass: 2
Flags: HW
LayerCount: 2
Fore
SplineSet
207 313 m 1
 264 400 331 464 407 504 c 1
 429 450 l 1
 363 408 305 357 258 298 c 1
 207 313 l 1
580 521 m 1
 652 481 697 425 718 353 c 1
 659 315 l 1
 634 376 599 425 552 461 c 1
 580 521 l 1
323 -21 m 1
 251 19 206 75 185 147 c 1
 244 184 l 1
 269 123 304 74 351 38 c 1
 323 -21 l 1
685 183 m 1
 628 96 559 33 483 -8 c 1
 462 46 l 1
 528 88 585 139 632 198 c 1
 685 183 l 1
EndSplineSet
EndChar

StartChar: u0981.salt
Encoding: 156 -1 144
Width: 5
GlyphClass: 2
Flags: HW
LayerCount: 2
Fore
SplineSet
40 859 m 0
 47 888 72 912 100 912 c 0
 113 912 125 907 132 897 c 0
 139 887 140 873 137 859 c 0
 134 845 125 831 114 821 c 0
 103 811 89 806 76 806 c 0
 48 806 33 830 40 859 c 0
50 670 m 0
 19 670 -8 677 -26 694 c 0
 -47 713 -55 742 -47 776 c 2
 -45 784 l 1
 -39 790 l 2
 -32 798 -25 804 -17 809 c 0
 -11 813 -3 816 5 816 c 0
 22 816 34 805 44 797 c 1
 43 786 l 2
 42 778 43 774 47 770 c 0
 52 765 56 763 58 763 c 0
 74 763 82 768 86 771 c 0
 88 772 96 782 104 796 c 2
 109 803 l 1
 121 809 132 818 149 818 c 0
 168 818 180 805 186 791 c 2
 190 783 l 1
 186 774 l 2
 176 745 157 719 133 701 c 0
 113 686 90 676 65 670 c 1
 60 670 55 670 50 670 c 0
EndSplineSet
EndChar

StartChar: bn_ja_nya.akhnd
Encoding: 157 -1 145
Width: 821
GlyphClass: 3
Flags: HW
AnchorPoint: "Anchor-1" 388 29 basechar 0
AnchorPoint: "Anchor-0" 344 659 basechar 0
LayerCount: 2
Fore
SplineSet
482 395 m 1
 478 428 467 480 452 553 c 1
 432 540 414 521 396 495 c 0
 378 469 367 443 361 418 c 0
 354 387 357 364 372 348 c 1
 482 395 l 1
693 146 m 1
 709 147 720 157 724 176 c 0
 727 187 724 198 718 207 c 0
 712 216 700 220 684 220 c 1
 666 227 659 240 663 258 c 0
 667 277 680 289 701 296 c 1
 715 298 728 304 740 314 c 0
 752 324 758 334 761 345 c 0
 765 364 755 375 730 378 c 1
 704 372 684 363 668 351 c 0
 655 340 639 322 619 295 c 1
 623 268 619 242 610 218 c 1
 622 195 634 179 643 170 c 0
 656 157 672 149 693 146 c 1
964 590 m 1
 523 590 l 1
 557 411 l 1
 573 402 587 389 597 373 c 5
 650 430 702 459 752 459 c 4
 779 459 801 449 819 429 c 0
 840 406 847 378 839 345 c 0
 832 313 813 286 784 262 c 1
 802 239 807 211 799 177 c 0
 789 132 762 97 720 75 c 0
 707 70 694 68 681 68 c 0
 632 68 591 91 560 138 c 1
 532 104 506 80 483 65 c 0
 454 45 421 33 387 29 c 0
 378 28 371 28 363 28 c 0
 275 28 211 84 170 198 c 0
 137 293 127 395 143 503 c 1
 156 523 169 532 184 532 c 0
 196 532 209 527 220 516 c 1
 210 412 217 319 242 236 c 0
 271 145 315 99 373 99 c 0
 406 99 442 115 481 148 c 1
 511 177 529 209 537 244 c 0
 546 282 540 313 517 336 c 1
 506 333 478 319 434 296 c 0
 399 278 372 269 352 269 c 0
 340 269 330 272 321 277 c 1
 286 318 274 367 288 426 c 0
 302 488 336 542 390 590 c 1
 131 590 l 1
 150 673 l 1
 983 673 l 1
 964 590 l 1
EndSplineSet
LCarets2: 2 0 0
Ligature2: "'akhn' Akhand in Bengali lookup 2 subtable" u099c u09cd u099e
EndChar

StartChar: bn_ka_ssa.akhn
Encoding: 158 -1 146
Width: 775
GlyphClass: 3
Flags: HW
AnchorPoint: "Anchor-1" 520 44 basechar 0
AnchorPoint: "Anchor-0" 425 674 basechar 0
LayerCount: 2
Fore
SplineSet
481 165 m 1xec
 540 420 l 1
 455 464 419 514 432 571 c 0xdc
 434 578 437 584 439 590 c 1
 318 590 l 1
 321 568 317 544 307 517 c 1
 347 510 379 490 401 457 c 0
 423 424 430 387 420 343 c 0
 415 321 405 298 390 275 c 1
 481 165 l 1xec
560 506 m 1
 579 590 l 1
 519 590 l 1
 512 583 507 576 505 569 c 0
 501 550 520 529 560 506 c 1
915 590 m 1
 656 590 l 1
 630 475 l 1
 678 455 716 429 743 398 c 0
 773 365 784 332 776 298 c 0
 765 252 720 212 642 179 c 1
 632 177 624 180 617 189 c 0
 610 198 609 210 612 224 c 0
 614 231 616 237 619 243 c 1
 664 261 689 281 694 302 c 0
 701 332 673 361 610 389 c 1
 538 77 l 2
 536 68 528 59 515 52 c 0
 502 45 490 42 478 42 c 0
 468 42 460 44 457 49 c 2
 330 210 l 1
 304 191 271 171 232 151 c 1
 221 153 213 159 207 168 c 0
 201 177 199 187 202 198 c 0
 204 206 208 213 215 219 c 1
 278 252 320 287 337 322 c 0
 340 329 343 337 345 344 c 0xec
 351 369 346 391 332 411 c 0
 318 431 299 441 276 441 c 0
 271 441 268 441 263 440 c 1
 238 410 203 382 157 357 c 1
 143 356 133 359 126 367 c 0
 119 375 118 386 121 397 c 0
 123 404 126 411 131 417 c 1
 154 428 177 446 201 468 c 0
 226 493 241 517 246 538 c 0
 252 563 241 581 211 590 c 1
 131 590 l 1
 150 673 l 1
 934 673 l 1
 915 590 l 1
EndSplineSet
Ligature2: "'akhn' Akhand in Bengali lookup 2 subtable" u0995 u09cd u09b7
EndChar

StartChar: u09b9_u09cd_u09ae.cjct
Encoding: 159 -1 147
Width: 728
GlyphClass: 3
Flags: HW
AnchorPoint: "Anchor-1" 498 81 basechar 0
AnchorPoint: "Anchor-0" 447 688 basechar 0
LayerCount: 2
Fore
SplineSet
468 201 m 1xbe
 517 415 l 1
 482 413 448 413 414 416 c 1
 417 396 416 375 411 354 c 0
 408 339 402 324 395 309 c 1
 468 201 l 1xbe
535 493 m 1
 558 590 l 1
 306 590 l 1
 310 568 310 549 307 534 c 1
 334 530 356 521 373 505 c 1
 418 494 457 489 489 489 c 0
 506 489 520 490 535 493 c 1
871 590 m 1
 634 590 l 1
 616 511 l 1
 645 519 670 523 690 523 c 0
 709 523 721 520 730 513 c 0
 757 485 760 425 739 334 c 0
 736 322 737 322 731 297 c 0
 725 272 725 272 722 260 c 0
 702 174 703 116 725 86 c 0
 727 81 726 76 725 70 c 0
 722 58 715 48 702 41 c 0
 689 34 675 30 662 32 c 1
 639 59 634 110 645 184 c 1
 658 244 670 303 681 362 c 0
 692 421 686 450 665 450 c 0x7e
 662 450 641 444 598 433 c 1
 520 96 l 1
 447 80 l 1
 343 238 l 1
 312 213 275 192 231 175 c 1
 211 182 203 196 208 217 c 0
 210 225 214 234 221 243 c 1
 286 263 324 301 337 357 c 0
 343 384 340 407 328 427 c 0
 316 447 296 457 268 456 c 1
 247 427 211 395 156 360 c 1
 146 360 138 365 131 376 c 0
 124 387 122 399 125 411 c 0
 126 416 128 421 132 425 c 1
 152 433 174 449 195 472 c 0
 216 495 228 517 233 538 c 0
 241 573 221 590 174 590 c 2
 131 590 l 1
 150 673 l 1
 890 673 l 1
 871 590 l 1
EndSplineSet
Substitution2: "'salt' Stylistic Alternatives in Bengali2 lookup 17-1" u09b9_u09cd_u09ae.salt
Ligature2: "'cjct' Conjunct Forms in Bengali2 lookup 13" u09b9 u09cd u09ae
EndChar

StartChar: u09a4_u09cd_u09a4.cjct
Encoding: 160 -1 148
Width: 643
GlyphClass: 3
Flags: HW
AnchorPoint: "Anchor-1" 417 22 basechar 0
AnchorPoint: "Anchor-0" 388 688 basechar 0
LayerCount: 2
Fore
SplineSet
593 324 m 1xfc
 621 285 630 242 619 194 c 0
 609 149 584 111 544 80 c 0
 502 47 452 31 395 31 c 0
 361 31 326 44 289 70 c 0
 252 96 224 128 200 167 c 0
 151 248 130 365 137 518 c 1
 141 548 156 563 178 563 c 0
 195 563 205 554 210 535 c 1
 211 488 214 441 215 394 c 1
 219 343 229 299 247 260 c 0
 292 161 351 111 423 111 c 0
 436 111 449 112 463 116 c 0
 507 126 534 154 544 197 c 0xfa
 551 229 544 252 524 269 c 1
 501 280 493 294 497 311 c 0
 500 324 512 341 532 360 c 1
 551 374 563 392 568 413 c 0
 573 436 570 457 557 475 c 0
 544 493 526 502 501 502 c 0
 493 502 484 501 476 499 c 1
 440 481 420 455 412 421 c 0
 408 404 407 386 410 365 c 1
 405 335 389 321 364 321 c 0
 352 321 343 326 338 337 c 0
 331 362 330 389 337 418 c 0
 347 461 370 499 404 531 c 0
 438 563 476 579 517 579 c 0
 529 579 540 578 551 575 c 0
 588 566 615 546 631 516 c 0
 647 486 651 452 642 415 c 0
 634 382 618 351 593 324 c 1xfc
778 590 m 1
 131 590 l 1
 150 673 l 1
 797 673 l 1
 778 590 l 1
EndSplineSet
Ligature2: "'cjct' Conjunct Forms in Bengali2 lookup 13" u09a4 u09cd u09a4
EndChar

StartChar: u0995_u09cd.haln
Encoding: 161 -1 149
Width: 657
GlyphClass: 3
Flags: HW
LayerCount: 2
Fore
SplineSet
357 153 m 1
 430 468 l 1
 207 340 l 1
 357 153 l 1
798 590 m 1
 534 590 l 1
 531 574 l 1
 605 565 651 536 672 488 c 0
 684 460 685 425 675 383 c 0
 665 340 648 303 621 272 c 0
 593 239 561 223 528 224 c 1
 500 221 490 232 496 258 c 0
 501 278 513 292 532 299 c 1
 547 297 563 305 577 322 c 0
 591 339 601 359 606 382 c 0
 612 407 611 429 601 446 c 0
 584 477 553 493 512 495 c 1
 413 64 l 2
 409 45 396 35 376 35 c 0
 358 35 347 41 337 52 c 2
 117 320 l 1
 107 328 103 338 106 349 c 0
 109 362 119 373 136 382 c 2
 451 560 l 1
 458 590 l 1
 130 590 l 1
 149 673 l 1
 817 673 l 1
 798 590 l 1
442 15 m 1
 400 -23 l 1
 527 -149 l 1
 567 -106 l 1
 442 15 l 1
EndSplineSet
Ligature2: "'haln' Halant Forms in Bengali lookup 12 subtable" u0995 u09cd
EndChar

StartChar: u0996_u09cd.hln
Encoding: 162 -1 150
Width: 562
GlyphClass: 3
Flags: HW
LayerCount: 2
Fore
SplineSet
723 590 m 1
 654 590 l 1
 534 73 l 2
 532 64 526 57 514 50 c 0
 502 43 490 39 478 39 c 0
 469 39 461 42 456 47 c 2
 205 292 l 1
 201 303 201 313 203 323 c 0
 205 333 209 341 216 348 c 0
 223 355 232 359 239 359 c 0
 274 364 306 379 339 405 c 0
 372 431 392 460 400 494 c 0
 403 509 404 523 402 538 c 1
 362 485 315 458 262 458 c 0
 227 458 191 470 156 494 c 1
 148 502 146 513 149 526 c 0
 152 537 157 546 166 554 c 0
 175 562 185 567 194 567 c 0
 198 567 201 566 205 564 c 0
 230 547 253 538 276 538 c 0
 322 538 353 567 372 625 c 1
 377 652 391 665 412 665 c 0
 420 665 428 662 434 657 c 0
 478 620 490 563 469 486 c 0
 447 404 393 344 309 306 c 1
 476 149 l 1
 582 608 l 2
 592 651 616 673 655 673 c 2
 743 673 l 1
 723 590 l 1
508 10 m 1
 466 -28 l 1
 593 -154 l 1
 633 -111 l 1
 508 10 l 1
EndSplineSet
Ligature2: "'haln' Halant Forms in Bengali lookup 12 subtable" u0996 u09cd
EndChar

StartChar: u0996_u09cd.haln
Encoding: 163 -1 151
Width: 558
GlyphClass: 3
Flags: HW
LayerCount: 2
Fore
SplineSet
716 589 m 1xb4
 646 589 l 1xb8
 524 60 l 2
 519 40 504 30 479 30 c 0
 454 30 443 40 448 60 c 2
 521 380 l 2
 530 419 528 452 515 479 c 0
 488 534 446 561 388 561 c 0
 335 561 288 537 245 490 c 1
 296 491 333 473 356 437 c 0
 377 404 383 364 372 316 c 0
 356 245 313 192 245 156 c 0
 240 155 235 154 230 154 c 0
 220 154 211 158 204 165 c 0
 197 172 196 181 198 191 c 0
 201 202 208 212 219 221 c 1
 262 244 289 276 298 316 c 0
 304 342 301 365 289 384 c 0
 277 403 258 413 234 413 c 0
 216 413 198 407 178 396 c 0
 165 389 154 385 144 385 c 0
 125 385 119 396 124 417 c 0
 125 423 129 429 132 436 c 0
 159 493 191 537 229 569 c 0
 264 598 308 619 362 634 c 0
 382 638 399 639 417 639 c 0
 479 639 529 614 564 565 c 1xd8
 589 673 l 1
 735 673 l 1
 716 589 l 1xb4
505 0 m 1
 464 -38 l 1
 591 -164 l 1
 631 -121 l 1
 505 0 l 1
EndSplineSet
Ligature2: "'haln' Halant Forms in Bengali lookup 12 subtable" u0997 u09cd
EndChar

StartChar: u0998_u09cd.haln
Encoding: 164 -1 152
Width: 510
GlyphClass: 3
Flags: HW
LayerCount: 2
Fore
SplineSet
396 149 m 1
 498 590 l 1
 264 590 l 1
 241 577 228 561 223 541 c 0
 220 526 221 512 231 501 c 0
 241 490 253 484 270 484 c 0
 276 484 281 486 290 488 c 0
 299 490 305 491 310 491 c 0
 320 491 328 487 333 479 c 0
 338 471 339 462 337 452 c 0
 335 442 329 433 321 425 c 2
 212 318 l 1
 396 149 l 1
644 590 m 1
 574 590 l 1
 455 71 l 2
 453 63 447 55 436 49 c 0
 425 43 413 39 402 39 c 0
 392 39 383 42 377 47 c 2
 128 279 l 1
 117 285 113 294 116 307 c 0
 118 316 123 326 133 335 c 2
 210 411 l 1
 186 419 167 434 156 457 c 0
 145 480 142 506 149 536 c 0
 153 554 161 572 172 590 c 1
 128 590 l 1
 147 673 l 1
 663 673 l 1
 644 590 l 1
456 15 m 1
 414 -23 l 1
 541 -149 l 1
 581 -106 l 1
 456 15 l 1
EndSplineSet
Ligature2: "'haln' Halant Forms in Bengali lookup 12 subtable" u0998 u09cd
EndChar

StartChar: u0999_u09cd.haln
Encoding: 165 -1 153
Width: 583
GlyphClass: 3
Flags: HW
LayerCount: 2
Fore
SplineSet
542 553 m 1
 547 565 544 575 536 583 c 0
 529 589 519 592 507 591 c 0
 472 584 441 556 415 507 c 1
 433 503 447 501 458 501 c 0
 491 501 520 518 542 553 c 1
617 606 m 1
 618 592 618 578 615 563 c 0
 608 532 591 503 565 477 c 0
 539 451 511 435 482 428 c 0
 467 424 453 423 438 423 c 0
 418 423 399 426 381 433 c 1
 375 411 372 399 371 396 c 0
 369 381 371 367 376 354 c 1
 509 416 l 1
 526 429 546 433 568 426 c 1
 622 376 641 316 625 248 c 0
 612 192 580 143 529 101 c 0
 478 59 426 38 371 38 c 0
 312 38 262 62 219 110 c 0
 182 151 158 200 148 255 c 0
 139 308 137 391 144 506 c 1
 152 529 165 541 184 541 c 0
 198 541 208 533 214 518 c 1
 208 416 212 339 224 286 c 0
 234 240 252 201 280 169 c 0
 311 132 347 114 387 114 c 0
 415 114 442 123 472 143 c 0
 517 172 544 207 553 248 c 0
 562 286 554 320 528 350 c 1
 344 256 l 1
 302 297 288 342 299 391 c 0
 301 398 303 406 306 413 c 1
 308 426 313 441 320 457 c 1
 254 496 215 550 204 621 c 0
 204 625 205 629 206 632 c 0
 211 654 226 665 249 665 c 0
 257 665 265 662 271 657 c 1
 289 596 317 554 352 532 c 1
 371 565 397 595 429 622 c 0
 465 651 495 668 524 671 c 0
 568 676 598 654 617 606 c 1
413 10 m 1
 371 -28 l 1
 499 -154 l 1
 538 -111 l 1
 413 10 l 1
EndSplineSet
Ligature2: "'haln' Halant Forms in Bengali lookup 12 subtable" u0989 u09cd
EndChar

StartChar: u099a_u09cd.haln
Encoding: 166 -1 154
Width: 440
GlyphClass: 3
Flags: HW
LayerCount: 2
Fore
SplineSet
608 588 m 1
 305 588 l 1
 299 562 l 1
 309 528 330 501 363 480 c 1
 391 466 420 452 448 438 c 0
 476 422 489 401 488 374 c 0
 487 363 485 350 482 337 c 0
 468 276 433 215 378 152 c 0
 323 89 269 49 216 34 c 0
 211 33 207 32 201 32 c 0
 178 32 160 41 144 58 c 0
 126 79 119 105 127 139 c 2
 232 594 l 1
 227 590 l 1
 133 590 l 1
 153 673 l 1
 247 673 l 1
 250 671 l 1
 627 671 l 1
 608 588 l 1
414 355 m 1
 410 370 390 384 353 397 c 0
 310 412 282 425 270 438 c 1
 203 147 l 2
 197 123 202 111 218 111 c 0
 225 111 233 114 244 120 c 0
 274 137 307 166 342 207 c 0
 380 253 403 294 411 330 c 0
 413 339 414 347 414 355 c 1
268 10 m 1
 226 -28 l 1
 353 -154 l 1
 394 -111 l 1
 268 10 l 1
EndSplineSet
Ligature2: "'haln' Halant Forms in Bengali lookup 12 subtable" u099a u09cd
EndChar

StartChar: u099b_u09cd.haln
Encoding: 167 -1 155
Width: 559
GlyphClass: 3
Flags: HW
LayerCount: 2
Fore
SplineSet
641 34 m 1
 643 23 644 13 642 4 c 0
 636 -21 618 -32 588 -28 c 1
 510 43 384 82 214 90 c 1
 205 101 204 116 208 134 c 0
 212 150 220 160 232 165 c 1
 280 171 311 176 328 181 c 0
 361 189 392 205 421 226 c 1
 448 243 475 267 500 297 c 0
 527 330 545 360 551 387 c 0
 559 422 549 446 519 459 c 1
 509 402 472 351 410 306 c 0
 354 266 300 246 251 246 c 0
 200 246 181 270 192 318 c 2
 255 592 l 1
 243 591 l 1
 134 590 l 1
 154 673 l 1
 303 673 l 2
 306 673 306 673 339 673 c 2
 753 673 l 1
 734 589 l 1
 333 589 l 1
 336 574 352 561 382 553 c 0
 406 546 434 543 465 543 c 0
 482 543 495 544 506 546 c 1
 554 543 587 526 607 495 c 0
 624 466 629 430 619 387 c 0
 607 335 579 286 537 239 c 0
 495 192 454 160 415 145 c 1
 504 128 579 91 641 34 c 1
443 435 m 0
 444 456 428 468 394 474 c 0
 346 481 318 488 308 494 c 1
 269 323 l 2
 266 309 270 302 282 302 c 0
 302 302 334 319 376 353 c 0
 418 387 441 415 443 435 c 0
420 -39 m 1
 378 -77 l 1
 506 -203 l 1
 545 -160 l 1
 420 -39 l 1
EndSplineSet
Ligature2: "'haln' Halant Forms in Bengali lookup 12 subtable" u099b u09cd
EndChar

StartChar: u099c_u09cd.haln
Encoding: 168 -1 156
Width: 780
GlyphClass: 3
Flags: HW
LayerCount: 2
Fore
SplineSet
918 590 m 1
 674 590 l 1
 820 476 l 1
 833 471 838 461 834 444 c 0
 832 437 829 431 824 424 c 0
 772 342 740 274 728 222 c 0
 715 165 717 101 734 31 c 1
 727 -1 710 -17 684 -17 c 0
 677 -17 670 -15 663 -12 c 1
 641 76 640 154 655 221 c 0
 668 277 698 345 746 424 c 1
 537 592 l 1
 505 575 475 552 449 523 c 0
 423 494 407 467 401 441 c 0
 395 416 402 396 418 382 c 1
 450 394 480 406 511 417 c 0
 549 431 580 438 603 437 c 1
 646 396 660 344 645 279 c 0
 628 206 583 150 511 112 c 0
 465 88 422 76 382 76 c 0
 288 76 218 136 170 254 c 1
 158 272 149 306 144 355 c 0
 138 407 139 459 145 509 c 1
 151 536 164 550 184 550 c 0
 198 550 209 543 218 528 c 1
 204 434 212 352 245 281 c 0
 284 196 337 153 404 153 c 0
 442 153 481 169 521 201 c 0
 549 223 567 250 574 281 c 0
 581 312 577 339 562 363 c 1
 553 360 522 349 471 329 c 0
 435 314 407 306 386 305 c 1
 334 331 317 376 332 440 c 0
 344 491 371 541 417 590 c 1
 126 590 l 1
 144 673 l 1
 937 673 l 1
 918 590 l 1
641 -29 m 1
 600 -67 l 1
 727 -193 l 1
 766 -150 l 1
 641 -29 l 1
EndSplineSet
Ligature2: "'haln' Halant Forms in Bengali lookup 12 subtable" u099c u09cd
EndChar

StartChar: u099d_u09cd.haln
Encoding: 169 -1 157
Width: 648
GlyphClass: 3
Flags: HW
LayerCount: 2
Fore
SplineSet
348 154 m 1
 420 466 l 1
 201 340 l 1
 348 154 l 1
787 590 m 1
 715 590 l 1
 616 168 l 2
 612 149 596 139 567 139 c 0
 553 139 544 143 539 150 c 2
 447 251 l 1
 404 66 l 2
 401 55 396 47 385 40 c 0
 374 33 363 30 351 30 c 0
 339 30 331 34 325 41 c 2
 108 319 l 2
 104 325 104 333 107 346 c 0
 111 363 119 375 131 382 c 2
 442 560 l 1
 449 590 l 1
 131 590 l 1
 150 673 l 1
 478 673 l 2
 522 673 539 649 528 601 c 2
 471 355 l 1
 562 263 l 1
 640 601 l 2
 651 649 679 673 723 673 c 2
 806 673 l 1
 787 590 l 1
445 -10 m 1
 404 -47 l 1
 531 -173 l 1
 571 -130 l 1
 445 -10 l 1
EndSplineSet
Ligature2: "'haln' Halant Forms in Bengali lookup 12 subtable" u099d u09cd
EndChar

StartChar: u099e_u09cd.haln
Encoding: 170 -1 158
Width: 886
GlyphClass: 3
Flags: HW
LayerCount: 2
Fore
SplineSet
582 67 m 2x7e
 580 59 572 52 559 46 c 0
 546 40 532 36 520 36 c 0
 510 36 505 39 502 44 c 0
 479 96 439 122 384 122 c 0x7e
 366 122 339 119 301 112 c 0
 263 105 235 101 216 101 c 0
 201 101 188 103 175 106 c 0
 133 123 107 150 96 185 c 0
 86 216 88 258 100 309 c 0
 105 329 110 352 119 377 c 1
 134 388 147 393 158 393 c 0
 170 393 180 386 189 372 c 1
 177 330 171 307 170 303 c 0
 159 254 165 217 191 194 c 0
 204 182 222 176 245 176 c 0xbe
 259 176 284 179 319 186 c 0
 354 193 381 196 401 196 c 0
 450 196 491 180 525 149 c 1
 612 528 l 2
 621 567 613 586 589 586 c 0
 575 586 554 579 529 566 c 0
 466 535 429 490 415 431 c 0
 409 404 407 373 410 337 c 1
 402 313 386 301 361 301 c 0
 349 301 339 305 334 314 c 1
 327 349 330 386 338 422 c 0
 351 477 377 527 418 571 c 0
 459 615 505 643 561 658 c 0
 576 664 591 667 605 667 c 0
 632 667 655 655 675 632 c 0
 695 609 700 575 690 532 c 2
 665 435 l 1
 691 470 717 500 741 524 c 0
 784 568 827 591 871 594 c 1
 904 591 929 578 946 554 c 0
 963 530 968 502 961 471 c 0x7e80
 953 438 932 409 901 382 c 1
 927 353 935 319 926 278 c 0
 914 224 879 190 822 174 c 0
 813 173 805 172 798 172 c 0
 721 172 674 232 657 352 c 1x7d40
 582 67 l 2x7e
821 251 m 1
 836 260 845 271 848 284 c 0x3c40
 851 298 847 311 836 323 c 0
 825 335 811 340 795 340 c 1
 779 351 772 364 775 379 c 0
 778 394 789 406 807 417 c 1
 825 420 842 427 856 440 c 0
 870 453 879 466 882 479 c 0x3c80
 888 503 875 515 845 514 c 0
 825 513 803 498 776 467 c 0
 768 458 749 431 718 387 c 1
 722 350 734 319 750 293 c 0
 769 260 793 246 821 251 c 1
556 0 m 1
 514 -38 l 1
 641 -164 l 1
 681 -121 l 1
 556 0 l 1
EndSplineSet
Ligature2: "'haln' Halant Forms in Bengali lookup 12 subtable" u099e u09cd
EndChar

StartChar: u099f_u09cd.haln
Encoding: 171 -1 159
Width: 508
GlyphClass: 3
Flags: HW
LayerCount: 2
Fore
SplineSet
653 588 m 1
 341 588 l 1
 248 184 l 2
 245 171 246 159 252 150 c 0
 258 141 268 136 280 136 c 0
 300 136 322 146 348 168 c 1
 407 227 441 277 451 319 c 0
 452 325 453 331 453 337 c 0
 455 355 453 369 444 379 c 0
 435 389 426 398 417 407 c 1
 415 412 414 416 416 423 c 0
 419 434 425 445 435 454 c 0
 445 463 458 468 470 468 c 1
 518 426 535 379 523 327 c 0
 508 264 471 200 413 136 c 0
 351 68 293 34 242 34 c 0
 217 34 198 48 181 76 c 0
 164 104 160 134 168 167 c 2
 265 588 l 1
 256 590 l 1
 133 590 l 1
 152 673 l 1
 275 673 l 1
 349 671 l 1
 550 671 l 1
 567 717 531 740 440 740 c 0
 427 740 411 739 393 738 c 0
 375 737 366 736 364 736 c 0
 280 745 227 758 205 773 c 0
 173 797 164 846 177 920 c 1
 182 938 197 947 218 947 c 0
 234 947 243 941 248 930 c 1
 238 884 246 852 271 835 c 0
 290 823 323 817 372 816 c 2
 443 816 l 2
 505 815 550 807 578 792 c 0
 619 769 635 729 624 671 c 1
 672 671 l 1
 653 588 l 1
256 -5 m 1
 215 -42 l 1
 342 -168 l 1
 382 -125 l 1
 256 -5 l 1
EndSplineSet
Ligature2: "'haln' Halant Forms in Bengali lookup 12 subtable" u099f u09cd
EndChar

StartChar: u09a0_u09cd.haln
Encoding: 172 -1 160
Width: 467
GlyphClass: 3
Flags: HW
LayerCount: 2
Fore
SplineSet
316 157 m 0xf6
 368 200 400 252 414 311 c 0
 429 374 421 442 392 516 c 1
 363 393 285 303 157 246 c 1
 149 207 151 176 164 152 c 0
 177 128 198 116 225 116 c 0
 254 116 284 130 316 157 c 0xf6
616 590 m 1
 443 590 l 1
 490 490 501 393 480 300 c 0
 465 234 432 175 382 123 c 0
 327 67 270 39 210 39 c 0
 188 39 166 44 145 52 c 0
 122 62 106 88 93 129 c 0
 80 170 78 209 87 246 c 0xf6
 93 273 104 294 121 307 c 1
 180 331 227 360 259 393 c 0
 291 426 313 469 325 522 c 0
 330 543 333 566 335 590 c 1
 131 590 l 1
 150 673 l 1
 320 673 l 1
 312 705 303 737 294 768 c 0
 283 807 277 843 274 874 c 0
 272 899 274 921 279 941 c 0
 293 1001 335 1038 409 1052 c 1
 428 1045 435 1030 429 1005 c 0
 426 990 419 980 408 976 c 1
 375 976 356 963 350 937 c 0xee
 346 919 349 887 358 841 c 0
 367 800 381 744 403 673 c 1
 635 673 l 1
 616 590 l 1
293 20 m 1
 252 -18 l 1
 379 -144 l 1
 419 -101 l 1
 293 20 l 1
EndSplineSet
Ligature2: "'haln' Halant Forms in Bengali lookup 12 subtable" u09a0 u09cd
EndChar

StartChar: u09a1_u09cd.haln
Encoding: 173 -1 161
Width: 689
GlyphClass: 3
Flags: HW
LayerCount: 2
Fore
SplineSet
431 -10 m 1
 390 -47 l 1
 517 -173 l 1
 557 -130 l 1
 431 -10 l 1
819 590 m 1
 475 590 l 1
 420 354 l 1
 422 345 426 340 433 340 c 0
 456 340 507 384 582 473 c 0
 589 481 599 486 611 486 c 0
 627 486 640 480 649 467 c 0
 686 418 698 363 683 300 c 0
 675 267 661 231 640 192 c 1
 571 89 493 37 410 35 c 0
 359 34 311 51 269 87 c 0
 234 116 208 152 192 194 c 0
 163 270 146 370 141 495 c 0
 142 505 148 513 157 521 c 0
 166 529 177 533 188 533 c 0
 200 533 209 528 215 519 c 1
 223 412 234 335 248 289 c 1
 257 240 278 200 310 166 c 0
 342 132 378 115 419 115 c 0
 465 115 509 137 552 181 c 1
 580 214 599 251 608 292 c 0
 617 331 615 364 602 392 c 1
 557 350 524 321 502 306 c 0
 462 278 426 264 393 264 c 1
 347 272 333 311 349 381 c 2
 398 590 l 1
 131 590 l 1
 150 673 l 1
 838 673 l 1
 819 590 l 1
EndSplineSet
Ligature2: "'haln' Halant Forms in Bengali lookup 12 subtable" u09a1 u09cd
EndChar

StartChar: u09a2_u09cd.haln
Encoding: 174 -1 162
Width: 463
GlyphClass: 3
Flags: HW
LayerCount: 2
Fore
SplineSet
622 587 m 1
 315 587 l 1
 221 181 l 2
 218 168 219 155 225 146 c 0
 231 137 242 132 255 132 c 0
 275 132 296 144 320 166 c 0
 383 224 418 280 425 333 c 0
 427 350 424 364 415 374 c 0
 406 384 397 393 388 401 c 1
 386 406 386 411 388 418 c 0
 391 429 397 439 407 448 c 0
 417 457 428 461 440 461 c 1
 463 439 479 420 487 402 c 0
 497 379 500 353 493 322 c 0
 479 260 442 198 384 134 c 0
 323 67 267 33 217 33 c 0
 193 33 172 46 156 74 c 0
 140 102 135 132 143 165 c 2
 244 599 l 1
 240 590 l 1
 131 590 l 1
 150 673 l 1
 260 673 l 2
 260 671 281 670 324 670 c 2
 641 670 l 1
 622 587 l 1
373 -10 m 1
 332 -47 l 1
 459 -173 l 1
 498 -130 l 1
 373 -10 l 1
EndSplineSet
Ligature2: "'haln' Halant Forms in Bengali lookup 12 subtable" u09a2 u09cd
EndChar

StartChar: u09a3_u09cd.haln
Encoding: 175 -1 163
Width: 473
GlyphClass: 3
Flags: HW
LayerCount: 2
Fore
SplineSet
622 590 m 1xb8
 555 590 l 1xb8
 436 77 l 2
 431 55 417 44 394 44 c 0
 384 44 375 47 368 53 c 0
 361 59 359 67 361 76 c 2
 438 411 l 2
 441 426 442 451 444 486 c 0
 445 509 436 529 416 546 c 0
 396 563 372 572 345 572 c 0
 316 572 291 562 267 543 c 0
 237 519 220 490 212 457 c 0
 206 429 208 404 219 383 c 0
 230 362 247 350 270 349 c 1
 280 346 285 337 281 321 c 0
 278 310 273 299 264 289 c 0
 255 279 246 274 238 274 c 0
 173 288 140 328 136 393 c 0
 134 414 137 436 142 458 c 0
 152 503 174 543 207 578 c 0
 240 613 278 634 324 642 c 0
 344 646 363 648 379 648 c 0xd8
 419 648 454 632 483 601 c 1
 501 649 527 673 563 673 c 2
 641 673 l 1
 622 590 l 1xb8
423 -5 m 1
 381 -42 l 1
 508 -168 l 1
 549 -125 l 1
 423 -5 l 1
EndSplineSet
Ligature2: "'haln' Halant Forms in Bengali lookup 12 subtable" u09a3 u09cd
EndChar

StartChar: u09a4_u09cd.haln
Encoding: 176 -1 164
Width: 622
GlyphClass: 3
Flags: HW
LayerCount: 2
Fore
SplineSet
659 252 m 0
 632 188 598 137 556 99 c 0
 511 58 463 38 411 38 c 0
 398 38 385 39 372 42 c 0
 323 52 284 71 255 99 c 0
 239 115 221 143 200 183 c 0
 149 280 131 390 146 515 c 0
 146 525 150 534 160 541 c 0
 170 548 181 552 192 552 c 0
 208 552 216 545 219 532 c 1
 219 451 220 398 223 371 c 0
 230 318 246 268 270 223 c 0
 289 188 309 163 328 150 c 0
 341 141 366 130 404 117 c 0
 410 116 415 116 422 116 c 0
 467 116 506 136 539 175 c 0
 568 210 591 255 606 312 c 0
 620 365 618 407 600 437 c 0
 583 465 555 477 516 474 c 1
 480 467 457 446 449 411 c 0
 446 396 446 382 452 370 c 1
 449 359 444 349 434 340 c 0
 424 331 413 327 403 327 c 0
 395 327 388 330 382 335 c 1
 372 362 371 388 377 415 c 0
 386 453 407 485 443 512 c 0
 476 538 511 551 547 551 c 0
 606 552 648 528 671 479 c 0
 692 435 694 380 679 315 c 0
 674 294 668 273 659 252 c 0
812 590 m 1
 131 590 l 1
 150 673 l 1
 831 673 l 1
 812 590 l 1
461 20 m 1
 420 -18 l 1
 547 -144 l 1
 587 -101 l 1
 461 20 l 1
EndSplineSet
Ligature2: "'haln' Halant Forms in Bengali lookup 12 subtable" u09a4 u09cd
EndChar

StartChar: u09a5_u09cd.haln
Encoding: 177 -1 165
Width: 529
GlyphClass: 3
Flags: HW
LayerCount: 2
Fore
SplineSet
671 590 m 1x78
 603 590 l 1x78
 482 69 l 2
 480 61 474 55 462 49 c 0
 450 43 439 40 427 40 c 0
 417 40 410 42 405 47 c 2
 181 269 l 1
 179 280 180 292 182 302 c 0
 186 318 194 327 205 332 c 0
 238 345 270 368 302 402 c 0
 334 436 353 467 360 498 c 0
 368 534 356 559 324 573 c 1
 314 574 304 575 296 575 c 0
 250 575 217 545 200 483 c 0
 193 465 179 456 157 456 c 0
 139 456 131 463 129 476 c 1
 148 585 203 644 292 653 c 0
 300 654 307 654 314 654 c 0xb8
 360 654 393 640 414 611 c 0
 435 582 440 545 430 500 c 0
 421 463 404 425 377 387 c 0
 359 360 325 329 276 294 c 1
 424 145 l 1
 529 601 l 2
 535 625 546 644 564 657 c 0
 578 667 595 673 612 673 c 2
 690 673 l 1
 671 590 l 1x78
489 5 m 1
 448 -33 l 1
 575 -159 l 1
 615 -116 l 1
 489 5 l 1
EndSplineSet
Ligature2: "'haln' Halant Forms in Bengali lookup 12 subtable" u09a5 u09cd
EndChar

StartChar: u09a6_u09cd.haln
Encoding: 178 -1 166
Width: 424
GlyphClass: 3
Flags: HW
LayerCount: 2
Fore
SplineSet
552 590 m 1
 247 590 l 1
 203 401 l 1
 236 428 272 453 310 476 c 0
 359 505 394 519 418 519 c 0
 422 519 425 519 428 518 c 0
 455 516 463 501 454 472 c 1
 406 387 376 317 363 262 c 0
 349 202 350 142 365 82 c 1
 364 65 356 53 340 46 c 0
 327 39 313 37 296 40 c 1
 276 110 274 182 291 255 c 0
 302 304 323 359 353 420 c 1
 291 393 228 349 166 288 c 1
 156 282 145 279 135 279 c 0
 112 279 102 290 107 311 c 2
 172 590 l 1
 131 590 l 1
 150 673 l 1
 571 673 l 1
 552 590 l 1
421 24 m 1
 380 -13 l 1
 507 -139 l 1
 547 -96 l 1
 421 24 l 1
EndSplineSet
Ligature2: "'haln' Halant Forms in Bengali lookup 12 subtable" u09a6 u09cd
EndChar

StartChar: u09a7_u09cd.haln
Encoding: 179 -1 167
Width: 465
GlyphClass: 3
Flags: HW
LayerCount: 2
Fore
SplineSet
342 152 m 1
 416 469 l 1
 197 341 l 1
 342 152 l 1
586 590 m 1
 519 590 l 1
 397 61 l 2
 395 54 389 48 378 43 c 0
 367 38 355 36 343 36 c 0
 334 36 326 38 321 42 c 2
 109 321 l 2
 106 328 105 336 108 347 c 0
 111 362 120 376 132 387 c 1
 205 428 l 1
 172 450 154 483 149 525 c 1
 150 534 151 543 153 551 c 0
 162 592 183 622 219 643 c 0
 250 662 286 671 327 671 c 1
 341 666 346 655 342 638 c 0
 337 615 327 600 311 593 c 1
 260 593 232 580 226 554 c 0
 225 548 225 543 225 536 c 0
 236 502 258 486 293 486 c 0
 299 486 303 486 308 487 c 1
 437 563 l 1
 446 601 l 2
 457 649 484 673 527 673 c 2
 605 673 l 1
 586 590 l 1
428 0 m 1
 387 -38 l 1
 514 -164 l 1
 554 -121 l 1
 428 0 l 1
EndSplineSet
Ligature2: "'haln' Halant Forms in Bengali lookup 12 subtable" u09a7 u09cd
EndChar

StartChar: u09a8_u09cd.haln
Encoding: 180 -1 168
Width: 491
GlyphClass: 3
Flags: HW
LayerCount: 2
Fore
SplineSet
625 589 m 1
 557 589 l 1
 434 56 l 2
 430 40 417 32 392 32 c 0
 367 32 355 40 359 56 c 2
 406 260 l 1
 407 295 401 322 390 341 c 0
 379 360 359 372 330 378 c 0
 321 380 312 381 302 381 c 0
 271 381 245 372 221 353 c 0
 196 333 178 307 171 275 c 0
 169 267 169 259 168 251 c 0
 166 232 168 217 174 206 c 0
 180 195 190 184 207 173 c 1
 211 166 213 159 211 150 c 0
 208 138 201 127 191 118 c 0
 181 109 171 106 161 108 c 1
 124 126 103 154 96 192 c 0
 91 220 91 248 98 277 c 0
 109 323 131 362 166 396 c 0
 201 430 241 449 288 456 c 0
 301 458 314 459 326 459 c 0
 374 459 412 443 441 411 c 1
 482 589 l 1
 131 589 l 1
 150 673 l 1
 645 673 l 1
 625 589 l 1
451 15 m 1
 410 -23 l 1
 537 -149 l 1
 576 -106 l 1
 451 15 l 1
EndSplineSet
Ligature2: "'haln' Halant Forms in Bengali lookup 12 subtable" u09a8 u09cd
EndChar

StartChar: u09aa_u09cd.haln
Encoding: 181 -1 169
Width: 625
GlyphClass: 3
Flags: HW
LayerCount: 2
Fore
SplineSet
498 535 m 1
 471 569 439 586 404 586 c 0
 369 586 328 569 286 534 c 1
 354 411 l 1
 498 535 l 1
760 589 m 1
 693 589 l 1
 571 61 l 2
 567 44 553 35 528 35 c 0
 502 35 491 43 495 60 c 2
 556 327 l 2
 565 364 558 414 534 477 c 1
 287 267 l 1
 283 266 279 266 275 266 c 0
 263 266 255 270 248 278 c 0
 241 286 241 296 244 308 c 0
 245 313 246 317 248 322 c 1
 288 357 l 1
 228 468 l 1
 198 431 l 1
 191 427 186 426 179 426 c 0
 169 426 160 430 153 439 c 0
 146 448 143 458 145 469 c 1
 213 573 291 638 385 661 c 0
 400 665 414 667 428 667 c 0
 501 667 562 622 604 531 c 1
 619 600 l 2
 624 620 634 637 650 651 c 0
 666 665 682 673 700 673 c 2
 780 673 l 1
 760 589 l 1
541 0 m 1
 500 -38 l 1
 627 -164 l 1
 668 -121 l 1
 541 0 l 1
EndSplineSet
LCarets2: 1 0
Ligature2: "'haln' Halant Forms in Bengali lookup 12 subtable" u09aa u09cd
EndChar

StartChar: u09ab_u09cd.haln
Encoding: 182 -1 170
Width: 617
GlyphClass: 3
Flags: HW
LayerCount: 2
Fore
SplineSet
782 590 m 1
 244 590 l 1
 317 465 l 1
 318 454 318 444 316 436 c 0
 313 424 307 415 296 408 c 1
 192 323 l 1
 347 152 l 1
 430 509 l 2
 440 552 457 573 482 573 c 0
 588 573 650 541 667 476 c 0
 674 448 674 419 667 388 c 0
 658 347 638 310 608 278 c 0
 578 246 549 229 521 226 c 1
 501 229 494 243 500 270 c 0
 504 287 513 299 528 305 c 1
 540 304 552 311 565 328 c 0
 578 345 588 364 593 387 c 0
 598 407 598 425 594 442 c 0
 585 477 554 495 503 498 c 1
 404 73 l 1
 401 50 387 38 360 38 c 0
 346 38 335 43 327 51 c 2
 107 292 l 1
 104 302 103 312 105 321 c 0
 108 333 115 344 127 355 c 2
 233 440 l 1
 142 590 l 1
 114 590 l 1
 134 673 l 1
 801 673 l 1
 782 590 l 1
451 15 m 1
 410 -23 l 1
 537 -149 l 1
 577 -106 l 1
 451 15 l 1
EndSplineSet
Ligature2: "'haln' Halant Forms in Bengali lookup 12 subtable" u09ab u09cd
EndChar

StartChar: u09ac_u09cd.haln
Encoding: 183 -1 171
Width: 450
GlyphClass: 3
Flags: HW
LayerCount: 2
Fore
SplineSet
347 161 m 1
 419 475 l 1
 200 346 l 1
 347 161 l 1
589 590 m 1
 521 590 l 1
 401 71 l 2
 397 63 390 55 380 49 c 0
 370 43 359 39 350 39 c 0
 339 39 331 43 324 51 c 2
 111 324 l 2
 106 330 105 339 108 351 c 0
 112 367 119 378 129 384 c 2
 440 564 l 1
 446 590 l 1
 131 590 l 1
 150 673 l 1
 608 673 l 1
 589 590 l 1
404 10 m 1
 363 -28 l 1
 490 -154 l 1
 530 -111 l 1
 404 10 l 1
EndSplineSet
Ligature2: "'haln' Halant Forms in Bengali lookup 12 subtable" u09ac u09cd
EndChar

StartChar: u09ad_u09cd.haln
Encoding: 184 -1 172
Width: 744
GlyphClass: 3
Flags: HW
LayerCount: 2
Fore
SplineSet
688 175 m 0
 610 74 525 24 432 24 c 0
 327 24 249 89 196 219 c 0
 174 275 159 328 153 378 c 0
 148 425 149 484 155 556 c 1
 164 576 178 586 197 586 c 0
 207 586 216 583 227 577 c 1
 219 492 224 411 244 332 c 0
 259 274 280 226 309 187 c 0
 347 136 394 111 449 111 c 0
 471 111 495 115 519 124 c 0
 552 136 584 158 613 188 c 0
 642 218 660 250 668 285 c 0
 675 317 671 347 658 374 c 1
 605 323 559 292 517 284 c 0
 504 281 492 280 482 280 c 0
 443 280 415 294 398 323 c 0
 381 352 378 388 387 429 c 0
 391 448 398 466 407 484 c 1
 419 494 430 499 440 499 c 0
 456 499 467 489 477 470 c 1
 471 454 466 440 463 428 c 0
 452 380 465 357 501 357 c 0
 506 357 511 357 516 358 c 0
 542 365 565 378 587 399 c 0
 597 408 613 426 636 455 c 1
 645 468 657 475 677 475 c 0
 687 475 695 472 700 465 c 0
 744 408 757 348 743 286 c 0
 734 249 716 212 688 175 c 0
879 590 m 1
 131 590 l 1
 150 673 l 1
 899 673 l 1
 879 590 l 1
548 5 m 1
 507 -33 l 1
 634 -159 l 1
 674 -116 l 1
 548 5 l 1
EndSplineSet
Ligature2: "'haln' Halant Forms in Bengali lookup 12 subtable" u09ad u09cd
EndChar

StartChar: u09ae_u09cd.haln
Encoding: 185 -1 173
Width: 523
GlyphClass: 3
Flags: HW
LayerCount: 2
Fore
SplineSet
468 350 m 1
 523 590 l 1
 282 590 l 1
 249 548 l 1
 279 541 301 527 317 506 c 0
 333 485 339 458 334 426 c 1
 387 427 432 401 468 350 c 1
667 590 m 1
 599 590 l 1
 478 64 l 2
 474 48 460 40 437 40 c 0
 410 40 398 48 402 65 c 2
 412 108 l 2
 433 200 429 265 398 302 c 0
 374 332 345 346 309 346 c 0
 265 346 230 324 200 280 c 1
 194 268 190 256 187 244 c 0
 180 215 183 191 194 171 c 0
 206 150 225 139 254 139 c 1
 264 133 267 122 263 105 c 0
 260 94 257 84 249 75 c 0
 241 66 234 62 227 63 c 0
 152 68 113 113 110 196 c 1
 111 214 114 230 117 245 c 0
 133 314 181 370 259 411 c 1
 264 436 255 454 235 464 c 0
 218 472 198 475 172 473 c 1
 149 478 139 492 145 516 c 0
 146 521 149 526 151 531 c 2
 197 590 l 1
 131 590 l 1
 150 673 l 1
 687 673 l 1
 667 590 l 1
450 10 m 1
 408 -28 l 1
 536 -154 l 1
 575 -111 l 1
 450 10 l 1
EndSplineSet
Ligature2: "'haln' Halant Forms in Bengali lookup 12 subtable" u09ae u09cd
EndChar

StartChar: u09af_u09cd.haln
Encoding: 186 -1 174
Width: 469
GlyphClass: 3
Flags: HW
LayerCount: 2
Fore
SplineSet
351 143 m 1
 454 590 l 1
 254 590 l 1
 324 454 l 2
 326 447 326 438 324 430 c 0
 321 417 315 408 307 401 c 2
 178 304 l 1
 351 143 l 1
598 590 m 1
 530 590 l 1
 409 69 l 2
 404 46 388 34 359 34 c 0
 347 34 338 37 332 43 c 2
 94 271 l 2
 86 278 84 288 87 299 c 0
 89 309 94 319 103 329 c 1
 243 438 l 1
 160 590 l 1
 131 590 l 1
 150 673 l 1
 617 673 l 1
 598 590 l 1
429 0 m 1
 388 -38 l 1
 515 -164 l 1
 554 -121 l 1
 429 0 l 1
EndSplineSet
Ligature2: "'haln' Halant Forms in Bengali lookup 12 subtable" u09af u09cd
EndChar

StartChar: u09b0_u09cd.haln
Encoding: 187 -1 175
Width: 451
GlyphClass: 3
Flags: HW
LayerCount: 2
Fore
SplineSet
347 161 m 1
 419 475 l 1
 200 346 l 1
 347 161 l 1
147 148 m 0
 144 133 135 121 123 111 c 0
 111 101 99 96 86 96 c 0
 72 96 62 101 54 111 c 0
 46 121 44 133 48 148 c 0
 51 163 58 177 70 188 c 0
 82 199 96 205 111 205 c 0
 124 205 133 199 141 188 c 0
 149 177 151 164 147 148 c 0
589 590 m 1
 521 590 l 1
 401 71 l 2
 397 63 390 55 380 49 c 0
 370 43 359 39 350 39 c 0
 339 39 331 43 324 51 c 2
 111 324 l 2
 106 330 105 339 108 351 c 0
 112 367 119 378 129 384 c 2
 440 564 l 1
 446 590 l 1
 131 590 l 1
 150 673 l 1
 608 673 l 1
 589 590 l 1
447 0 m 1
 406 -38 l 1
 533 -164 l 1
 573 -121 l 1
 447 0 l 1
EndSplineSet
Ligature2: "'haln' Halant Forms in Bengali lookup 12 subtable" u09b0 u09cd
Ligature2: "'haln' Halant Forms in Bengali lookup 12 subtable" u09b0 u09cd
EndChar

StartChar: u09b2_u09cd.haln
Encoding: 188 -1 176
Width: 649
GlyphClass: 2
Flags: HW
LayerCount: 2
Fore
SplineSet
783 590 m 1xdc
 714 590 l 1
 594 72 l 2
 588 44 572 30 546 30 c 0
 521 30 512 43 518 70 c 2
 582 348 l 1
 564 412 539 445 506 445 c 0xdc
 481 445 456 424 430 383 c 1
 422 376 411 372 395 372 c 0
 379 372 369 377 363 385 c 1
 360 431 337 454 294 454 c 0
 256 454 224 435 197 396 c 0
 189 383 184 370 181 357 c 0
 173 324 179 298 199 279 c 0
 219 260 244 252 276 256 c 1
 290 250 296 239 292 223 c 0
 288 204 278 190 261 182 c 1
 254 181 247 181 240 181 c 0
 191 181 153 198 128 233 c 0
 103 268 96 309 107 356 c 0
 115 389 130 419 155 449 c 0
 201 506 254 534 314 534 c 0xbc
 360 534 395 514 418 475 c 1
 457 510 491 527 523 527 c 0
 555 527 584 510 611 475 c 1
 638 590 l 1
 131 590 l 1
 150 673 l 1
 802 673 l 1
 783 590 l 1xdc
543 -15 m 1
 502 -52 l 1
 630 -178 l 1
 669 -135 l 1
 543 -15 l 1
EndSplineSet
EndChar

StartChar: u09b6_u09cd.haln
Encoding: 189 -1 177
Width: 588
GlyphClass: 3
Flags: HW
LayerCount: 2
Fore
SplineSet
730 590 m 1
 660 590 l 1
 539 67 l 2
 535 50 521 41 498 41 c 0
 470 41 458 50 462 67 c 2
 564 507 l 2
 569 528 561 547 541 564 c 0
 519 582 492 591 459 591 c 0
 438 591 416 584 395 571 c 0
 371 556 356 535 351 508 c 0
 344 472 350 446 372 431 c 0
 387 420 418 412 460 406 c 1
 466 402 465 393 462 378 c 0
 457 356 448 339 436 330 c 1
 389 334 356 342 336 353 c 0
 314 365 297 387 286 419 c 1
 258 381 228 356 196 343 c 0
 175 335 140 330 93 327 c 1
 85 336 81 349 84 364 c 0
 87 379 95 392 106 403 c 1
 139 405 168 414 196 429 c 0
 224 444 243 465 255 491 c 1
 263 512 262 531 254 548 c 0
 244 568 229 581 209 586 c 0
 198 589 174 590 140 590 c 0
 128 590 125 604 132 633 c 0
 138 660 147 673 159 673 c 0
 208 673 240 671 255 666 c 0
 285 655 309 630 324 590 c 1
 350 618 373 637 394 649 c 0
 415 661 442 669 475 673 c 0
 497 676 520 672 544 662 c 0
 568 652 586 640 597 625 c 1
 617 657 641 673 668 673 c 2
 749 673 l 1
 730 590 l 1
505 -24 m 1
 464 -62 l 1
 591 -188 l 1
 631 -145 l 1
 505 -24 l 1
EndSplineSet
Ligature2: "'haln' Halant Forms in Bengali lookup 12 subtable" u09b6 u09cd
EndChar

StartChar: u09b7_u09cd.haln
Encoding: 190 -1 178
Width: 455
GlyphClass: 3
Flags: HW
LayerCount: 2
Fore
SplineSet
351 143 m 1
 393 322 l 1
 281 382 l 1
 178 304 l 1
 351 143 l 1
412 406 m 1
 454 590 l 1
 254 590 l 1
 312 479 l 1
 308 461 341 437 412 406 c 1
598 590 m 1
 530 590 l 1
 409 69 l 2
 404 46 388 34 359 34 c 0
 347 34 338 37 332 43 c 2
 94 271 l 2
 86 278 84 288 87 299 c 0
 89 309 94 319 103 329 c 1
 243 438 l 1
 160 590 l 1
 131 590 l 1
 150 673 l 1
 617 673 l 1
 598 590 l 1
428 -5 m 1
 387 -42 l 1
 514 -168 l 1
 553 -125 l 1
 428 -5 l 1
EndSplineSet
Ligature2: "'haln' Halant Forms in Bengali lookup 12 subtable" u09b7 u09cd
EndChar

StartChar: u09b8_u09cd.haln
Encoding: 191 -1 179
Width: 609
GlyphClass: 3
Flags: HW
LayerCount: 2
Fore
SplineSet
561 390 m 1
 607 589 l 1
 347 589 l 1
 311 543 l 1
 359 530 396 496 421 441 c 1
 440 451 456 456 472 456 c 0
 503 456 532 434 561 390 c 1
752 589 m 1
 684 589 l 1
 561 56 l 2
 557 38 542 29 519 29 c 0
 491 29 480 38 484 56 c 2
 499 122 l 2
 515 193 518 255 508 310 c 0
 498 360 482 385 461 385 c 0
 451 385 440 377 430 361 c 0
 394 290 354 232 310 186 c 0
 262 137 220 113 181 113 c 0
 135 113 101 148 80 217 c 0
 80 223 80 229 81 234 c 0
 86 257 101 269 126 269 c 0
 135 269 144 266 151 261 c 1
 164 219 181 198 203 198 c 0
 237 198 287 254 355 367 c 1
 345 405 333 432 317 447 c 0
 299 463 271 472 232 473 c 1
 220 471 212 474 207 481 c 0
 202 488 201 498 204 509 c 0
 206 517 209 525 215 533 c 2
 257 589 l 1
 131 589 l 1
 150 673 l 1
 771 673 l 1
 752 589 l 1
543 -15 m 1
 502 -52 l 1
 630 -178 l 1
 669 -135 l 1
 543 -15 l 1
EndSplineSet
Ligature2: "'haln' Halant Forms in Bengali lookup 12 subtable" u09b8 u09cd
EndChar

StartChar: u09b9_u09cd.haln
Encoding: 192 -1 180
Width: 419
GlyphClass: 3
Flags: HW
LayerCount: 2
Fore
SplineSet
407 589 m 1x70
 478 565 501 506 480 413 c 0
 477 402 475 390 471 378 c 0
 428 285 344 228 221 208 c 1
 467 10 l 1
 467 3 467 -3 466 -9 c 0
 460 -35 443 -47 416 -44 c 1
 79 221 l 1
 75 231 73 242 76 254 c 0
 82 279 96 292 116 292 c 0
 121 292 125 291 129 289 c 0
 152 285 176 283 197 283 c 0
 291 283 358 318 401 388 c 0
 405 397 408 406 410 415 c 0
 416 440 415 462 406 481 c 0
 397 500 383 512 363 517 c 0
 357 518 352 518 346 518 c 0xb0
 279 518 235 482 215 410 c 1
 205 397 193 390 176 390 c 0
 158 390 149 399 148 418 c 1
 155 447 167 475 188 504 c 0
 209 533 231 554 258 569 c 1
 239 589 l 1
 131 589 l 1
 150 673 l 1
 577 673 l 1
 557 589 l 1
 407 589 l 1x70
366 -59 m 1
 325 -96 l 1
 452 -222 l 1
 492 -179 l 1
 366 -59 l 1
EndSplineSet
Ligature2: "'haln' Halant Forms in Bengali lookup 12 subtable" u09b9 u09cd
EndChar

StartChar: u09dc_u09cd.haln
Encoding: 193 -1 181
Width: 684
GlyphClass: 3
Flags: HW
LayerCount: 2
Fore
SplineSet
819 590 m 1xfd
 475 590 l 1
 420 354 l 1
 422 345 426 340 433 340 c 0
 456 340 507 384 582 473 c 0
 589 481 599 486 611 486 c 0
 627 486 640 480 649 467 c 0
 686 418 698 363 683 300 c 0
 675 267 661 231 640 192 c 1
 571 89 493 37 410 35 c 0
 359 34 311 51 269 87 c 0
 234 116 208 152 192 194 c 0
 163 270 146 370 141 495 c 0
 142 505 148 513 157 521 c 0
 166 529 177 533 188 533 c 0
 200 533 209 528 215 519 c 1
 223 412 234 335 248 289 c 1
 257 240 278 200 310 166 c 0
 342 132 378 115 419 115 c 0
 465 115 509 137 552 181 c 1
 580 214 599 251 608 292 c 0
 617 331 615 364 602 392 c 1
 557 350 524 321 502 306 c 0
 462 278 426 264 393 264 c 1
 347 272 333 311 349 381 c 2
 398 590 l 1
 131 590 l 1
 150 673 l 1
 838 673 l 1
 819 590 l 1xfd
402 -56 m 0xfb
 399 -68 392 -79 382 -88 c 0
 372 -97 360 -102 350 -102 c 0
 340 -102 330 -97 324 -88 c 0
 318 -79 315 -68 318 -56 c 0
 321 -44 328 -34 338 -26 c 0
 348 -18 359 -13 370 -13 c 0
 381 -13 390 -18 397 -26 c 0
 404 -34 405 -44 402 -56 c 0xfb
514 -24 m 1
 473 -62 l 1
 600 -188 l 1
 640 -145 l 1
 514 -24 l 1
EndSplineSet
Ligature2: "'haln' Halant Forms in Bengali lookup 12 subtable" u09dc u09cd
EndChar

StartChar: u09dd_u09cd.haln
Encoding: 194 -1 182
Width: 468
GlyphClass: 3
Flags: HW
LayerCount: 2
Fore
SplineSet
622 587 m 1xf0
 315 587 l 1
 221 181 l 2
 218 168 219 155 225 146 c 0
 231 137 242 132 255 132 c 0
 275 132 296 144 320 166 c 0
 383 224 418 280 425 333 c 0
 427 350 424 364 415 374 c 0
 406 384 397 393 388 401 c 1
 386 406 386 411 388 418 c 0
 391 429 397 439 407 448 c 0
 417 457 428 461 440 461 c 1
 463 439 479 420 487 402 c 0
 497 379 500 353 493 322 c 0
 479 260 442 198 384 134 c 0
 323 67 267 33 217 33 c 0
 193 33 172 46 156 74 c 0
 140 102 135 132 143 165 c 2
 244 599 l 1
 240 590 l 1
 131 590 l 1
 150 673 l 1
 260 673 l 2
 260 671 281 670 324 670 c 2
 641 670 l 1
 622 587 l 1xf0
240 -51 m 0xe8
 237 -63 230 -74 220 -83 c 0
 210 -92 198 -97 188 -97 c 0
 178 -97 168 -92 162 -83 c 0
 156 -74 154 -63 157 -51 c 0
 160 -39 166 -29 176 -21 c 0
 186 -13 197 -8 208 -8 c 0
 219 -8 227 -13 234 -21 c 0
 241 -29 243 -39 240 -51 c 0xe8
390 -10 m 1
 349 -47 l 1
 476 -173 l 1
 516 -130 l 1
 390 -10 l 1
EndSplineSet
Ligature2: "'haln' Halant Forms in Bengali lookup 12 subtable" u09dd u09cd
EndChar

StartChar: glyph219
Encoding: 195 -1 183
Width: 464
GlyphClass: 2
Flags: HW
LayerCount: 2
Fore
SplineSet
351 143 m 1
 454 590 l 1
 254 590 l 1
 324 454 l 2
 326 447 326 438 324 430 c 0
 321 417 315 408 307 401 c 2
 178 304 l 1
 351 143 l 1
174 101 m 0
 171 86 163 73 151 62 c 0
 139 51 127 45 114 45 c 0
 100 45 89 51 81 62 c 0
 73 73 72 86 76 101 c 0
 80 116 88 128 100 139 c 0
 112 150 126 155 140 155 c 0
 153 155 162 149 169 138 c 0
 176 127 177 115 174 101 c 0
598 590 m 1
 530 590 l 1
 409 69 l 2
 404 46 388 34 359 34 c 0
 347 34 338 37 332 43 c 2
 94 271 l 2
 86 278 84 288 87 299 c 0
 89 309 94 319 103 329 c 1
 243 438 l 1
 160 590 l 1
 131 590 l 1
 150 673 l 1
 617 673 l 1
 598 590 l 1
425 0 m 1
 383 -38 l 1
 510 -164 l 1
 551 -121 l 1
 425 0 l 1
EndSplineSet
EndChar

StartChar: janya_u09cd.half
Encoding: 196 -1 184
Width: 826
GlyphClass: 3
Flags: HW
LayerCount: 2
Fore
SplineSet
482 395 m 1
 478 428 467 480 452 553 c 1
 432 540 414 521 396 495 c 0
 378 469 367 443 361 418 c 0
 354 387 357 364 372 348 c 1
 482 395 l 1
693 146 m 1
 709 147 720 157 724 176 c 0
 727 187 724 198 718 207 c 0
 712 216 700 220 684 220 c 1
 666 227 659 240 663 258 c 0
 667 277 680 289 701 296 c 1
 715 298 728 304 740 314 c 0
 752 324 758 334 761 345 c 0
 765 364 755 375 730 378 c 1
 704 372 684 363 668 351 c 0
 655 340 639 322 619 295 c 1
 623 268 619 242 610 218 c 1
 622 195 634 179 643 170 c 0
 656 157 672 149 693 146 c 1
964 590 m 1
 523 590 l 1
 557 411 l 1
 573 402 587 389 597 373 c 1
 650 430 702 459 752 459 c 0
 779 459 801 449 819 429 c 0
 840 406 847 378 839 345 c 0
 832 313 813 286 784 262 c 1
 802 239 807 211 799 177 c 0
 789 132 762 97 720 75 c 0
 707 70 694 68 681 68 c 0
 632 68 591 91 560 138 c 1
 532 104 506 80 483 65 c 0
 471 56 458 50 445 44 c 1
 444 44 l 1
 443 43 l 1
 426 36 407 31 387 29 c 0
 378 28 371 28 363 28 c 0
 275 28 211 84 170 198 c 0
 137 293 127 395 143 503 c 1
 156 523 169 532 184 532 c 0
 196 532 209 527 220 516 c 1
 210 412 217 319 242 236 c 0
 271 145 315 99 373 99 c 0
 406 99 442 115 481 148 c 1
 511 177 529 209 537 244 c 0
 546 282 540 313 517 336 c 1
 506 333 478 319 434 296 c 0
 399 278 372 269 352 269 c 0
 340 269 330 272 321 277 c 1
 286 318 274 367 288 426 c 0
 302 488 336 542 390 590 c 1
 131 590 l 1
 150 673 l 1
 983 673 l 1
 964 590 l 1
445 44 m 2
 443 43 l 2
 402 6 l 1
 529 -120 l 1
 569 -77 l 1
 445 44 l 2
EndSplineSet
Ligature2: "'haln' Halant Forms in Bengali lookup 12 subtable" bn_ja_nya.akhnd u09cd
Ligature2: "'half' Half Forms in Bengali lookup 5 subtable" bn_ja_nya.akhnd u09cd zwj
EndChar

StartChar: kassa_u09cd.half
Encoding: 197 -1 185
Width: 755
GlyphClass: 3
Flags: HW
LayerCount: 2
Fore
SplineSet
481 165 m 1xec
 540 420 l 1
 455 464 419 514 432 571 c 0xdc
 434 578 437 584 439 590 c 1
 318 590 l 1
 321 568 317 544 307 517 c 1
 347 510 379 490 401 457 c 0
 423 424 430 387 420 343 c 0
 415 321 405 298 390 275 c 1
 481 165 l 1xec
560 506 m 1
 579 590 l 1
 519 590 l 1
 512 583 507 576 505 569 c 0
 501 550 520 529 560 506 c 1
915 590 m 1
 656 590 l 1
 630 475 l 1
 678 455 716 429 743 398 c 0
 773 365 784 332 776 298 c 0
 765 252 720 212 642 179 c 1
 632 177 624 180 617 189 c 0
 610 198 609 210 612 224 c 0
 614 231 616 237 619 243 c 1
 664 261 689 281 694 302 c 0
 701 332 673 361 610 389 c 1
 538 77 l 2
 536 68 528 59 515 52 c 0
 502 45 490 42 478 42 c 0
 468 42 460 44 457 49 c 2
 330 210 l 1
 304 191 271 171 232 151 c 1
 221 153 213 159 207 168 c 0
 201 177 199 187 202 198 c 0
 204 206 208 213 215 219 c 1
 278 252 320 287 337 322 c 0
 340 329 343 337 345 344 c 0xec
 351 369 346 391 332 411 c 0
 318 431 299 441 276 441 c 0
 271 441 268 441 263 440 c 1
 238 410 203 382 157 357 c 1
 143 356 133 359 126 367 c 0
 119 375 118 386 121 397 c 0
 123 404 126 411 131 417 c 1
 154 428 177 446 201 468 c 0
 226 493 241 517 246 538 c 0
 252 563 241 581 211 590 c 1
 131 590 l 1
 150 673 l 1
 934 673 l 1
 915 590 l 1
527 -10 m 1
 486 -47 l 1
 613 -173 l 1
 653 -130 l 1
 527 -10 l 1
EndSplineSet
Ligature2: "'haln' Halant Forms in Bengali lookup 12 subtable" bn_ka_ssa.akhn u09cd
Ligature2: "'half' Half Forms in Bengali lookup 5 subtable" bn_ka_ssa.akhn u09cd zwj
EndChar

StartChar: u09b0_u09cd.rphf
Encoding: 198 -1 186
Width: 11
GlyphClass: 3
Flags: HW
AnchorPoint: "Anchor-0" -139 659 mark 0
LayerCount: 2
Fore
SplineSet
362 857 m 2
 126 689 l 1
 26 687 l 1
 331 905 l 2
 334 908 338 909 344 909 c 0
 353 909 362 906 369 899 c 0
 376 892 378 885 376 876 c 0
 374 869 370 863 362 857 c 2
EndSplineSet
Ligature2: "'rphf' Reph Form in Bengali lookup 3 subtable" u09f0 u09cd
Ligature2: "'rphf' Reph Form in Bengali lookup 3 subtable" u09b0 u09cd
EndChar

StartChar: u09af_u09cd.pstf
Encoding: 199 -1 187
Width: 246
GlyphClass: 3
Flags: HW
LayerCount: 2
Fore
SplineSet
389 590 m 1
 345 590 l 2
 312 590 286 577 268 551 c 1
 257 531 248 508 242 482 c 0
 234 447 229 392 228 315 c 0
 227 238 224 182 216 148 c 0
 197 65 145 10 62 -15 c 1
 36 -11 25 1 30 21 c 0
 33 35 43 47 58 56 c 1
 117 72 153 109 167 168 c 0
 174 197 176 250 173 327 c 0
 170 404 173 462 182 499 c 0
 190 534 204 565 223 590 c 1
 131 590 l 1
 150 673 l 1
 408 673 l 1
 389 590 l 1
EndSplineSet
LCarets2: 1 0
Ligature2: "'pstf' Post Base Forms in Bengali lookup 6 subtable" u09cd u09af
EndChar

StartChar: u09b0_u09cd.blwf
Encoding: 200 -1 188
Width: 13
GlyphClass: 3
Flags: HW
LayerCount: 2
Fore
SplineSet
-61 -10 m 2x90
 -65 -28 -85 -37 -119 -37 c 0x90
 -129 -37 -136 -36 -139 -33 c 0
 -150 -17 -168 -9 -191 -9 c 0x30
 -204 -9 -227 -13 -260 -21 c 0
 -293 -29 -318 -33 -334 -32 c 0
 -374 -30 -402 -22 -418 -7 c 0
 -434 8 -448 39 -457 84 c 1
 -454 111 -439 125 -415 125 c 0
 -405 125 -395 121 -386 114 c 1
 -382 87 -375 68 -365 58 c 0
 -355 48 -341 42 -322 42 c 0x50
 -310 42 -290 44 -262 49 c 0
 -218 57 -184 61 -159 61 c 0x30
 -144 61 -131 60 -121 57 c 1
 -108 111 l 1
 -33 111 l 1
 -61 -10 l 2x90
EndSplineSet
Ligature2: "'blwf' Below Base Forms in Bengali2 lookup 4 subtable" u09cd u09f0
Ligature2: "'blwf' Below Base Forms in Bengali2 lookup 4 subtable" u09cd u09b0
EndChar

StartChar: u09ac_u09cd.blwf
Encoding: 201 -1 189
Width: 9
GlyphClass: 3
Flags: HW
LayerCount: 2
Fore
SplineSet
-143 -53 m 1
 -126 22 l 1
 -202 -12 l 1
 -143 -53 l 1
-83 -107 m 2
 -85 -117 -92 -125 -104 -131 c 0
 -116 -137 -127 -139 -139 -139 c 0
 -146 -139 -153 -138 -158 -135 c 2
 -298 -33 l 1
 -301 -26 -301 -19 -299 -12 c 0
 -296 1 -287 13 -273 23 c 1
 -102 107 l 2
 -96 110 -87 112 -80 112 c 0
 -68 112 -59 109 -50 103 c 0
 -41 97 -38 90 -40 81 c 2
 -83 -107 l 2
EndSplineSet
EndChar

StartChar: u0995_u09b0_u09cd.blwf.vatu
Encoding: 202 -1 190
Width: 791
GlyphClass: 3
Flags: HW
AnchorPoint: "Anchor-1" 513 22 basechar 0
LayerCount: 2
Fore
SplineSet
514 59 m 2x37c0
 512 50 505 42 492 35 c 0
 479 28 466 24 454 24 c 0
 444 24 437 27 434 33 c 0
 410 80 377 104 335 104 c 0x77c0
 322 104 300 101 271 95 c 0
 242 89 220 86 203 86 c 0
 189 86 176 87 165 90 c 0
 91 108 67 171 91 277 c 0
 95 295 101 313 107 333 c 1
 117 350 128 358 143 358 c 0
 163 358 175 349 180 330 c 1
 173 313 168 297 165 282 c 0
 147 206 168 168 227 168 c 0xa7c0
 241 168 262 171 291 177 c 0
 320 183 342 185 356 185 c 0
 401 185 435 174 459 151 c 1
 533 472 l 2
 537 490 534 499 522 499 c 0
 519 499 515 498 511 497 c 0
 432 477 385 435 370 372 c 0
 365 350 364 326 367 299 c 0
 368 294 368 290 367 286 c 0
 362 265 347 255 323 255 c 0
 309 255 299 260 292 271 c 1
 288 306 290 339 297 371 c 0
 309 425 337 471 378 508 c 0
 419 545 467 567 522 576 c 0
 530 577 538 578 545 578 c 0x6fc0
 577 578 597 566 607 542 c 0
 615 523 616 501 610 474 c 2
 604 450 l 1
 615 460 626 470 637 480 c 0
 661 499 688 508 717 509 c 0
 751 511 778 498 796 473 c 0
 814 448 820 419 812 386 c 0
 810 377 807 368 803 359 c 0
 772 295 721 265 651 270 c 1
 641 277 638 288 641 301 c 0
 645 318 655 330 671 337 c 1
 690 335 708 340 721 350 c 0
 734 360 743 373 746 388 c 0
 747 391 748 395 748 399 c 0
 741 420 729 431 711 431 c 0
 678 431 633 399 578 336 c 1
 514 59 l 2x37c0
724 673 m 1
 946 673 l 1
 927 590 l 1
 705 590 l 1
 688 590 l 1
 131 590 l 1
 150 673 l 1
 707 673 l 1
 724 673 l 1
EndSplineSet
Substitution2: "'salt' Stylistic Alternatives in Bengali2 lookup 17-1" u0995_u09cd_u09b0.salt
Ligature2: "'vatu' Vattu Variants in Bengali lookup 7 subtable" u0995 u09b0_u09cd.blwf
EndChar

StartChar: u0996_u09b0_u09cd.blwf.vatu
Encoding: 203 -1 191
Width: 600
GlyphClass: 3
Flags: HW
AnchorPoint: "Anchor-1" 542 15 basechar 0
LayerCount: 2
Fore
SplineSet
723 590 m 1x9d
 654 590 l 1
 534 73 l 2x9d
 533 68 532 64 528 60 c 1
 525 47 l 2
 523 39 515 32 504 27 c 0
 493 22 481 19 469 19 c 0x9e
 459 19 450 20 446 25 c 0
 431 47 409 59 381 59 c 0x3e
 362 59 336 53 300 43 c 0
 268 34 238 29 209 29 c 0x5e
 116 29 66 73 59 160 c 1
 65 183 83 194 113 194 c 0
 120 194 126 193 132 191 c 1
 137 130 166 101 221 101 c 0
 238 101 255 103 277 108 c 0
 316 118 347 125 372 128 c 1
 206 292 l 1
 202 303 201 313 203 323 c 0
 205 333 210 341 217 348 c 0
 224 355 232 359 239 359 c 0
 274 364 306 379 339 405 c 0
 372 431 392 460 400 494 c 0
 403 509 404 523 402 538 c 1
 362 485 315 458 262 458 c 0
 227 458 191 470 156 494 c 1
 148 502 146 513 149 526 c 0
 152 537 157 546 166 554 c 0
 175 562 185 567 194 567 c 0
 198 567 201 566 205 564 c 0
 230 547 253 538 276 538 c 0
 322 538 354 567 373 625 c 1
 378 652 392 665 413 665 c 0
 421 665 428 662 434 657 c 0
 478 620 490 563 469 486 c 0
 447 404 393 344 309 306 c 1
 473 151 l 1
 481 184 l 1x9e
 484 184 l 1
 582 608 l 2
 592 651 616 673 655 673 c 2
 743 673 l 1
 723 590 l 1x9d
EndSplineSet
Ligature2: "'vatu' Vattu Variants in Bengali lookup 7 subtable" u0996 u09b0_u09cd.blwf
EndChar

StartChar: u0997_u09b0_u09cd.blwf.vatu
Encoding: 204 -1 192
Width: 576
GlyphClass: 3
Flags: HW
AnchorPoint: "Anchor-1" 520 -7 basechar 0
LayerCount: 2
Fore
SplineSet
716 589 m 1x1640
 646 589 l 1
 524 60 l 2x1680
 522 52 519 46 514 41 c 1
 512 30 l 2
 510 22 502 15 491 10 c 0
 480 5 468 1 456 1 c 0x97
 446 1 437 3 433 8 c 0
 418 30 396 42 368 42 c 0x33
 349 42 323 36 287 26 c 0
 255 17 225 12 196 12 c 0
 103 12 54 56 47 143 c 1
 53 166 70 177 100 177 c 0
 107 177 113 176 119 174 c 1
 124 113 154 83 209 83 c 0
 226 83 243 86 265 91 c 0
 321 106 362 113 389 113 c 0
 411 113 433 110 453 102 c 1
 468 167 l 1x53
 473 167 l 1
 522 380 l 2
 531 419 529 452 516 479 c 0
 489 534 447 561 389 561 c 0
 336 561 288 537 245 490 c 1
 296 491 333 473 356 437 c 0
 377 404 383 364 372 316 c 0
 356 245 313 192 245 156 c 0
 240 155 236 154 231 154 c 0
 221 154 211 158 204 165 c 0
 197 172 196 181 198 191 c 0
 201 202 208 212 219 221 c 1
 262 244 290 276 299 316 c 0
 305 342 301 365 289 384 c 0
 277 403 259 413 235 413 c 0
 217 413 199 407 179 396 c 0
 166 389 154 385 144 385 c 0
 125 385 120 396 125 417 c 0
 126 423 129 429 132 436 c 0
 159 493 192 537 230 569 c 0
 265 598 308 619 362 634 c 0
 382 638 399 639 417 639 c 0
 479 639 529 614 564 565 c 1x5a80
 589 673 l 1
 735 673 l 1
 716 589 l 1x1640
EndSplineSet
Ligature2: "'vatu' Vattu Variants in Bengali lookup 7 subtable" u0997 u09b0_u09cd.blwf
EndChar

StartChar: u0998_u09b0_u09cd.blwf.vatu
Encoding: 205 -1 193
Width: 506
GlyphClass: 3
Flags: HW
AnchorPoint: "Anchor-1" 432 -15 basechar 0
LayerCount: 2
Fore
SplineSet
396 149 m 1x1a
 498 590 l 1
 264 590 l 1
 241 577 228 561 223 541 c 0
 220 526 221 512 231 501 c 0
 241 490 253 484 270 484 c 0
 276 484 281 486 290 488 c 0
 299 490 305 491 310 491 c 0
 320 491 328 487 333 479 c 0
 338 471 339 462 337 452 c 0
 335 442 329 433 321 425 c 2
 212 318 l 1
 396 149 l 1x1a
644 590 m 1
 574 590 l 1
 455 71 l 2x3a
 454 67 452 63 448 59 c 1
 437 10 l 2
 433 -8 412 -18 378 -18 c 0x9c
 368 -18 362 -17 359 -14 c 0
 348 2 330 11 307 11 c 0x3a
 294 11 271 7 238 -1 c 0
 205 -9 180 -14 164 -13 c 0x5a
 124 -11 95 -2 79 13 c 0
 63 28 50 59 41 104 c 1
 44 131 59 145 83 145 c 0
 93 145 103 140 112 133 c 1
 116 106 123 87 133 77 c 0
 143 67 156 62 175 62 c 0
 187 62 207 63 235 68 c 0
 279 76 314 81 339 81 c 0
 340 81 340 81 341 81 c 2x3a
 128 279 l 1
 117 285 113 294 116 307 c 0
 118 316 123 326 133 335 c 2
 210 411 l 1
 186 419 167 434 156 457 c 0
 145 480 142 506 149 536 c 0
 153 554 161 572 172 590 c 1
 128 590 l 1
 147 673 l 1
 663 673 l 1
 644 590 l 1
EndSplineSet
Ligature2: "'vatu' Vattu Variants in Bengali lookup 7 subtable" u0998 u09b0_u09cd.blwf
EndChar

StartChar: u0999_u09b0_u09cd.blwf.vatu
Encoding: 206 -1 194
Width: 577
GlyphClass: 3
Flags: HW
AnchorPoint: "Anchor-1" 439 -88 basechar 0
LayerCount: 2
Fore
SplineSet
542 553 m 1x3f80
 547 565 544 575 536 583 c 0
 529 589 519 592 507 591 c 0
 472 584 441 556 415 507 c 1
 433 503 447 501 458 501 c 0
 491 501 520 518 542 553 c 1x3f80
617 606 m 1
 618 592 618 578 615 563 c 0
 608 532 591 503 565 477 c 0
 539 451 511 435 482 428 c 0
 467 424 453 423 438 423 c 0
 418 423 399 426 381 433 c 1
 375 411 372 399 371 396 c 0
 369 381 371 367 376 354 c 1
 509 416 l 1
 526 429 546 433 568 426 c 1
 622 376 641 316 625 248 c 0
 612 192 580 143 529 101 c 0
 503 79 475 62 448 52 c 1
 421 -62 l 2
 419 -71 412 -78 402 -83 c 0
 392 -88 381 -91 371 -91 c 0
 359 -91 352 -89 351 -83 c 0
 346 -63 336 -53 319 -53 c 0x7f80
 309 -53 291 -58 265 -69 c 0
 234 -81 213 -88 199 -92 c 0
 176 -100 157 -104 143 -104 c 0xbf80
 103 -104 71 -80 49 -32 c 1
 54 -6 63 7 78 7 c 0
 86 7 97 3 108 -5 c 1
 116 -30 131 -42 152 -42 c 0
 164 -42 182 -38 205 -30 c 0
 225 -22 246 -14 267 -6 c 0
 301 5 324 11 334 11 c 0x7f80
 346 11 358 8 370 1 c 1
 378 38 l 1
 375 38 374 38 371 38 c 0
 312 38 262 62 219 110 c 0
 182 151 158 200 148 255 c 0
 139 308 137 391 144 506 c 1
 152 529 165 541 184 541 c 0
 198 541 208 533 214 518 c 1
 208 416 212 339 224 286 c 0
 234 240 252 201 280 169 c 0
 311 132 347 114 387 114 c 0
 415 114 442 123 472 143 c 0
 517 172 544 207 553 248 c 0
 562 286 554 320 528 350 c 1
 344 256 l 1
 302 297 288 342 299 391 c 0
 301 398 303 406 306 413 c 1
 308 426 313 441 320 457 c 1
 254 496 215 550 204 621 c 0
 204 625 205 629 206 632 c 0
 211 654 226 665 249 665 c 0
 257 665 265 662 271 657 c 1
 289 596 317 554 352 532 c 1
 371 565 397 595 429 622 c 0
 465 651 495 668 524 671 c 0
 568 676 598 654 617 606 c 1
EndSplineSet
Ligature2: "'vatu' Vattu Variants in Bengali lookup 7 subtable" u0999 u09b0_u09cd.blwf
EndChar

StartChar: u099a_u09b0_u09cd.blwf.vatu
Encoding: 207 -1 195
Width: 443
GlyphClass: 3
Flags: HW
AnchorPoint: "Anchor-1" 308 -66 basechar 0
LayerCount: 2
Fore
SplineSet
610 588 m 1x7e
 307 588 l 1
 301 562 l 1
 311 528 332 501 365 480 c 1
 393 466 422 452 450 438 c 0
 478 422 491 401 490 374 c 0
 489 363 487 350 484 337 c 0
 470 276 435 215 380 152 c 0
 358 127 337 105 315 88 c 1
 285 -43 l 2
 283 -52 276 -59 266 -64 c 0
 256 -69 245 -71 235 -71 c 0
 223 -71 216 -69 215 -63 c 0
 210 -43 200 -33 183 -33 c 0x7e
 173 -33 155 -38 129 -49 c 0
 98 -61 76 -68 62 -72 c 0
 39 -80 21 -84 7 -84 c 0
 -33 -84 -65 -60 -87 -12 c 1
 -82 14 -73 27 -58 27 c 0
 -50 27 -39 23 -28 15 c 1
 -20 -10 -5 -23 16 -23 c 0xbe
 28 -23 45 -18 68 -10 c 0
 88 -2 110 6 131 14 c 0
 165 25 188 31 198 31 c 0
 210 31 222 28 234 21 c 1
 238 41 l 1
 231 38 225 36 218 34 c 0
 213 33 209 32 203 32 c 0
 180 32 161 41 145 58 c 0
 127 79 121 105 129 139 c 2
 234 594 l 1
 229 590 l 1
 135 590 l 1
 154 673 l 1
 248 673 l 1
 252 671 l 1
 629 671 l 1
 610 588 l 1x7e
416 355 m 1
 412 370 392 384 355 397 c 0
 312 412 284 425 272 438 c 1
 205 147 l 2
 199 123 204 111 220 111 c 0
 227 111 235 114 246 120 c 0
 276 137 309 166 344 207 c 0
 382 253 405 294 413 330 c 0
 415 339 416 347 416 355 c 1
EndSplineSet
Ligature2: "'vatu' Vattu Variants in Bengali lookup 7 subtable" u099a u09b0_u09cd.blwf
EndChar

StartChar: u099b_u09b0_u09cd.blwf.vatu
Encoding: 208 -1 196
Width: 582
GlyphClass: 3
Flags: HW
AnchorPoint: "Anchor-1" 439 -73 basechar 0
LayerCount: 2
Fore
SplineSet
641 34 m 1x7f80
 643 23 644 13 642 4 c 0
 636 -21 618 -32 588 -28 c 1
 551 5 503 32 445 51 c 1
 417 -70 l 2
 415 -79 408 -86 398 -91 c 0
 388 -96 377 -98 367 -98 c 0
 355 -98 349 -96 348 -90 c 0
 343 -70 332 -60 315 -60 c 0x7f80
 305 -60 287 -65 261 -76 c 0
 230 -88 209 -95 195 -99 c 0
 172 -107 153 -111 139 -111 c 0
 99 -111 68 -87 46 -39 c 1
 51 -13 60 0 75 0 c 0
 83 0 93 -4 104 -12 c 1
 112 -37 127 -50 148 -50 c 0xbf80
 160 -50 179 -45 202 -37 c 0
 222 -29 243 -21 264 -13 c 0
 298 -2 320 4 330 4 c 0
 342 4 355 1 367 -6 c 1
 384 68 l 1
 334 79 277 87 214 90 c 1
 205 101 204 116 208 134 c 0
 212 150 220 160 232 165 c 1
 280 171 311 176 328 181 c 0
 361 189 392 205 421 226 c 1
 448 243 475 267 500 297 c 0
 527 330 545 360 551 387 c 0
 559 422 549 446 519 459 c 1
 509 402 472 351 410 306 c 0
 354 266 300 246 251 246 c 0
 200 246 181 270 192 318 c 2
 255 592 l 1
 243 591 l 1
 134 590 l 1
 154 673 l 1
 303 673 l 2
 306 673 306 673 339 673 c 2
 753 673 l 1
 734 589 l 1
 333 589 l 1
 336 574 352 561 382 553 c 0
 406 546 434 543 465 543 c 0
 482 543 495 544 506 546 c 1
 554 543 587 526 607 495 c 0
 624 466 629 430 619 387 c 0
 607 335 579 286 537 239 c 0
 495 192 454 160 415 145 c 1
 504 128 579 91 641 34 c 1x7f80
443 435 m 0
 444 456 428 468 394 474 c 0
 346 481 318 488 308 494 c 1
 269 323 l 2
 266 309 270 302 282 302 c 0
 302 302 334 319 376 353 c 0
 418 387 441 415 443 435 c 0
EndSplineSet
Ligature2: "'vatu' Vattu Variants in Bengali lookup 7 subtable" u099b u09b0_u09cd.blwf
EndChar

StartChar: u099c_u09b0_u09cd.blwf.vatu
Encoding: 209 -1 197
Width: 618
GlyphClass: 3
Flags: HW
AnchorPoint: "Anchor-1" 608 51 basechar 0
LayerCount: 2
Fore
SplineSet
761 590 m 1x3f
 610 590 l 1
 701 512 l 1
 715 505 719 489 713 464 c 0
 712 458 710 453 707 450 c 0
 664 404 633 342 615 265 c 0
 602 208 595 145 597 76 c 1
 587 51 570 38 545 38 c 0
 538 38 533 39 528 42 c 1
 511 69 483 82 445 82 c 0x5f
 422 82 385 76 335 65 c 0
 285 54 247 48 222 48 c 0
 130 48 81 97 73 196 c 1
 82 221 97 234 117 234 c 0
 127 234 138 229 146 221 c 1
 153 157 182 125 237 125 c 0x9f
 262 125 300 131 352 142 c 0
 404 153 442 159 467 159 c 0x5f
 487 159 507 157 524 152 c 1
 532 205 539 245 545 273 c 0
 561 342 590 406 630 463 c 1
 489 585 l 2
 485 588 481 590 474 590 c 0
 454 590 430 576 400 547 c 0
 370 518 353 490 346 461 c 0
 341 441 344 425 355 412 c 1
 363 410 380 416 409 431 c 0
 439 446 464 454 483 454 c 0
 489 454 495 453 501 452 c 1
 537 425 547 382 533 321 c 0
 524 281 505 247 479 217 c 0
 450 184 416 165 380 160 c 0
 367 158 355 157 344 157 c 0
 201 157 140 285 163 542 c 1
 180 557 195 564 208 564 c 0
 218 564 228 560 237 552 c 1
 227 443 235 360 261 304 c 0
 283 256 315 233 357 233 c 0
 379 233 401 240 422 254 c 0
 443 268 456 288 462 313 c 0
 467 334 465 354 456 375 c 1
 446 373 425 365 392 352 c 0
 366 342 345 337 331 337 c 0
 323 337 315 338 309 340 c 1
 275 367 264 404 275 452 c 0
 286 500 315 546 360 590 c 1
 131 590 l 1
 150 673 l 1
 780 673 l 1
 761 590 l 1x3f
EndSplineSet
Ligature2: "'vatu' Vattu Variants in Bengali lookup 7 subtable" u099c u09b0_u09cd.blwf
EndChar

StartChar: u099d_u09b0_u09cd.blwf.vatu
Encoding: 210 -1 198
Width: 657
GlyphClass: 3
Flags: HW
AnchorPoint: "Anchor-1" 388 7 basechar 0
LayerCount: 2
Fore
SplineSet
790 590 m 1x56
 717 590 l 1
 619 168 l 2
 615 149 598 139 569 139 c 0
 555 139 546 143 541 150 c 2
 449 251 l 1
 406 66 l 2x56
 404 57 400 50 393 44 c 1
 392 42 l 2
 390 34 383 27 372 22 c 0
 361 17 348 14 336 14 c 0x9a
 326 14 318 16 314 21 c 0
 299 43 276 54 248 54 c 0x3a
 229 54 203 49 167 39 c 0
 135 30 106 24 77 24 c 0
 -16 24 -66 68 -73 155 c 1
 -67 178 -49 189 -19 189 c 0
 -12 189 -6 189 0 187 c 1
 5 126 34 96 89 96 c 0
 106 96 123 99 145 104 c 0
 195 117 235 124 261 125 c 1
 110 319 l 2
 106 325 106 333 109 346 c 0
 113 363 121 375 133 382 c 2
 444 560 l 1
 451 590 l 1
 133 590 l 1
 152 673 l 1
 480 673 l 2
 524 673 541 649 530 601 c 2
 473 355 l 1
 564 263 l 1
 642 601 l 2
 653 649 681 673 725 673 c 2
 809 673 l 1
 790 590 l 1x56
356 179 m 1x96
 422 466 l 1x96
 204 340 l 1
 345 161 l 1
 349 179 l 1x9a
 356 179 l 1x96
EndSplineSet
Ligature2: "'vatu' Vattu Variants in Bengali lookup 7 subtable" u099d u09b0_u09cd.blwf
EndChar

StartChar: u099e_u09b0_u09cd.blwf.vatu
Encoding: 211 -1 199
Width: 858
GlyphClass: 3
Flags: HW
AnchorPoint: "Anchor-1" 586 -81 basechar 0
LayerCount: 2
Fore
SplineSet
821 251 m 1x0f10
 836 260 845 271 848 284 c 0x0f08
 851 298 847 311 836 323 c 0
 825 335 811 340 795 340 c 1
 779 351 772 364 775 379 c 0
 778 394 789 406 807 417 c 1
 825 420 842 427 856 440 c 0
 870 453 879 466 882 479 c 0
 888 503 875 515 845 514 c 0
 825 513 803 498 776 467 c 0
 768 458 749 431 718 387 c 1
 722 350 734 319 750 293 c 0
 769 260 793 246 821 251 c 1x0f10
551 -70 m 2x1f80
 549 -79 542 -86 532 -91 c 0
 522 -96 510 -98 500 -98 c 0
 488 -98 483 -96 482 -90 c 0
 477 -70 467 -60 450 -60 c 0x5f80
 440 -60 421 -65 395 -76 c 0
 364 -88 342 -95 328 -99 c 0
 305 -107 286 -111 272 -111 c 0
 232 -111 201 -87 179 -39 c 1
 184 -13 194 0 209 0 c 0
 217 0 226 -4 237 -12 c 1
 245 -37 261 -50 282 -50 c 0x8f80
 294 -50 312 -45 335 -37 c 0
 355 -29 376 -21 397 -13 c 0
 431 -2 454 4 464 4 c 0
 476 4 488 1 500 -6 c 1
 510 37 l 1
 506 38 503 41 502 44 c 0
 479 96 439 122 384 122 c 0x5f20
 366 122 339 119 301 112 c 0
 263 105 235 101 216 101 c 0
 201 101 188 103 175 106 c 0
 133 123 107 150 96 185 c 0
 86 216 88 258 100 309 c 0
 105 329 110 352 119 377 c 1
 134 388 147 393 158 393 c 0
 170 393 180 386 189 372 c 1
 177 330 171 307 170 303 c 0
 159 254 165 217 191 194 c 0
 204 182 222 176 245 176 c 0x2f20
 259 176 284 179 319 186 c 0
 354 193 381 196 401 196 c 0
 450 196 491 180 525 149 c 1
 612 528 l 2
 621 567 613 586 589 586 c 0
 575 586 554 579 529 566 c 0
 466 535 429 490 415 431 c 0
 409 404 407 373 410 337 c 1
 402 313 386 301 361 301 c 0
 349 301 339 305 334 314 c 1
 327 349 330 386 338 422 c 0
 351 477 377 527 418 571 c 0
 459 615 505 643 561 658 c 0
 576 664 591 667 605 667 c 0
 632 667 655 655 675 632 c 0
 695 609 700 575 690 532 c 2
 665 435 l 1
 691 470 717 500 741 524 c 0
 784 568 827 591 871 594 c 1
 904 591 929 578 946 554 c 0
 963 530 968 502 961 471 c 0x1f90
 953 438 932 409 901 382 c 1
 927 353 935 319 926 278 c 0
 914 224 879 190 822 174 c 0
 813 173 805 172 798 172 c 0
 721 172 674 232 657 352 c 1x1f48
 585 81 l 1
 551 -70 l 2x1f80
EndSplineSet
Ligature2: "'vatu' Vattu Variants in Bengali lookup 7 subtable" u099e u09b0_u09cd.blwf
EndChar

StartChar: u099f_u09b0_u09cd.blwf.vatu
Encoding: 212 -1 200
Width: 522
GlyphClass: 3
Flags: HW
AnchorPoint: "Anchor-1" 322 -59 basechar 0
LayerCount: 2
Fore
SplineSet
653 588 m 1x7f80
 342 588 l 1
 249 184 l 2
 246 171 247 159 253 150 c 0
 259 141 269 136 281 136 c 0
 301 136 323 146 349 168 c 1
 408 227 442 277 452 319 c 0
 453 325 454 331 454 337 c 0
 456 355 453 369 444 379 c 0
 435 389 426 398 417 407 c 1
 415 412 414 416 416 423 c 0
 419 434 425 445 435 454 c 0
 445 463 458 468 470 468 c 1
 518 426 535 379 523 327 c 0
 508 264 472 200 414 136 c 0
 384 103 354 77 326 60 c 1
 300 -53 l 2
 298 -62 292 -68 282 -73 c 0
 272 -78 261 -81 251 -81 c 0
 239 -81 232 -79 231 -73 c 0
 226 -53 216 -43 199 -43 c 0x7f80
 189 -43 170 -48 144 -59 c 0
 113 -71 92 -78 78 -82 c 0
 55 -90 36 -94 22 -94 c 0
 -18 -94 -50 -70 -72 -22 c 1
 -67 4 -57 17 -42 17 c 0
 -34 17 -24 13 -13 5 c 1
 -5 -20 11 -33 32 -33 c 0xbf80
 44 -33 61 -28 84 -20 c 0
 104 -12 126 -4 147 4 c 0
 181 15 204 21 214 21 c 0
 226 21 238 18 250 11 c 1
 255 34 l 1
 251 34 247 34 243 34 c 0
 218 34 199 48 182 76 c 0
 165 104 160 134 168 167 c 2
 266 588 l 1
 257 590 l 1
 134 590 l 1
 153 673 l 1
 276 673 l 1
 350 671 l 1
 551 671 l 1
 568 717 532 740 441 740 c 0
 428 740 412 739 394 738 c 0
 376 737 367 736 365 736 c 0
 281 745 228 758 206 773 c 0
 174 797 165 846 178 920 c 1
 183 938 197 947 218 947 c 0
 234 947 244 941 249 930 c 1
 239 884 246 852 271 835 c 0
 290 823 324 817 373 816 c 2
 444 816 l 2
 506 815 551 807 579 792 c 0
 620 769 636 729 625 671 c 1
 673 671 l 1
 653 588 l 1x7f80
EndSplineSet
Ligature2: "'vatu' Vattu Variants in Bengali lookup 7 subtable" u099f u09b0_u09cd.blwf
EndChar

StartChar: u09a0_u09b0_u09cd.blwf.vatu
Encoding: 213 -1 201
Width: 474
GlyphClass: 3
Flags: HW
AnchorPoint: "Anchor-1" 359 -59 basechar 0
LayerCount: 2
Fore
SplineSet
317 157 m 0x3d40
 369 200 401 252 415 311 c 0
 430 374 421 442 392 516 c 1
 363 393 286 303 158 246 c 1
 150 207 152 176 165 152 c 0
 178 128 198 116 225 116 c 0
 254 116 285 130 317 157 c 0x3d40
617 590 m 1
 444 590 l 1
 491 490 502 393 481 300 c 0x7b40
 466 234 432 175 382 123 c 1
 384 124 l 1
 344 -45 l 2
 342 -54 336 -61 326 -66 c 0
 316 -71 304 -74 294 -74 c 0
 282 -74 276 -71 275 -65 c 0
 270 -45 259 -36 242 -36 c 0x7980
 232 -36 214 -41 188 -52 c 0
 157 -64 136 -71 122 -75 c 0
 99 -83 80 -86 66 -86 c 0
 26 -86 -6 -63 -28 -15 c 1
 -23 11 -14 24 1 24 c 0
 9 24 20 20 31 12 c 1
 39 -13 55 -25 76 -25 c 0xb980
 88 -25 105 -21 128 -13 c 0
 148 -5 169 3 190 11 c 0
 224 22 247 28 257 28 c 0
 269 28 281 26 293 19 c 1
 303 63 l 1
 272 47 242 39 210 39 c 0
 188 39 167 44 146 52 c 0
 123 62 107 88 94 129 c 0
 81 170 78 209 87 246 c 0x7d80
 93 273 105 294 122 307 c 1
 181 331 228 360 260 393 c 0
 292 426 314 469 326 522 c 0
 331 543 334 566 336 590 c 1
 131 590 l 1
 150 673 l 1
 321 673 l 1
 313 705 303 737 294 768 c 0
 283 807 278 843 275 874 c 0
 273 899 274 921 279 941 c 0
 293 1001 336 1038 410 1052 c 1
 429 1045 436 1030 430 1005 c 0
 427 990 419 980 408 976 c 1
 375 976 357 963 351 937 c 0x7b
 347 919 349 887 358 841 c 0
 367 800 381 744 403 673 c 1
 636 673 l 1
 617 590 l 1
EndSplineSet
Ligature2: "'vatu' Vattu Variants in Bengali lookup 7 subtable" u09a0 u09b0_u09cd.blwf
EndChar

StartChar: u09a1_u09b0_u09cd.blwf.vatu
Encoding: 214 -1 202
Width: 684
GlyphClass: 3
Flags: HW
AnchorPoint: "Anchor-1" 439 -81 basechar 0
LayerCount: 2
Fore
SplineSet
819 590 m 1x7f80
 475 590 l 1
 420 354 l 1
 422 345 426 340 433 340 c 0
 456 340 507 384 582 473 c 0
 589 481 599 486 611 486 c 0
 627 486 640 480 649 467 c 0
 686 418 698 363 683 300 c 0
 675 267 661 231 640 192 c 1
 579 103 514 52 443 39 c 1
 420 -60 l 2
 418 -69 411 -76 401 -81 c 0
 391 -86 379 -88 369 -88 c 0
 357 -88 351 -86 350 -80 c 0
 345 -60 335 -50 318 -50 c 0x7f80
 308 -50 290 -55 264 -66 c 0
 233 -78 211 -85 197 -89 c 0
 174 -97 155 -101 141 -101 c 0
 101 -101 70 -77 48 -29 c 1
 53 -3 63 10 78 10 c 0
 86 10 96 6 107 -2 c 1
 115 -27 130 -40 151 -40 c 0xbf80
 163 -40 181 -35 204 -27 c 0
 224 -19 245 -11 266 -3 c 0
 300 8 323 14 333 14 c 0
 345 14 357 11 369 4 c 1
 377 37 l 1
 338 42 302 59 269 87 c 0
 234 116 208 152 192 194 c 0
 163 270 146 370 141 495 c 0
 142 505 148 513 157 521 c 0
 166 529 177 533 188 533 c 0
 200 533 209 528 215 519 c 1
 223 412 234 335 248 289 c 1
 257 240 278 200 310 166 c 0
 342 132 378 115 419 115 c 0
 465 115 509 137 552 181 c 1
 580 214 599 251 608 292 c 0
 617 331 615 364 602 392 c 1
 557 350 524 321 502 306 c 0
 462 278 426 264 393 264 c 1
 347 272 333 311 349 381 c 2
 398 590 l 1
 131 590 l 1
 150 673 l 1
 838 673 l 1
 819 590 l 1x7f80
EndSplineSet
Ligature2: "'vatu' Vattu Variants in Bengali lookup 7 subtable" u09a1 u09b0_u09cd.blwf
EndChar

StartChar: u09a2_u09b0_u09cd.blwf.vatu
Encoding: 215 -1 203
Width: 490
GlyphClass: 3
Flags: HW
AnchorPoint: "Anchor-1" 352 -66 basechar 0
LayerCount: 2
Fore
SplineSet
623 587 m 1x7c
 316 587 l 1
 222 181 l 2
 219 168 220 155 226 146 c 0
 232 137 242 132 255 132 c 0
 275 132 297 144 321 166 c 0
 384 224 419 280 426 333 c 0
 428 350 425 364 416 374 c 0
 407 384 398 393 389 401 c 1
 387 406 386 411 388 418 c 0
 391 429 397 439 407 448 c 0
 417 457 429 461 441 461 c 1
 464 439 480 420 488 402 c 0
 498 379 501 353 494 322 c 0
 480 260 443 198 385 134 c 0
 379 127 371 119 365 113 c 1
 327 -55 l 2
 325 -64 318 -71 308 -76 c 0
 298 -81 287 -83 277 -83 c 0
 265 -83 258 -81 257 -75 c 0
 252 -55 242 -45 225 -45 c 0x7c
 215 -45 197 -51 171 -62 c 0
 140 -74 118 -80 104 -84 c 0
 81 -92 62 -96 48 -96 c 0
 8 -96 -24 -72 -46 -24 c 1
 -41 2 -31 15 -16 15 c 0
 -8 15 2 10 13 2 c 1
 21 -23 37 -35 58 -35 c 0xbc
 70 -35 87 -30 110 -22 c 0
 130 -14 151 -7 172 1 c 0
 206 12 230 19 240 19 c 0
 252 19 263 16 275 9 c 1
 285 51 l 1
 262 39 239 33 218 33 c 0
 194 33 173 46 157 74 c 0
 141 102 136 132 144 165 c 2
 244 599 l 1
 241 590 l 1
 132 590 l 1
 151 673 l 1
 260 673 l 2
 260 671 282 670 325 670 c 2
 642 670 l 1
 623 587 l 1x7c
EndSplineSet
Ligature2: "'vatu' Vattu Variants in Bengali lookup 7 subtable" u09a2 u09b0_u09cd.blwf
EndChar

StartChar: u09a3_u09b0_u09cd.blwf.vatu
Encoding: 216 -1 204
Width: 467
GlyphClass: 3
Flags: HW
AnchorPoint: "Anchor-1" 403 44 basechar 0
LayerCount: 2
Fore
SplineSet
623 590 m 1x2e
 556 590 l 1
 438 77 l 2
 433 55 419 44 396 44 c 0
 386 44 376 47 369 53 c 0
 367 54 366 56 365 57 c 0
 360 54 355 53 353 55 c 0
 338 76 323 87 303 87 c 0x6e
 291 87 261 80 216 65 c 1
 182 50 152 42 128 42 c 0
 78 42 42 77 21 147 c 0
 20 153 20 158 21 164 c 0
 25 182 39 191 60 191 c 0
 68 191 76 189 84 186 c 1
 98 140 119 117 148 117 c 0xa6
 160 117 177 121 199 128 c 0
 221 135 242 141 264 148 c 0
 289 155 310 159 327 159 c 0
 347 159 363 153 377 142 c 1
 439 411 l 2
 442 426 444 451 446 486 c 0
 447 509 438 529 418 546 c 0
 398 563 373 572 346 572 c 0
 317 572 292 562 268 543 c 0
 238 519 221 490 213 457 c 0
 207 429 209 404 220 383 c 0
 231 362 249 350 272 349 c 1
 282 346 286 337 282 321 c 0
 279 310 274 299 265 289 c 0
 256 279 247 274 239 274 c 0
 174 288 141 328 137 393 c 0
 135 414 138 436 143 458 c 0
 153 503 175 543 208 578 c 0
 241 613 279 634 325 642 c 0
 345 646 365 648 381 648 c 0x76
 421 648 455 632 484 601 c 1
 502 649 528 673 564 673 c 2
 642 673 l 1
 623 590 l 1x2e
EndSplineSet
Ligature2: "'vatu' Vattu Variants in Bengali lookup 7 subtable" u09a3 u09b0_u09cd.blwf
EndChar

StartChar: u09a4_u09b0_u09cd.blwf.vatu
Encoding: 217 -1 205
Width: 561
GlyphClass: 3
Flags: HW
AnchorPoint: "Anchor-1" 505 22 basechar 0
LayerCount: 2
Fore
SplineSet
514 59 m 2x7e
 512 50 505 42 492 35 c 0
 479 28 466 24 454 24 c 0
 444 24 437 27 434 33 c 0
 410 80 377 104 335 104 c 0x7e
 322 104 300 101 271 95 c 0
 242 89 220 86 203 86 c 0
 189 86 176 87 165 90 c 0
 91 108 67 171 91 277 c 0
 95 295 101 313 107 333 c 1
 117 350 128 358 143 358 c 0
 163 358 175 349 180 330 c 1
 173 313 168 297 165 282 c 0
 147 206 168 168 227 168 c 0xbe
 241 168 262 171 291 177 c 0
 320 183 342 185 356 185 c 0
 401 185 435 174 459 151 c 1
 533 472 l 2
 537 490 534 499 522 499 c 0
 519 499 515 498 511 497 c 0
 432 477 385 435 370 372 c 0
 365 350 364 326 367 299 c 0
 368 294 368 290 367 286 c 0
 362 265 347 255 323 255 c 0
 309 255 299 260 292 271 c 1
 288 306 290 339 297 371 c 0
 309 425 337 471 378 508 c 0
 419 545 467 567 522 576 c 0
 530 577 538 578 545 578 c 0
 577 578 597 566 607 542 c 0
 615 523 616 501 610 474 c 2
 514 59 l 2x7e
705 590 m 1
 131 590 l 1
 150 673 l 1
 724 673 l 1
 705 590 l 1
EndSplineSet
Substitution2: "'salt' Stylistic Alternatives in Bengali2 lookup 17-1" u09a4_u09b0_u09cd.vatu.salt
Ligature2: "'vatu' Vattu Variants in Bengali lookup 7 subtable" u09a4 u09b0_u09cd.blwf
EndChar

StartChar: u09a5_u09b0_u09cd.blwf.vatu
Encoding: 218 -1 206
Width: 489
GlyphClass: 3
Flags: HW
AnchorPoint: "Anchor-1" 454 -29 basechar 0
LayerCount: 2
Fore
SplineSet
671 590 m 1x0f
 603 590 l 1
 495 123 l 1x8f
 501 123 l 1
 473 2 l 2
 469 -16 449 -25 415 -25 c 0x8e80
 405 -25 399 -24 396 -21 c 0
 385 -5 366 3 343 3 c 0x2680
 330 3 307 -1 274 -9 c 0
 241 -17 217 -21 201 -20 c 0
 161 -18 132 -10 116 5 c 0
 100 20 87 51 78 96 c 1
 81 123 96 137 120 137 c 0
 130 137 139 133 148 126 c 1
 152 99 159 80 169 70 c 0
 179 60 193 54 212 54 c 0x4680
 224 54 244 56 272 61 c 0
 316 69 350 73 375 73 c 0
 376 73 377 73 378 73 c 2
 181 269 l 1
 179 280 180 292 182 302 c 0
 186 318 194 327 205 332 c 0
 238 345 270 368 302 402 c 0
 334 436 353 467 360 498 c 0
 368 534 356 559 324 573 c 1
 314 574 304 575 296 575 c 0
 250 575 217 545 200 483 c 0
 193 465 179 456 157 456 c 0
 139 456 131 463 129 476 c 1
 148 585 203 644 292 653 c 0
 300 654 307 654 314 654 c 0x3680
 360 654 393 640 414 611 c 0
 435 582 440 545 430 500 c 0
 421 463 404 425 377 387 c 0
 359 360 325 329 276 294 c 1
 424 145 l 1
 529 601 l 2
 535 625 546 644 564 657 c 0
 578 667 595 673 612 673 c 2
 690 673 l 1
 671 590 l 1x0f
EndSplineSet
Ligature2: "'vatu' Vattu Variants in Bengali lookup 7 subtable" u09a5 u09b0_u09cd.blwf
EndChar

StartChar: u09a6_u09b0_u09cd.blwf.vatu
Encoding: 219 -1 207
Width: 404
GlyphClass: 3
Flags: HW
AnchorPoint: "Anchor-1" 359 22 basechar 0
LayerCount: 2
Fore
SplineSet
553 590 m 1x78
 248 590 l 1
 204 401 l 1
 237 428 273 453 311 476 c 0
 360 505 395 519 419 519 c 0
 423 519 426 519 429 518 c 0
 456 516 464 501 455 472 c 1
 407 387 377 317 364 262 c 0
 350 202 351 142 366 82 c 1
 366 74 363 67 359 61 c 1
 356 51 350 40 339 30 c 0
 327 19 319 16 314 19 c 1
 299 40 284 50 264 50 c 0x78
 252 50 222 43 177 28 c 1
 143 13 113 5 89 5 c 0xb8
 39 5 3 40 -18 110 c 0
 -19 116 -19 121 -18 127 c 0
 -14 145 0 154 21 154 c 0
 29 154 37 152 45 149 c 1
 59 103 80 81 109 81 c 0
 121 81 138 84 160 91 c 0
 182 98 203 104 225 111 c 0
 247 118 266 121 281 122 c 1
 277 166 281 210 291 255 c 0
 302 304 324 359 354 420 c 1
 292 393 229 349 167 288 c 1
 157 282 146 279 136 279 c 0
 113 279 103 290 108 311 c 2
 173 590 l 1
 132 590 l 1
 151 673 l 1
 572 673 l 1
 553 590 l 1x78
EndSplineSet
Ligature2: "'vatu' Vattu Variants in Bengali lookup 7 subtable" u09a6 u09b0_u09cd.blwf
EndChar

StartChar: u09a7_u09b0_u09cd.blwf.vatu
Encoding: 220 -1 208
Width: 463
GlyphClass: 3
Flags: HW
AnchorPoint: "Anchor-1" 374 7 basechar 0
LayerCount: 2
Fore
SplineSet
344 152 m 1x1a
 417 469 l 1
 199 341 l 1
 344 152 l 1x1a
587 590 m 1
 520 590 l 1
 398 61 l 2x5a
 397 58 396 55 393 52 c 1
 387 27 l 2
 383 9 363 0 329 0 c 0x9c
 319 0 312 0 309 3 c 0
 298 19 280 28 257 28 c 0x3a
 244 28 221 24 188 16 c 0
 155 8 130 3 114 4 c 0x5a
 74 6 46 15 30 30 c 0
 14 45 0 76 -9 121 c 1
 -6 148 10 162 34 162 c 0
 44 162 52 157 61 150 c 1
 65 123 73 104 83 94 c 0
 93 84 107 79 126 79 c 0
 138 79 158 80 186 85 c 0
 225 92 257 96 280 97 c 1
 110 321 l 2
 107 328 107 336 110 347 c 0
 113 362 121 376 133 387 c 1
 207 428 l 1
 174 450 155 483 150 525 c 1
 151 534 152 543 154 551 c 0
 163 592 185 622 221 643 c 0
 252 662 288 671 329 671 c 1
 343 666 347 655 343 638 c 0
 338 615 329 600 313 593 c 1
 262 593 233 580 227 554 c 0
 226 548 226 543 226 536 c 0
 237 502 259 486 294 486 c 0
 300 486 304 486 309 487 c 1
 439 563 l 1
 447 601 l 2
 458 649 485 673 528 673 c 2
 606 673 l 1
 587 590 l 1
EndSplineSet
Ligature2: "'vatu' Vattu Variants in Bengali lookup 7 subtable" u09a7 u09b0_u09cd.blwf
EndChar

StartChar: u09a8_u09b0_u09cd.blwf.vatu
Encoding: 221 -1 209
Width: 475
GlyphClass: 3
Flags: HW
AnchorPoint: "Anchor-1" 432 0 basechar 0
LayerCount: 2
Fore
SplineSet
627 589 m 1x3d
 559 589 l 1
 436 56 l 2x3d
 435 52 433 48 430 45 c 1
 428 35 l 2
 426 27 419 19 408 14 c 0
 397 9 384 6 372 6 c 0x9e
 362 6 354 8 350 13 c 0
 335 35 313 46 285 46 c 0x3e
 266 46 239 41 203 31 c 0
 171 22 141 17 112 17 c 0
 19 17 -30 60 -37 147 c 1
 -31 170 -13 182 17 182 c 0
 24 182 29 181 35 179 c 1
 40 118 70 88 125 88 c 0x5e
 142 88 160 91 182 96 c 0
 238 111 279 118 306 118 c 0x3e
 328 118 349 114 369 106 c 1
 384 171 l 1x9e
 387 171 l 1x9d
 408 260 l 1
 409 295 403 322 392 341 c 0
 381 360 361 372 332 378 c 0
 323 380 313 381 303 381 c 0
 272 381 247 372 223 353 c 0
 198 333 180 307 173 275 c 0
 171 267 170 259 169 251 c 0
 167 232 170 217 176 206 c 0
 182 195 192 184 209 173 c 1
 213 166 214 159 212 150 c 0
 209 138 202 127 192 118 c 0
 182 109 172 106 162 108 c 1
 125 126 104 154 97 192 c 0
 92 220 93 248 100 277 c 0
 111 323 132 362 167 396 c 0
 202 430 242 449 289 456 c 0
 302 458 315 459 327 459 c 0
 375 459 413 443 442 411 c 1
 484 589 l 1
 132 589 l 1
 151 673 l 1
 646 673 l 1
 627 589 l 1x3d
EndSplineSet
Ligature2: "'vatu' Vattu Variants in Bengali lookup 7 subtable" u09a8 u09b0_u09cd.blwf
EndChar

StartChar: u09aa_u09b0_u09cd.blwf.vatu
Encoding: 222 -1 210
Width: 626
GlyphClass: 3
Flags: HW
AnchorPoint: "Anchor-1" 564 37 basechar 0
LayerCount: 2
Fore
SplineSet
498 535 m 1x30
 471 569 439 586 404 586 c 0
 369 586 328 569 286 534 c 1
 354 411 l 1
 498 535 l 1x30
760 589 m 1
 693 589 l 1
 571 61 l 2
 567 44 553 35 528 35 c 0
 502 35 491 43 495 60 c 2
 495 62 l 1
 492 61 490 61 488 62 c 0
 473 83 458 94 438 94 c 0x70
 426 94 396 87 351 72 c 1
 317 57 287 49 263 49 c 0xb0
 213 49 177 84 156 154 c 0
 155 160 155 165 156 171 c 0
 160 189 174 198 195 198 c 0
 203 198 211 196 219 193 c 1
 233 147 254 125 283 125 c 0
 295 125 312 128 334 135 c 0
 356 142 377 148 399 155 c 0
 424 162 445 167 462 167 c 0
 482 167 500 160 515 147 c 1
 556 327 l 2
 565 364 558 414 534 477 c 1
 287 267 l 1
 283 266 279 266 275 266 c 0
 263 266 255 270 248 278 c 0
 241 286 241 296 244 308 c 0
 245 313 246 317 248 322 c 1
 288 357 l 1
 228 468 l 1
 198 431 l 1
 191 427 186 426 179 426 c 0
 169 426 160 430 153 439 c 0
 146 448 143 458 145 469 c 1
 213 573 291 638 385 661 c 0
 400 665 414 667 428 667 c 0
 501 667 562 622 604 531 c 1
 619 600 l 2
 624 620 634 637 650 651 c 0
 666 665 682 673 700 673 c 2
 780 673 l 1
 760 589 l 1
EndSplineSet
Ligature2: "'vatu' Vattu Variants in Bengali lookup 7 subtable" u09aa u09b0_u09cd.blwf
EndChar

StartChar: u09ab_u09b0_u09cd.blwf.vatu
Encoding: 223 -1 211
Width: 650
GlyphClass: 3
Flags: HW
AnchorPoint: "Anchor-1" 388 -7 basechar 0
LayerCount: 2
Fore
SplineSet
782 590 m 1x3f
 244 590 l 1
 317 465 l 1
 318 454 318 444 316 436 c 0
 313 424 307 415 296 408 c 1
 192 323 l 1
 347 152 l 1
 430 509 l 2
 440 552 458 573 483 573 c 0
 589 573 650 541 667 476 c 0
 674 448 674 419 667 388 c 0
 658 347 638 310 608 278 c 0
 578 246 550 229 522 226 c 1
 502 229 494 243 500 270 c 0
 504 287 514 299 529 305 c 1
 541 304 553 311 566 328 c 0
 579 345 588 364 593 387 c 0
 598 407 598 425 594 442 c 0
 585 477 554 495 503 498 c 1
 404 73 l 2
 403 69 403 65 402 62 c 2
 393 22 l 2
 389 4 368 -5 334 -5 c 0x9f
 324 -5 318 -4 315 -1 c 0
 304 15 286 23 263 23 c 0x3f
 250 23 226 19 193 11 c 0
 160 3 136 -1 120 0 c 0
 80 2 51 10 35 25 c 0
 19 40 6 71 -3 116 c 1
 0 143 15 157 39 157 c 0
 49 157 59 153 68 146 c 1
 72 119 78 99 88 89 c 0
 98 79 112 74 131 74 c 0x5f
 143 74 163 76 191 81 c 0
 232 88 264 92 288 93 c 1
 107 292 l 1
 104 302 103 312 105 321 c 0
 108 333 115 344 127 355 c 2
 233 440 l 1
 142 590 l 1
 115 590 l 1
 134 673 l 1
 801 673 l 1
 782 590 l 1x3f
EndSplineSet
Ligature2: "'vatu' Vattu Variants in Bengali lookup 7 subtable" u09ab u09b0_u09cd.blwf
EndChar

StartChar: u09ac_u09b0_u09cd.blwf.vatu
Encoding: 224 -1 212
Width: 454
GlyphClass: 3
Flags: HW
AnchorPoint: "Anchor-1" 366 -29 basechar 0
LayerCount: 2
Fore
SplineSet
348 161 m 1x14
 420 475 l 1
 201 346 l 1
 348 161 l 1x14
590 590 m 1
 522 590 l 1x38
 413 121 l 1x94
 414 121 l 1
 386 0 l 2
 382 -18 361 -27 327 -27 c 0x98
 317 -27 310 -26 307 -23 c 0
 296 -7 278 1 255 1 c 0x38
 242 1 219 -3 186 -11 c 0
 153 -19 128 -23 112 -22 c 0
 72 -20 44 -12 28 3 c 0
 12 18 -2 49 -11 94 c 1
 -8 121 8 135 32 135 c 0
 42 135 51 131 60 124 c 1
 64 97 71 77 81 67 c 0
 91 57 105 52 124 52 c 0x58
 136 52 157 54 185 59 c 0
 229 67 263 71 288 71 c 0x38
 296 71 304 71 311 70 c 1
 112 324 l 2
 107 330 106 339 109 351 c 0
 113 367 119 378 129 384 c 2
 441 564 l 1
 447 590 l 1
 131 590 l 1
 151 673 l 1
 609 673 l 1
 590 590 l 1
EndSplineSet
Ligature2: "'vatu' Vattu Variants in Bengali lookup 7 subtable" u09ac u09b0_u09cd.blwf
EndChar

StartChar: u09ad_u09b0_u09cd.blwf.vatu
Encoding: 225 -1 213
Width: 581
GlyphClass: 3
Flags: HW
AnchorPoint: "Anchor-1" 520 22 basechar 0
LayerCount: 2
Fore
SplineSet
534 59 m 2
 532 50 524 42 511 35 c 0
 498 28 487 25 475 25 c 0
 463 25 456 29 453 36 c 0
 441 75 418 102 387 116 c 0
 366 125 332 130 286 131 c 0
 233 133 197 136 175 142 c 0
 129 154 104 182 96 226 c 0
 90 258 95 304 111 364 c 1
 121 380 134 387 149 387 c 0
 162 387 174 381 185 368 c 1
 174 307 168 275 168 272 c 0
 168 245 183 227 212 219 c 0
 235 212 267 208 306 207 c 0
 352 207 382 206 397 203 c 0
 430 197 457 183 481 162 c 1
 531 377 l 2
 532 380 532 392 534 412 c 1
 470 352 412 322 359 322 c 0
 352 322 344 322 338 324 c 0
 283 344 265 395 284 476 c 0
 287 487 290 500 294 514 c 1
 304 531 319 540 338 540 c 0
 357 540 365 531 364 512 c 0
 363 506 360 499 357 488 c 0
 353 472 354 472 352 464 c 0
 342 420 354 399 389 400 c 1
 424 409 455 429 483 458 c 0
 520 496 544 519 557 527 c 1
 576 529 590 522 602 505 c 1
 614 458 617 421 610 392 c 2
 534 59 l 2
724 590 m 1
 131 590 l 1
 150 673 l 1
 743 673 l 1
 724 590 l 1
EndSplineSet
Ligature2: "'vatu' Vattu Variants in Bengali lookup 7 subtable" u09ad u09b0_u09cd.blwf
EndChar

StartChar: u09ae_u09b0_u09cd.blwf.vatu
Encoding: 226 -1 214
Width: 448
GlyphClass: 3
Flags: HW
AnchorPoint: "Anchor-1" 425 59 basechar 0
LayerCount: 2
Fore
SplineSet
473 563 m 1x1a80
 464 576 456 585 448 588 c 0
 444 589 434 590 416 590 c 2
 298 590 l 1
 302 571 300 552 295 533 c 1
 306 526 324 508 348 480 c 0
 368 456 385 443 400 440 c 0
 405 439 411 439 416 439 c 0
 451 439 473 457 482 494 c 0
 487 517 484 540 473 563 c 1x1a80
583 590 m 1
 540 590 l 1
 557 561 560 524 550 480 c 0x2a80
 540 438 522 407 494 386 c 1
 425 87 l 2
 421 68 401 59 368 59 c 0
 357 59 350 60 347 64 c 0
 336 81 318 89 295 89 c 0x69
 281 89 258 84 225 76 c 0
 192 68 168 64 152 65 c 0
 111 66 84 75 68 91 c 0
 52 107 39 139 30 186 c 1
 34 216 49 230 74 230 c 0
 83 230 93 226 102 219 c 1
 106 190 112 169 122 158 c 0
 132 147 145 142 164 142 c 0x89
 176 142 197 144 225 150 c 0
 269 158 303 163 329 163 c 0
 344 163 356 162 366 159 c 1
 412 356 l 2
 411 356 411 356 410 356 c 0x59
 384 356 359 366 337 386 c 0
 330 392 314 411 288 444 c 0
 271 465 257 475 245 475 c 0
 237 475 229 472 221 465 c 0
 213 458 208 451 206 442 c 0
 201 422 209 411 227 410 c 1
 232 394 234 381 231 370 c 0
 227 351 210 342 182 342 c 1
 144 366 131 402 142 451 c 0x2d
 152 496 180 526 225 541 c 1
 227 545 228 549 229 553 c 0
 232 565 230 578 223 590 c 1
 131 590 l 1
 150 673 l 1
 602 673 l 1
 583 590 l 1
EndSplineSet
Ligature2: "'vatu' Vattu Variants in Bengali lookup 7 subtable" u09ae u09b0_u09cd.blwf
EndChar

StartChar: u09af_u09b0_u09cd.blwf.vatu
Encoding: 227 -1 215
Width: 460
GlyphClass: 3
Flags: HW
AnchorPoint: "Anchor-1" 396 -15 basechar 0
LayerCount: 2
Fore
SplineSet
352 143 m 1x14
 455 590 l 1
 255 590 l 1
 325 454 l 2
 327 447 326 438 324 430 c 0
 321 417 315 408 307 401 c 2
 179 304 l 1
 352 143 l 1x14
598 590 m 1
 530 590 l 1
 410 69 l 2x34
 409 64 407 60 405 56 c 2
 394 7 l 2
 390 -11 369 -20 335 -20 c 0x98
 325 -20 319 -19 316 -16 c 0
 305 0 287 8 264 8 c 0x38
 251 8 227 4 194 -4 c 0
 161 -12 137 -16 121 -15 c 0
 81 -13 52 -5 36 10 c 0
 20 25 7 56 -2 101 c 1
 1 128 16 142 40 142 c 0
 50 142 60 138 69 131 c 1
 73 104 79 85 89 75 c 0
 99 65 113 59 132 59 c 0x58
 144 59 165 61 193 66 c 0
 237 74 271 78 296 78 c 0
 296 78 l 2x38
 95 271 l 2
 87 278 84 288 87 299 c 0
 89 309 94 319 103 329 c 1
 243 438 l 1
 160 590 l 1
 131 590 l 1
 150 673 l 1
 617 673 l 1
 598 590 l 1
EndSplineSet
Ligature2: "'vatu' Vattu Variants in Bengali lookup 7 subtable" u09af u09b0_u09cd.blwf
EndChar

StartChar: u09b0_u09b0_u09cd.blwf.vatu
Encoding: 228 -1 216
Width: 454
GlyphClass: 3
Flags: HW
AnchorPoint: "Anchor-1" 388 0 basechar 0
LayerCount: 2
Fore
SplineSet
149 148 m 0x1c
 146 133 138 121 126 111 c 0
 114 101 102 96 89 96 c 0
 75 96 64 101 56 111 c 0
 48 121 47 133 51 148 c 0
 54 163 61 177 73 188 c 0
 85 199 98 205 113 205 c 0
 126 205 135 199 143 188 c 0
 151 177 153 164 149 148 c 0x1c
592 590 m 1
 524 590 l 1
 403 71 l 2x2d
 401 67 400 64 397 61 c 1
 390 33 l 2
 388 25 381 17 370 12 c 0
 359 7 345 4 333 4 c 0x8e
 323 4 316 6 312 11 c 0
 297 33 274 44 246 44 c 0x2e
 227 44 200 39 164 29 c 0
 132 20 104 15 75 15 c 0
 -18 15 -69 58 -76 145 c 1
 -70 168 -51 180 -21 180 c 0
 -14 180 -8 179 -2 177 c 1
 3 116 31 86 86 86 c 0x4e
 103 86 121 89 143 94 c 0
 199 109 240 116 267 116 c 0
 270 116 274 116 277 116 c 1
 113 324 l 2
 108 330 107 339 110 351 c 0
 114 367 121 378 131 384 c 2
 442 564 l 1
 448 590 l 1x2d
 133 590 l 1
 152 673 l 1
 611 673 l 1
 592 590 l 1
351 169 m 1x8d
 422 475 l 1x8d
 202 346 l 1
 346 166 l 1
 346 169 l 1x8e
 351 169 l 1x8d
EndSplineSet
Ligature2: "'vatu' Vattu Variants in Bengali lookup 7 subtable" u09b0 u09b0_u09cd.blwf
EndChar

StartChar: u09b2_u09b0_u09cd.blwf.vatu
Encoding: 229 -1 217
Width: 528
GlyphClass: 2
Flags: HW
AnchorPoint: "Anchor-1" 469 0 basechar 0
LayerCount: 2
Fore
SplineSet
658 590 m 1x7d
 590 590 l 1
 526 311 l 1x7d
 523 311 l 1
 457 27 l 2
 453 8 434 -1 401 -1 c 0
 390 -1 383 0 380 4 c 0
 369 21 351 29 328 29 c 0x7e
 314 29 291 25 258 17 c 0
 225 9 200 4 184 5 c 0
 143 6 116 15 100 31 c 0
 84 47 72 79 63 126 c 1
 67 156 81 170 106 170 c 0
 115 170 125 166 134 159 c 1
 138 130 145 110 155 99 c 0
 165 88 178 82 197 82 c 0xbe
 209 82 229 84 257 90 c 0
 301 98 335 103 361 103 c 0
 376 103 389 102 399 99 c 1
 463 376 l 1x7e
 465 376 l 1
 472 409 l 2
 482 452 476 482 454 499 c 0
 447 505 439 508 432 508 c 0
 419 508 401 494 379 466 c 0
 370 455 360 449 348 449 c 0
 336 449 327 455 320 466 c 1
 316 495 299 510 268 510 c 0
 234 510 210 490 199 452 c 0
 187 409 213 388 274 388 c 1
 285 382 289 371 285 354 c 0
 280 334 271 322 258 318 c 0
 249 317 241 316 234 316 c 0
 197 316 167 328 147 354 c 0
 127 380 121 411 129 447 c 0
 135 474 150 501 173 526 c 0
 208 565 245 585 285 585 c 0
 318 585 346 572 368 545 c 1
 397 570 423 582 447 582 c 0
 467 582 488 573 506 556 c 1
 514 590 l 1
 131 590 l 1
 150 673 l 1
 677 673 l 1
 658 590 l 1x7d
EndSplineSet
LCarets2: 1 0
Ligature2: "'vatu' Vattu Variants in Bengali lookup 7 subtable" u09b2 u09b0_u09cd.blwf
EndChar

StartChar: u09b6_u09b0_u09cd.blwf.vatu
Encoding: 230 -1 218
Width: 613
GlyphClass: 3
Flags: HW
AnchorPoint: "Anchor-1" 549 29 basechar 0
LayerCount: 2
Fore
SplineSet
664 592 m 1x7d
 544 72 l 2
 542 62 535 53 523 46 c 0
 511 39 499 35 487 35 c 0
 479 35 472 37 469 42 c 0
 453 66 426 78 386 78 c 0x7d
 366 78 336 73 300 64 c 0
 264 55 234 50 214 50 c 0
 167 50 127 62 95 87 c 0
 59 116 39 157 35 210 c 1
 38 221 44 230 54 237 c 0
 64 244 75 247 86 247 c 0
 94 247 102 245 109 242 c 1
 114 165 153 127 224 127 c 0xbd
 239 127 254 129 269 133 c 0
 325 148 372 156 408 156 c 0
 436 156 462 151 483 143 c 1
 568 513 l 2x7d
 573 533 564 550 543 566 c 0
 522 582 494 590 460 590 c 0
 437 590 416 584 398 574 c 0
 374 561 358 541 353 514 c 0
 346 478 353 452 375 437 c 0
 392 425 421 417 463 412 c 1
 470 408 469 398 466 383 c 0
 461 361 453 345 440 336 c 1
 393 339 359 347 339 358 c 0
 316 370 299 392 288 424 c 1
 260 386 229 361 197 349 c 0
 176 341 141 336 94 333 c 1
 86 342 82 354 86 370 c 0
 89 384 97 397 108 409 c 1
 141 411 171 420 199 435 c 0
 227 450 247 471 258 498 c 0
 266 516 266 534 257 553 c 0
 248 572 233 584 211 588 c 0
 203 589 179 590 141 590 c 0
 128 590 125 604 132 633 c 0
 138 660 147 673 160 673 c 0
 212 673 245 671 258 668 c 0
 289 659 313 634 327 596 c 1
 374 648 430 674 496 674 c 0
 539 674 571 663 594 641 c 1
 632 806 l 1
 666 828 686 827 692 801 c 1x7e
 685 714 711 671 770 672 c 1
 751 590 l 1
 664 592 l 1x7d
EndSplineSet
LCarets2: 1 0
Ligature2: "'vatu' Vattu Variants in Bengali lookup 7 subtable" u09b6 u09b0_u09cd.blwf
EndChar

